<?xml version="1.0" encoding="utf-8" ?>
<svg baseProfile="full" height="200mm" version="1.1" viewBox="0,0,200,200" width="200mm" xmlns="http://www.w3.org/2000/svg" xmlns:ev="http://www.w3.org/2001/xml-events" xmlns:xlink="http://www.w3.org/1999/xlink"><defs /><rect fill="#1a1a1a" height="200" width="200" x="0" y="0" /><rect fill="#1a1a1a" height="200" width="180" x="10" y="0" /><text alignment-baseline="middle" fill="#e1ed5e" style="dominant-baseline: central; font-size:9.0px; font-family:Arial;" text-anchor="middle" x="100.0" y="100.0">2025</text><line stroke="#e1ed5e" stroke-width="0.3" x1="100.0" x2="100.0" y1="15.0" y2="10.0" /><path d="M 100.0 14.0 a86.0,86.0 0 0,1 42.46469731375804,11.215312516191453" fill="none" id="id97" stroke="none" /><text fill="#e1ed5e" style="font-size:6.75px; font-family:Arial;" text-anchor="middle"><textPath startOffset="22.20632615414155" xlink:href="#id97">January</textPath></text><line stroke="#e1ed5e" stroke-width="0.3" x1="143.23703022742887" x2="145.7803849466894" y1="26.81831364943548" y2="22.513508569990506" /><path d="M 143.74570117128098 25.957352633546492 a86.0,86.0 0 0,1 28.547481713284135,27.462654790039103" fill="none" id="id98" stroke="none" /><text fill="#e1ed5e" style="font-size:6.75px; font-family:Arial;" text-anchor="middle"><textPath startOffset="19.985693538727396" xlink:href="#id98">February</textPath></text><line stroke="#e1ed5e" stroke-width="0.3" x1="172.23445277983987" x2="176.4835382374775" y1="55.19839476539836" y2="52.563006222186495" /><path d="M 173.08426987136738 54.67131705675599 a86.0,86.0 0 0,1 12.851231095245387,41.99856678651699" fill="none" id="id99" stroke="none" /><text fill="#e1ed5e" style="font-size:6.75px; font-family:Arial;" text-anchor="middle"><textPath startOffset="22.20632615414155" xlink:href="#id99">March</textPath></text><line stroke="#e1ed5e" stroke-width="0.3" x1="184.98032266829074" x2="189.97916517819016" y1="98.17113171792111" y2="98.06355123074" /><path d="M 185.9800911702706 98.14961562048488 a86.0,86.0 0 0,1 -9.607161424134198,41.387399972396054" fill="none" id="id100" stroke="none" /><text fill="#e1ed5e" style="font-size:6.75px; font-family:Arial;" text-anchor="middle"><textPath startOffset="21.466115282336823" xlink:href="#id100">April</textPath></text><path d="M 120.99824983174949 100.27111621757518 l 5.231070353745637 0.06754029595518161 a26.23150635452297,26.23150635452297 0 0,0 -0.009715572004919442,0.45144445446147236 l -5.22913271905571 -0.15757456620676882" fill="#ff1a02" stroke="none" /><path d="M 120.95626037817324 101.35467743843564 l 11.836110165976928 0.7651227419080852 a32.8608143342406,32.8608143342406 0 0,0 -0.04134741903823324,0.5641526820993208 l -11.821186188274357 -0.9687485605041762" fill="#ff7a0b" stroke="none" /><path d="M 120.8583938346157 102.4346265915055 l 8.600192750397836 1.0038288723575268 a29.658578852731786,29.658578852731786 0 0,0 -0.06355196601220367,0.5065716984543912 l -8.581639275138786 -1.151718325099313" fill="#ff4d07" stroke="none" /><path d="M 120.76222939487914 103.15116336523771 l 4.363597752331546 0.6622800045342045 a25.413570000414488,25.413570000414488 0 0,0 -0.06936482132573091,0.4319348086092189 l -4.351551176644526 -0.7372940428366284" fill="#ff0e01" stroke="none" /><path d="M 120.64145759157962 103.86396538481128 l 11.957321380770862 2.2383436685794 a33.16502022117964,33.16502022117964 0 0,0 -0.10987107998337725,0.5602302697608336 l -11.917020367811821 -2.4438376654081786" fill="#ff7f0b" stroke="none" /><path d="M 120.49622156327973 104.57218783832717 l 7.928444662186611 1.7686351676761887 a29.123318602498387,29.123318602498387 0 0,0 -0.11335826575202006,0.4883444419982511 l -7.896825830504038 -1.9048482670230047" fill="#ff4506" stroke="none" /><path d="M 120.23288151984713 105.62410040840565 l 11.21015127673935 3.1160670966196293 a32.635177944407054,32.635177944407054 0 0,0 -0.1551062407325807,0.5399451720172368 l -11.15485239912067 -3.3085697441414483" fill="#ff770b" stroke="none" /><path d="M 119.9155931802556 106.66101706037122 l 6.364475121868687 2.128677613735603 a27.711021677815125,27.711021677815125 0 0,0 -0.1551938206305693,0.45106588736958786 l -6.326890470294887 -2.2379162041944913" fill="#ff3004" stroke="none" /><path d="M 119.54520255179757 107.68017299344265 l 8.059374810056818 3.166884180207058 a29.659253878933455,29.659253878933455 0 0,0 -0.1908041743866763,0.47356031309127966 l -8.003668021412748 -3.3051438611411514" fill="#ff4d07" stroke="none" /><path d="M 119.41010516605496 108.01547362559984 l 15.153287453076896 6.257605246450978 a37.39450347085841,37.39450347085841 0 0,0 -0.2508085296510098,0.5928372764530396 l -15.043327942233578 -6.517517048570181" fill="#ffb911" stroke="none" /><path d="M 119.12269723197855 108.67885076344098 l 6.350781034822947 2.8823068296216956 a27.974246368773525,27.974246368773525 0 0,0 -0.20278049390969077,0.43677114368185144 l -6.300225924073424 -2.9911980405823777" fill="#ff3404" stroke="none" /><path d="M 118.64920377521936 109.65438752849418 l 3.1213037809347424 1.6158478752503023 a24.514754849036905,24.514754849036905 0 0,0 -0.19722411158221073,0.3730736932665035 l -3.0930271611276385 -1.6693365836029401" fill="#ff0000" stroke="none" /><line stroke="#e1ed5e" stroke-width="0.3" x1="174.80103733775053" x2="179.2010983576182" y1="140.37084112569926" y2="142.7455964860345" /><path d="M 175.68104954172406 140.8457921977663 a86.0,86.0 0 0,1 -30.038265399797805,32.042727171017184" fill="none" id="id101" stroke="none" /><text fill="#e1ed5e" style="font-size:6.75px; font-family:Arial;" text-anchor="middle"><textPath startOffset="22.206326154141568" xlink:href="#id101">May</textPath></text><path d="M 117.55443506779139 111.5257021239791 l 18.547459040733766 12.17769112105619 a43.18793361058094,43.18793361058094 0 0,0 -0.41336383521212927,0.6179228477004713 l -18.335092100110916 -12.495150882962468" fill="#faff18" stroke="none" /><path d="M 116.93607887273984 112.41649034213515 l 14.780770938106592 10.836351258242717 a39.327512054744226,39.327512054744226 0 0,0 -0.40495863765482804,0.5425082725334075 l -14.592051033756672 -11.089172410285439" fill="#ffd213" stroke="none" /><path d="M 116.0416608686014 113.55231037782055 l 7.470702988380381 6.311396710624365 a30.779832901408675,30.779832901408675 0 0,0 -0.3454046751131783,0.4017836705836947 l -7.360955803696425 -6.439057480369588" fill="#ff5d08" stroke="none" /><path d="M 115.32070863581623 114.36230785411682 l 14.90439829654265 13.972040184544337 a41.42936600828585,41.42936600828585 0 0,0 -0.49220739998049234,0.5160774910602934 l -14.661684345183193 -14.226524792187137" fill="#ffee16" stroke="none" /><path d="M 114.81725581225074 114.88116024355365 l 26.590086586369384 26.70476533546625 a58.68523844017629,58.68523844017629 0 0,0 -0.7219682926598769,0.7065979285506141 l -26.126468341333712 -27.158513366939435" fill="#48ff2c" stroke="none" /><path d="M 114.0293411484842 115.62618273729858 l 11.909988456212195 13.265602001274042 a38.827619624709115,38.827619624709115 0 0,0 -0.5011677722719835,0.44222228925231183 l -11.679878331033624 -13.468647432298642" fill="#ffcc13" stroke="none" /><path d="M 113.48314897796784 116.09983520530334 l 14.502967020874841 17.317570206008817 a43.58836625895347,43.58836625895347 0 0,0 -0.5793721462289811,0.47678383289155635 l -14.20272474610117 -17.564649157757554" fill="#f5ff19" stroke="none" /><path d="M 112.92097659922987 116.55440617244103 l 11.102578511573407 14.224667371733858 a39.044622784700195,39.044622784700195 0 0,0 -0.5333705039875642,0.40896575837260307 l -10.856079279092349 -14.413672471933834" fill="#ffce13" stroke="none" /><path d="M 112.34349029814194 116.9893568818739 l 6.185651257123722 8.513818556644875 a31.52365848411221,31.52365848411221 0 0,0 -0.4417405341951848,0.31517014220964373 l -6.0381833950796535 -8.619032960698739" fill="#ff6709" stroke="none" /><path d="M 111.45004920935366 117.60387380957326 l 10.255980106836967 15.768052721272369 a39.810013678162505,39.810013678162505 0 0,0 -0.5776588394522252,0.36868920232044844 l -9.983039465337813 -15.942256352416626" fill="#ffd914" stroke="none" /><line stroke="#e1ed5e" stroke-width="0.3" x1="143.8653032363475" x2="146.44561519142675" y1="172.8068346515853" y2="177.08958963109032" /><path d="M 144.38136562736335 173.6633856474863 a86.0,86.0 0 0,1 -40.68145358897372,12.25698825130547" fill="none" id="id102" stroke="none" /><text fill="#e1ed5e" style="font-size:6.75px; font-family:Arial;" text-anchor="middle"><textPath startOffset="21.466115282336833" xlink:href="#id102">June</textPath></text><path d="M 110.8373102113329 117.98757091392108 l 19.642875902591808 32.60288912665211 a59.06298665540307,59.06298665540307 0 0,0 -0.8753475752468265,0.5171707767043209 l -19.0787604563166 -32.93617847565018" fill="#44ff2d" stroke="none" /><path d="M 109.89434966115114 118.52300852407294 l 8.45788820114847 15.833838565525488 a38.95122047500528,38.95122047500528 0 0,0 -0.5941157274209726,0.3108132689432895 l -8.184081571201002 -15.977081253413493" fill="#ffcd13" stroke="none" /><path d="M 109.2508944713604 118.85261126421891 l 9.387607827160656 19.131222566024206 a42.31034625686129,42.31034625686129 0 0,0 -0.6565907551254697,0.3152034634147045 l -9.056904404034954 -19.28998030593847" fill="#fff917" stroke="none" /><path d="M 108.59647513512805 119.15986991738527 l 9.756438348713932 21.745202153203657 a44.833629726417016,44.833629726417016 0 0,0 -0.7068327563079152,0.30985470846545504 l -9.380684917748262 -21.909921414963566" fill="#e6ff1a" stroke="none" /><path d="M 108.2653958097858 119.30500536409082 l 3.5108429489515243 8.200072146786404 a29.920044922796343,29.920044922796343 0 0,0 -0.4751994721366982,0.1986334178929582 l -3.3691720173173647 -8.259290607699334" fill="#ff5007" stroke="none" /><path d="M 107.59598834532513 119.57807347666477 l 4.699506284480433 12.112614601130968 a33.99233588672192,33.99233588672192 0 0,0 -0.5473248109152319,0.20695141076574125 l -4.490311252804927 -12.19171426200334" fill="#ff8a0c" stroke="none" /><path d="M 107.2578585660854 119.70592522655815 l 6.172784327811118 16.759823203488494 a38.860429450880005,38.860429450880005 0 0,0 -0.6296878098886972,0.2257836454069058 l -5.883376957292685 -16.863594389935358" fill="#ffcc13" stroke="none" /><path d="M 106.91757812671514 119.82793768551818 l 5.5096493945429845 15.792374565623744 a37.72588804433856,37.72588804433856 0 0,0 -0.6149863490189855,0.2086367597183472 l -5.236993312586772 -15.884874312240214" fill="#ffbd11" stroke="none" /><path d="M 106.2309692047433 120.05430185196036 l 6.329419997153854 20.371164581287097 a42.33180498453558,42.33180498453558 0 0,0 -0.6977189086791861,0.2102169837095571 l -5.977826114034423 -20.47709693410238" fill="#fff917" stroke="none" /><path d="M 105.88484417918355 120.15858648285463 l 3.2736059336548453 11.213766467733857 a32.68182580771227,32.68182580771227 0 0,0 -0.5413804079970295,0.15299951100269157 l -3.0800943575532105 -11.268454772075067" fill="#ff780b" stroke="none" /><path d="M 104.83641907484287 120.43548508189849 l 4.207024248275974 17.77608183542741 a39.26713273738915,39.26713273738915 0 0,0 -0.659089194335504,0.15000655482057143 l -3.9004149045476075 -17.845865123825664" fill="#ffd113" stroke="none" /><path d="M 104.48393922423573 120.51570834832081 l 3.72720970757215 17.05338620565576 a38.455946645297416,38.455946645297416 0 0,0 -0.6479067753296425,0.13577516424990646 l -3.4331114708131296 -17.115017350632204" fill="#ffc712" stroke="none" /><path d="M 103.7750983002368 120.6578951692458 l 7.129078328315691 39.011368988841795 a60.657416307606674,60.657416307606674 0 0,0 -1.0287238669429604,0.17885683052429077 l -6.456505489900681 -39.12830439788709" fill="#34ff2f" stroke="none" /><path d="M 102.70371172650421 120.8252237178851 l 2.2911476733852263 17.647466777329527 a38.79557364397697,38.79557364397697 0 0,0 -0.6629841660863794,0.08027814954741572 l -1.9870360842474668 -17.68429045560229" fill="#ffcb12" stroke="none" /><path d="M 101.98527174616119 120.90594882070398 l 2.0808606935285967 21.91255038311079 a43.011130037284346,43.011130037284346 0 0,0 -0.7376525182516863,0.0636477631546786 l -1.7033638575353687 -21.945122398544132" fill="#fcff18" stroke="none" /><path d="M 101.26447882468166 120.96189622390904 l 1.0938795105616792 18.13378629541462 a39.166749235661115,39.166749235661115 0 0,0 -0.673317323596709,0.03480281472541989 l -0.7815741185514905 -18.14992891690224" fill="#ffd013" stroke="none" /><path d="M 100.90346689309514 120.98055641714683 l 0.919302463312834 21.348294379532778 a42.3680787609519,42.3680787609519 0 0,0 -0.7288916473798732,0.0251045021105552 l -0.5516904642583086 -21.360955680069427" fill="#fff917" stroke="none" /><line stroke="#e1ed5e" stroke-width="0.3" x1="102.19456741930631" x2="102.32365962044197" y1="184.97166512339345" y2="189.96999836594603" /><path d="M 102.22038585953345 185.97133177190398 a86.0,86.0 0 0,1 -42.740103519485714,-10.115201625700543" fill="none" id="id103" stroke="none" /><text fill="#e1ed5e" style="font-size:6.75px; font-family:Arial;" text-anchor="middle"><textPath startOffset="22.20632615414155" xlink:href="#id103">July</textPath></text><path d="M 100.18074693466247 120.99922214144158 l 0.21037731484100153 24.44168680434978 a45.44259217956487,45.44259217956487 0 0,0 -0.7822484990068971,0.0 l 0.21037731484098468 -24.44168680434978" fill="#deff1b" stroke="none" /><path d="M 99.45781275523022 120.99299961872073 l -0.47849830722440967 18.527021574227252 a39.53319964393355,39.53319964393355 0 0,0 -0.6801209745017353,-0.02342474152528298 l 0.797339633400788 -18.516040034275875" fill="#ffd513" stroke="none" /><path d="M 98.73552117531835 120.96189622390904 l -2.557429136991045 42.39577850036698 a63.47284401170835,63.47284401170835 0 0,0 -1.0900319633281963,-0.07517498613479916 l 3.2868238610981715 -42.34547516971589" fill="#32ff4d" stroke="none" /><path d="M 97.65516085044442 120.86867818915974 l -2.0476337961438604 18.223600006453584 a39.33827694627621,39.33827694627621 0 0,0 -0.6722585152584889,-0.08140114407410673 l 2.3610197344537385 -18.185653333654127" fill="#ffd213" stroke="none" /><path d="M 97.2962882734958 120.8252237178851 l -1.5545510127063378 11.973862562016777 a33.07435354398625,33.07435354398625 0 0,0 -0.5639514461466659,-0.07815853169864383 l 1.7604310500398346 -11.945329464825528" fill="#ff7d0b" stroke="none" /><path d="M 96.93821686468263 120.77559828337769 l -3.663252628858775 24.856843761995755 a46.12532789101682,46.12532789101682 0 0,0 -0.7844910905699525,-0.12252137447288908 l 4.090579583037244 -24.79010408017576" fill="#d6ff1c" stroke="none" /><path d="M 96.22490169976321 120.6578951692458 l -4.653334500699268 25.463733301156832 a46.88542515795021,46.88542515795021 0 0,0 -0.7926592540784441,-0.15191503258905467 l 5.090961369349407 -25.37986107021931" fill="#cdff1d" stroke="none" /><path d="M 95.86986931433489 120.58985236759428 l -2.5285660949042708 12.60560659169537 a33.856708911727495,33.856708911727495 0 0,0 -0.5704187000413792,-0.11953678467080991 l 2.7451762563750366 -12.56021382629802" fill="#ff880c" stroke="none" /><path d="M 95.16358092515715 120.4354850818985 l -4.266672701829738 18.028116463505242 a39.52612963266337,39.52612963266337 0 0,0 -0.660738951160025,-0.16239355849632045 l 4.576364937732974 -17.952001646694892" fill="#ffd513" stroke="none" /><path d="M 94.81253420990036 120.34920634021253 l -3.516199821514001 13.793223627221746 a35.23434857010897,35.23434857010897 0 0,0 -0.5864162650744963,-0.15487786546066842 l 3.753106529399987 -13.730654412457495" fill="#ff9b0e" stroke="none" /><path d="M 94.46302465271185 120.25689768951611 l -6.446120061784742 23.582982837347163 a45.44809897226274,45.44809897226274 0 0,0 -0.7528560524450922,-0.21276464049683128 l 6.851107282334448 -23.46852940351181" fill="#deff1b" stroke="none" /><path d="M 93.76903079525671 120.05430185196036 l -6.004667313686948 19.32595184993201 a41.23730329006192,41.23730329006192 0 0,0 -0.6760534908942598,-0.21645097871875435 l 6.3364421496721475 -19.21972802455355" fill="#ffeb16" stroke="none" /><path d="M 93.42475214034765 119.94407469862007 l -3.75868981961652 11.400876762589169 a33.00448833211289,33.00448833211289 0 0,0 -0.5380207288096391,-0.18252584256415907 l 3.954380281363385 -11.334487933126887" fill="#ff7c0b" stroke="none" /><path d="M 93.08242187328487 119.8279376855182 l -3.952870578363612 11.330160653195268 a32.999905259480464,32.999905259480464 0 0,0 -0.5347248695654003,-0.19173331362655432 l 4.1473150085587385 -11.260439798528756" fill="#ff7c0b" stroke="none" /><path d="M 92.40401165467489 119.57807347666478 l -5.893543480464246 15.19015328261528 a37.29339165138647,37.29339165138647 0 0,0 -0.5964792504103448,-0.2373514036670597 l 6.15414380691645 -15.086455034542153" fill="#ffb711" stroke="none" /><path d="M 92.06813273071674 119.44442032107085 l -4.412164336124976 10.816113654534831 a32.68141723922179,32.68141723922179 0 0,0 -0.5190564473024818,-0.2169656370691625 l 4.59769224292492 -10.738562974445696" fill="#ff780b" stroke="none" /><path d="M 91.7346041902142 119.30500536409082 l -11.322441592409833 26.44516980267174 a49.76707648520568,49.76707648520568 0 0,0 -0.7846119098561135,-0.34395080366235664 l 11.77597417692369 -26.246354445714932" fill="#aaff21" stroke="none" /><path d="M 90.10565033884886 118.52300852407294 l -9.306231424892822 17.422004468581722 a40.751764048736106,40.751764048736106 0 0,0 -0.6158895373895471,-0.3358320821863846 l 9.604743774151009 -17.25923173463557" fill="#ffe515" stroke="none" /><line stroke="#e1ed5e" stroke-width="0.3" x1="58.666819895761336" x2="56.23545636021788" y1="174.27360380694188" y2="178.64263932499728" /><path d="M 58.180547188652646 175.14741091055294 a86.0,86.0 0 0,1 -31.652253787137756,-30.449443065178592" fill="none" id="id104" stroke="none" /><text fill="#e1ed5e" style="font-size:6.75px; font-family:Arial;" text-anchor="middle"><textPath startOffset="22.20632615414155" xlink:href="#id104">August</textPath></text><path d="M 89.4739219176387 118.17145234162733 l -9.64489242778445 16.65023779229761 a40.24199491953964,40.24199491953964 0 0,0 -0.5964096072796835,-0.35236930855012516 l 9.930069906092516 -16.481749911453733" fill="#ffde14" stroke="none" /><path d="M 88.8546689885994 117.79835938074946 l -9.559938316189188 15.266591690752275 a39.01280773398441,39.01280773398441 0 0,0 -0.5660910699899798,-0.3613061045395746 l 9.82131118822609 -15.099771157388895" fill="#ffce13" stroke="none" /><path d="M 88.54995079064634 117.60387380957326 l -8.679915432762414 13.344932686515694 a36.91942713565856,36.91942713565856 0 0,0 -0.5297503573333497,-0.35108965043647106 l 8.908340488835725 -13.193545014987905" fill="#ffb210" stroke="none" /><path d="M 87.95078237400918 117.19931262002967 l -7.5307181232149 10.74950916108509 a34.1249252438088,34.1249252438088 0 0,0 -0.4781920446882186,-0.34117732709879584 l 7.714637495752005 -10.618287572142075" fill="#ff8c0c" stroke="none" /><path d="M 87.36589467227662 116.77436683061367 l -22.616046325325062 30.027441396003955 a58.591658492007255,58.591658492007255 0 0,0 -0.8003935033941675,-0.6137076078727652 l 23.129568557212718 -29.63369444630382" fill="#49ff2c" stroke="none" /><path d="M 86.79598089348748 116.32954008644616 l -8.767892164989755 10.843338337129483 a34.94467351035336,34.94467351035336 0 0,0 -0.4644810583329882,-0.38223628929858783 l 8.953243351867432 -10.690806928973714" fill="#ff970e" stroke="none" /><path d="M 86.51685102203217 116.09983520530335 l -11.477455249336101 13.704894783296064 a38.87613269199265,38.87613269199265 0 0,0 -0.5093412495589766,-0.43407166279659176 l 11.711661975472135 -13.50529873027652" fill="#ffcc13" stroke="none" /><path d="M 85.70375840098266 115.38237550388516 l -12.206552482574926 13.133925626141863 a38.930419009685245,38.930419009685245 0 0,0 -0.4869345726664216,-0.4604270313796951 l 12.430822889632164 -12.921863958016237" fill="#ffcd13" stroke="none" /><path d="M 85.44109423537348 115.13401014063109 l -19.409372970052576 20.17607999536372 a48.99639196521444,48.99639196521444 0 0,0 -0.6027723903632097,-0.5899396507414241 l 19.75379531279158 -19.83899024169973" fill="#b3ff20" stroke="none" /><path d="M 84.67929136418377 114.36230785411682 l -12.719941872647109 11.924234407431252 a38.43514517997738,38.43514517997738 0 0,0 -0.44832508909719543,-0.4865683389345311 l 12.923313369740033 -11.703514813695376" fill="#ffc612" stroke="none" /><path d="M 84.19399662182784 113.82643327865904 l -17.55617915246161 15.357414133854624 a44.32529946886096,44.32529946886096 0 0,0 -0.4974089921597842,-0.5785990319494307 l 17.817930654192175 -15.052938002743662" fill="#ecff1a" stroke="none" /><path d="M 83.95833913139862 113.55231037782056 l -11.972146647750824 10.114304783532626 a36.672634003556716,36.672634003556716 0 0,0 -0.40323132789816957,-0.48571811047982866 l 12.14447397554253 -9.906725415939036" fill="#ffaf10" stroke="none" /><path d="M 83.72743513129214 113.27417163493432 l -9.3221969841879 7.6044829921518975 a33.03044131318255,33.03044131318255 0 0,0 -0.3555995779920806,-0.4436651494797884 l 9.451714474234842 -7.4428900090938495" fill="#ff7d0b" stroke="none" /><path d="M 83.28015986056508 112.70617746262583 l -10.786506988163444 8.197164018943214 a34.54777586761591,34.54777586761591 0 0,0 -0.3557412996245416,-0.47657360525940345 l 10.92600955448307 -8.010277534174502" fill="#ff920d" stroke="none" /><path d="M 83.06392112726016 112.41649034213515 l -14.60448721066853 10.707110882376654 a39.10892791233344,39.10892791233344 0 0,0 -0.3933617082671652,-0.5463450083958384 l 14.786628711311304 -10.454132268529678" fill="#ffcf13" stroke="none" /><path d="M 82.44556493220864 111.52570212397912 l -13.41860141664005 8.810240959127373 a37.0523895335411,37.0523895335411 0 0,0 -0.3454608414726954,-0.5361628976447498 l 13.56826712148979 -8.577956461561175" fill="#ffb410" stroke="none" /><path d="M 82.24976979558568 111.22182372390057 l -10.87510900194955 6.875322448929827 a33.866159278550946,33.866159278550946 0 0,0 -0.30727146958100493,-0.4954194463304356 l 10.991845111198511 -6.687106671234128" fill="#ff880c" stroke="none" /><line stroke="#e1ed5e" stroke-width="0.3" x1="26.63291911575756" x2="22.317208475507996" y1="142.92168965132927" y2="145.44649492493687" /><path d="M 25.769776987707644 143.4266507060508 a86.0,86.0 0 0,1 -11.730757126820373,-40.83630448921669" fill="none" id="id105" stroke="none" /><text fill="#e1ed5e" style="font-size:6.75px; font-family:Arial;" text-anchor="middle"><textPath startOffset="21.46611528233685" xlink:href="#id105">September</textPath></text><path d="M 81.87401531095188 110.60418214915194 l -13.311442579034567 7.787547225577633 a36.42207493580343,36.42207493580343 0 0,0 -0.311925593961561,-0.5438685653585492 l 13.443520169148506 -7.557258814360776" fill="#ffab0f" stroke="none" /><path d="M 81.69416730710424 110.29060199501025 l -15.695173375881598 8.823022976527028 a39.0051159880548,39.0051159880548 0 0,0 -0.32397201811412263,-0.5881033169109807 l 15.844721803447237 -8.551549141218226" fill="#ffce13" stroke="none" /><path d="M 81.35079622478065 109.6543875284942 l -15.021680660103838 7.776478190164618 a37.91521513006097,37.91521513006097 0 0,0 -0.2950549948521157,-0.5821714967178474 l 15.15331432474222 -7.516752481744086" fill="#ffbf11" stroke="none" /><path d="M 81.18737489456691 109.33194174019688 l -16.03963554292952 7.956409250795181 a38.90459037554747,38.90459037554747 0 0,0 -0.2924268044532627,-0.6024858311321298 l 16.174215603997503 -7.679134463697766" fill="#ffcd13" stroke="none" /><path d="M 81.02952815118164 109.00673069616217 l -34.11920984652743 16.19899268202221 a58.76940354921671,58.76940354921671 0 0,0 -0.42600928444639824,-0.9175860991324112 l 34.39299374781366 -15.609286515610972" fill="#47ff2c" stroke="none" /><path d="M 80.73074385275274 108.34839909993369 l -12.41110333329339 5.377106573553557 a34.52585527990889,34.52585527990889 0 0,0 -0.2315682304605518,-0.5473588926592963 l 12.501822544946247 -5.162673155228102" fill="#ff910d" stroke="none" /><path d="M 80.58989483394504 108.01547362559985 l -10.640733502190082 4.39412965639157 a32.512323175702214,32.512323175702214 0 0,0 -0.2091585650217292,-0.5191144054148553 l 10.714794681469199 -4.21031588313391" fill="#ff750a" stroke="none" /><path d="M 80.20201598880116 107.00284435728193 l -13.794390050258462 4.8792829851239485 a35.63190347520068,35.63190347520068 0 0,0 -0.19955421712521154,-0.5799979642243304 l 13.876335098326901 -4.641112317810321" fill="#ffa10e" stroke="none" /><path d="M 80.0844068197444 106.66101706037122 l -21.65123711271842 7.2415246927688575 a43.83014998608499,43.83014998608499 0 0,0 -0.2331508282174155,-0.7175644656835183 l 21.772680191952084 -6.8677613271075355" fill="#f2ff19" stroke="none" /><path d="M 79.76711848015287 105.62410040840567 l -10.53684938720951 2.9289104907664103 a31.93634818719937,31.93634818719937 0 0,0 -0.14266715514571635,-0.5309175577816305 l 10.585704618697001 -2.747101999809241" fill="#ff6d0a" stroke="none" /><path d="M 79.58551787078972 104.9243191809786 l -24.6730067106774 5.951547505775623 a46.380665433724076,46.380665433724076 0 0,0 -0.18052996877699373,-0.7777183805830395 l 24.77179724538495 -5.525960467844009" fill="#d3ff1c" stroke="none" /><path d="M 79.50377843672027 104.57218783832718 l -15.178326324146537 3.3859001187689737 a36.55139574496641,36.55139574496641 0 0,0 -0.13169983309553665,-0.6152577750903077 l 15.234360195966515 -3.124128524262502" fill="#ffad10" stroke="none" /><path d="M 79.4281124754447 104.21870165774334 l -52.24398243903394 10.713736163470054 a74.33120890876685,74.33120890876685 0 0,0 -0.24624891360869758,-1.2556179052775802 l 52.42066128561831 -9.81285453112452" fill="#40ffca" stroke="none" /><path d="M 79.29508885075956 103.50808413554451 l -15.33449868772683 2.5981619136248293 a36.55304778277578,36.55304778277578 0 0,0 -0.09976936055507706,-0.6212639034137666 l 15.376949802643198 -2.333818780517849" fill="#ffad10" stroke="none" /><path d="M 79.1416061653843 102.43462659150553 l -14.590016939656545 1.7029711632376245 a35.6890675361741,35.6890675361741 0 0,0 -0.06596987920608588,-0.61079914957159 l 14.617169120363684 -1.4515756917812526" fill="#ffa10e" stroke="none" /><path d="M 79.10278846688536 102.07522291339032 l -16.244698879515855 1.6131995066651232 a37.32460273129023,37.32460273129023 0 0,0 -0.057987153947910486,-0.6398834118235953 l 16.270060629740843 -1.3333347062929617" fill="#ffb811" stroke="none" /><path d="M 79.07016306316243 101.71520430193888 l -62.78951081051271 5.145612905816642 a84.0,84.0 0 0,0 -0.10569376534265862,-1.4421074540129575 l 62.86878113451971 -4.064032315306924" fill="#4dd2ff" stroke="none" /><path d="M 79.0235259727143 100.99374915477108 l -12.291161007964153 0.582287130188396 a33.30494604724789,33.30494604724789 0 0,0 -0.022199914769871376,-0.5728811571065328 l 12.299363055585225 -0.37062872606786645" fill="#ff800b" stroke="none" /><path d="M 79.0095281055655 100.63252640178507 l -12.638782691573544 0.38085678964483705 a33.6445197543852,33.6445197543852 0 0,0 -0.012461188840125545,-0.5790224800992859 l 12.643465943098677 -0.16324449375542227" fill="#ff850c" stroke="none" /><line stroke="#e1ed5e" stroke-width="0.3" x1="15.007084014347285" x2="10.007500721073583" y1="101.09737516637583" y2="101.16192664675087" /><path d="M 14.007167355692545 101.11028546245083 a86.0,86.0 0 0,1 10.666146001902534,-42.60595125391555" fill="none" id="id106" stroke="none" /><text fill="#e1ed5e" style="font-size:6.75px; font-family:Arial;" text-anchor="middle"><textPath startOffset="22.20632615414155" xlink:href="#id106">October</textPath></text><path d="M 79.00019446554 99.90962569577889 l -13.682316891812812 -0.058882919996633226 a34.682443594850064,34.682443594850064 0 0,0 0.0077077484474951,-0.5969736114952914 l 13.679276136247601 0.2943927895523966" fill="#ff940d" stroke="none" /><path d="M 79.00486145842228 99.54816195383935 l -13.972418324088682 -0.30070152588862364 a34.97565366024076,34.97565366024076 0 0,0 0.01813455255553512,-0.6017975133699642 l 13.965172077077503 0.5411691866835823" fill="#ff980e" stroke="none" /><path d="M 79.01574976396665 99.18683210126434 l -24.301959394790924 -0.9417335875211542 a45.32019927089275,45.32019927089275 0 0,0 0.0369173849363711,-0.7792676477310178 l 24.282148401621054 1.359912341875181" fill="#e0ff1b" stroke="none" /><path d="M 79.05617556472873 98.46500227214037 l -15.34604331749597 -1.1247297119393906 a36.3872045033327,36.3872045033327 0 0,0 0.05115957120601992,-0.6242763511554869 l 15.324409262470454 1.3887199803026558" fill="#ffab0f" stroke="none" /><path d="M 79.08570108090925 98.10471618934814 l -18.065949792941428 -1.6371623212938033 a39.13997911761049,39.13997911761049 0 0,0 0.06658059784850445,-0.6704575341105768 l 18.035092069410695 1.9478953861088104" fill="#ffd013" stroke="none" /><path d="M 79.16333360222342 97.38593545837743 l -18.35769620658055 -2.303065269817917 a39.50159775938671,39.50159775938671 0 0,0 0.0904473744704485,-0.6739379969680003 l 18.315332833052267 2.6187216088505765" fill="#ffd413" stroke="none" /><path d="M 79.21141760316559 97.0276538004421 l -13.00988262395588 -1.8601496935114787 a34.14219170349375,34.14219170349375 0 0,0 0.08819108023714699,-0.5810690295099056 l 12.97593565027943 2.0838178354134764" fill="#ff8c0c" stroke="none" /><path d="M 79.26566170972629 96.67025291283419 l -19.03910587185485 -3.057508102334203 a40.283047170909924,40.283047170909924 0 0,0 0.11583896337829984,-0.6836881191264846 l 18.98365504695633 3.384782009776515" fill="#ffdf14" stroke="none" /><path d="M 79.3925641242962 95.95851677861259 l -12.784745189069524 -2.50731500430173 a34.02828991388482,34.02828991388482 0 0,0 0.11767420820738116,-0.5738212303636177 l 12.739691684947148 2.72701189082875" fill="#ff8b0c" stroke="none" /><path d="M 79.46518482838121 95.60439243477599 l -17.787462915150172 -3.807519371493422 a39.190410680414566,39.190410680414566 0 0,0 0.14688120458304388,-0.6584396396358426 l 17.71928732356509 4.113137180679224" fill="#ffd013" stroke="none" /><path d="M 79.62865764111835 94.90015583598534 l -13.664615948475145 -3.4208551734417085 a35.08630466577321,35.08630466577321 0 0,0 0.15171262689372178,-0.5846106388969344 l 13.603706989711116 3.655562237887507" fill="#ff990e" stroke="none" /><path d="M 79.71946130924805 94.55025226153421 l -13.347235899165904 -3.586643814812385 a34.820735146956366,34.820735146956366 0 0,0 0.16052894384906058,-0.5775080218251261 l 13.283520184750483 3.8158631400564538" fill="#ff960d" stroke="none" /><line stroke="#e1ed5e" stroke-width="0.3" x1="26.266209847984243" x2="21.928928074336255" y1="57.711370442889674" y2="55.22380399835377" /><path d="M 25.398753493254645 57.213857153982495 a86.0,86.0 0 0,1 29.58750427330803,-30.492523968695096" fill="none" id="id107" stroke="none" /><text fill="#e1ed5e" style="font-size:6.75px; font-family:Arial;" text-anchor="middle"><textPath startOffset="21.46611528233685" xlink:href="#id107">November</textPath></text><line stroke="#e1ed5e" stroke-width="0.3" x1="56.762969772571076" x2="54.21961505331055" y1="26.818313649435495" y2="22.513508569990535" /><path d="M 56.25429882871897 25.957352633546506 a86.0,86.0 0 0,1 42.265352541879196,-11.944610805530505" fill="none" id="id108" stroke="none" /><text fill="#e1ed5e" style="font-size:6.75px; font-family:Arial;" text-anchor="middle"><textPath startOffset="22.20632615414155" xlink:href="#id108">December</textPath></text></svg>