<?xml version="1.0" encoding="utf-8" ?>
<svg baseProfile="full" height="200mm" version="1.1" viewBox="0,0,200,200" width="200mm" xmlns="http://www.w3.org/2000/svg" xmlns:ev="http://www.w3.org/2001/xml-events" xmlns:xlink="http://www.w3.org/1999/xlink"><defs /><rect fill="#1a1a1a" height="200" width="200" x="0" y="0" /><rect fill="#1a1a1a" height="200" width="180" x="10" y="0" /><text alignment-baseline="middle" fill="#e1ed5e" style="dominant-baseline: central; font-size:9.0px; font-family:Arial;" text-anchor="middle" x="100.0" y="100.0">2025</text><line stroke="#e1ed5e" stroke-width="0.3" x1="100.0" x2="100.0" y1="15.0" y2="10.0" /><path d="M 100.0 14.0 a86.0,86.0 0 0,1 42.46469731375804,11.215312516191453" fill="none" id="id13" stroke="none" /><text fill="#e1ed5e" style="font-size:6.75px; font-family:Arial;" text-anchor="middle"><textPath startOffset="22.20632615414155" xlink:href="#id13">January</textPath></text><line stroke="#e1ed5e" stroke-width="0.3" x1="143.23703022742887" x2="145.7803849466894" y1="26.81831364943548" y2="22.513508569990506" /><path d="M 143.74570117128098 25.957352633546492 a86.0,86.0 0 0,1 28.547481713284135,27.462654790039103" fill="none" id="id14" stroke="none" /><text fill="#e1ed5e" style="font-size:6.75px; font-family:Arial;" text-anchor="middle"><textPath startOffset="19.985693538727396" xlink:href="#id14">February</textPath></text><line stroke="#e1ed5e" stroke-width="0.3" x1="172.23445277983987" x2="176.4835382374775" y1="55.19839476539836" y2="52.563006222186495" /><path d="M 173.08426987136738 54.67131705675599 a86.0,86.0 0 0,1 12.851231095245387,41.99856678651699" fill="none" id="id15" stroke="none" /><text fill="#e1ed5e" style="font-size:6.75px; font-family:Arial;" text-anchor="middle"><textPath startOffset="22.20632615414155" xlink:href="#id15">March</textPath></text><line stroke="#e1ed5e" stroke-width="0.3" x1="184.98032266829074" x2="189.97916517819016" y1="98.17113171792111" y2="98.06355123074" /><path d="M 185.9800911702706 98.14961562048488 a86.0,86.0 0 0,1 -9.607161424134198,41.387399972396054" fill="none" id="id16" stroke="none" /><text fill="#e1ed5e" style="font-size:6.75px; font-family:Arial;" text-anchor="middle"><textPath startOffset="21.466115282336823" xlink:href="#id16">April</textPath></text><path d="M 120.99824983174949 100.27111621757518 l 4.366237399529104 0.056374115856350736 a25.366601317957166,25.366601317957166 0 0,0 -0.009395230235498956,0.436559431195315 l -4.364620106608597 -0.13152336284178057" fill="#ff1502" stroke="none" /><path d="M 120.95626037817324 101.35467743843564 l 9.879291115752412 0.6386279107405367 a30.89991103789127,30.89991103789127 0 0,0 -0.038880094599376414,0.5304880004295127 l -9.866834462488699 -0.8085890476668197" fill="#ff6609" stroke="none" /><path d="M 120.8583938346157 102.4346265915055 l 7.178355611879425 0.8378696650631363 a28.22708896210873,28.22708896210873 0 0,0 -0.06048459055475453,0.48212169804088795 l -7.1628695120778225 -0.9613091173914192" fill="#ff4006" stroke="none" /><path d="M 120.76222939487914 103.15116336523771 l 3.6421807420519317 0.552787771758223 a24.683891268533774,24.683891268533774 0 0,0 -0.06737320681186032,0.41953302313020224 l -3.632125780878783 -0.6154000245816302" fill="#ff0b01" stroke="none" /><path d="M 120.64145759157962 103.86396538481128 l 9.980462941686023 1.868286828096783 a31.153823723228996,31.153823723228996 0 0,0 -0.10320826688044697,0.5262567292933568 l -9.94682474182991 -2.039807284458085" fill="#ff6909" stroke="none" /><path d="M 120.49622156327973 104.57218783832717 l 6.6176650786867555 1.4762334461246098 a27.78032125205931,27.78032125205931 0 0,0 -0.10813084463860781,0.46582484865599244 l -6.591273668117594 -1.589926952129167" fill="#ff3905" stroke="none" /><path d="M 120.23288151984713 105.62410040840565 l 9.356819627522505 2.6008995820445553 a30.711578253706755,30.711578253706755 0 0,0 -0.14596388774136587,0.5081194418907836 l -9.31066310289504 -2.7615764994399212" fill="#ff6309" stroke="none" /><path d="M 119.9155931802556 106.66101706037122 l 5.312260670625048 1.7767514447550277 a26.60151400329489,26.60151400329489 0 0,0 -0.1489800932180725,0.43300588692754366 l -5.280889746463744 -1.8679300347718717" fill="#ff2803" stroke="none" /><path d="M 119.54520255179757 107.68017299344265 l 6.726949043477524 2.6433152705920357 a28.227652388797363,28.227652388797363 0 0,0 -0.1815943830179807,0.45070236620367005 l -6.680452046202151 -2.758717004638519" fill="#ff4006" stroke="none" /><path d="M 119.41010516605496 108.01547362559984 l 12.648052105830395 5.223059185006011 a34.684062602965405,34.684062602965405 0 0,0 -0.23262934218534329,0.5498670473293684 l -12.556271782452743 -5.440000758001543" fill="#ff9a0e" stroke="none" /><path d="M 119.12269723197855 108.67885076344098 l 5.300830574876347 2.405786010391011 a26.821220757825373,26.821220757825373 0 0,0 -0.1944224098420684,0.41876857417025787 l -5.258633548194447 -2.4966746518400997" fill="#ff2b04" stroke="none" /><path d="M 118.64920377521936 109.65438752849418 l 2.605270505270581 1.3487058953079722 a23.933673805601316,23.933673805601316 0 0,0 -0.19254924563904383,0.3642306086712609 l -2.581668751406644 -1.3933515190653674" fill="#ff0000" stroke="none" /><line stroke="#e1ed5e" stroke-width="0.3" x1="174.80103733775053" x2="179.2010983576182" y1="140.37084112569926" y2="142.7455964860345" /><path d="M 175.68104954172406 140.8457921977663 a86.0,86.0 0 0,1 -30.038265399797805,32.042727171017184" fill="none" id="id17" stroke="none" /><text fill="#e1ed5e" style="font-size:6.75px; font-family:Arial;" text-anchor="middle"><textPath startOffset="22.206326154141568" xlink:href="#id17">May</textPath></text><path d="M 117.55443506779139 111.5257021239791 l 15.48107822176382 10.164399791449348 a39.51968698517298,39.51968698517298 0 0,0 -0.3782540171028625,0.5654384333897946 l -15.303821099250236 -10.429375139044948" fill="#ffda14" stroke="none" /><path d="M 116.93607887273984 112.41649034213515 l 12.337122328630791 9.044818543550077 a36.29749423393739,36.29749423393739 0 0,0 -0.37375829406137245,0.5007103136026936 l -12.179602767874327 -9.255841736662086" fill="#ffb010" stroke="none" /><path d="M 116.0416608686014 113.55231037782055 l 6.235600093828591 5.267957511116478 a29.162970345963757,29.162970345963757 0 0,0 -0.32726059072341035,0.3806780013477106 l -6.143996993534402 -5.3745126116257165" fill="#ff4d07" stroke="none" /><path d="M 115.32070863581623 114.36230785411682 l 12.440310846373054 11.66209595284816 a38.05185667215815,38.05185667215815 0 0,0 -0.4520804260747665,0.4740045193456674 l -12.237723868919323 -11.874507588776336" fill="#ffc712" stroke="none" /><path d="M 114.81725581225074 114.88116024355365 l 22.194048762313493 22.289768110243774 a52.454881383855025,52.454881383855025 0 0,0 -0.6453200525543338,0.6315814932912589 l -21.807078757383366 -22.668499706457606" fill="#88ff25" stroke="none" /><path d="M 114.0293411484842 115.62618273729858 l 9.940955389414398 11.072450505995864 a35.8802471169687,35.8802471169687 0 0,0 -0.46312454098360595,0.4086535608509745 l -9.748888495524204 -11.241927208619126" fill="#ffaa0f" stroke="none" /><path d="M 113.48314897796784 116.09983520530334 l 12.105246675824013 14.45452222761738 a39.8539176276771,39.8539176276771 0 0,0 -0.5297342335430465,0.43593521008292246 l -11.854642313736276 -14.66075255655748" fill="#ffdf14" stroke="none" /><path d="M 112.92097659922987 116.55440617244103 l 9.267031458242391 11.872957248577997 a36.06137397034596,36.06137397034596 0 0,0 -0.49261772395927494,0.37771826443459966 l -9.061285005789621 -12.030714854839967" fill="#ffad10" stroke="none" /><path d="M 112.34349029814194 116.9893568818739 l 5.1630010749060355 7.1062613348739 a29.78382207578254,29.78382207578254 0 0,0 -0.417360233767329,0.29777544519149335 l -5.039913513289822 -7.194081041909612" fill="#ff5607" stroke="none" /><path d="M 111.45004920935366 117.60387380957326 l 8.560397945945024 13.161180571786627 a36.700225700164744,36.700225700164744 0 0,0 -0.5325346018964348,0.3398887789329367 l -8.332581542001659 -13.306583779543372" fill="#ffb510" stroke="none" /><line stroke="#e1ed5e" stroke-width="0.3" x1="143.8653032363475" x2="146.44561519142675" y1="172.8068346515853" y2="177.08958963109032" /><path d="M 144.38136562736335 173.6633856474863 a86.0,86.0 0 0,1 -40.68145358897372,12.25698825130547" fill="none" id="id18" stroke="none" /><text fill="#e1ed5e" style="font-size:6.75px; font-family:Arial;" text-anchor="middle"><textPath startOffset="21.466115282336833" xlink:href="#id18">June</textPath></text><path d="M 110.8373102113329 117.98757091392108 l 16.395393982570727 27.212777540940547 a52.770177924217464,52.770177924217464 0 0,0 -0.782084515312632,0.4620693170008557 l -15.924541596229714 -27.490965430235153" fill="#85ff25" stroke="none" /><path d="M 109.89434966115114 118.52300852407294 l 7.059577732203078 13.21609029276407 a35.98341350906095,35.98341350906095 0 0,0 -0.5488483192906295,0.28713150047932723 l -6.8310385103859526 -13.335651212188113" fill="#ffac0f" stroke="none" /><path d="M 109.2508944713604 118.85261126421891 l 7.835590350588902 15.968330344989232 a38.787187808896206,38.787187808896206 0 0,0 -0.6019168167054801,0.2889566504433434 l -7.559560865883189 -16.100841271932136" fill="#ffd113" stroke="none" /><path d="M 108.59647513512805 119.15986991738527 l 8.143443525635696 18.15015063478447 a40.89330642504119,40.89330642504119 0 0,0 -0.6447108715341133,0.2826222997745288 l -7.829811979443829 -18.287637487853452" fill="#ffec16" stroke="none" /><path d="M 108.2653958097858 119.30500536409082 l 2.9304086450699223 6.844385424963577 a28.44532784184514,28.44532784184514 0 0,0 -0.4517775561527068,0.18884305511207614 l -2.8121596294197544 -6.893813523095626" fill="#ff4306" stroke="none" /><path d="M 107.59598834532513 119.57807347666477 l 3.922554794914593 10.110082124908073 a31.844362438220756,31.844362438220756 0 0,0 -0.5127393924412087,0.19387416485548561 l -3.74794518171311 -10.17610453987019" fill="#ff730a" stroke="none" /><path d="M 107.2578585660854 119.70592522655815 l 5.152261386050277 13.988985414461007 a35.907632619439866,35.907632619439866 0 0,0 -0.5818411906899554,0.20862755006340933 l -4.910700634730587 -14.075600505564376" fill="#ffab0f" stroke="none" /><path d="M 106.91757812671514 119.82793768551818 l 4.598760027672192 13.181481378170636 a34.96066062602966,34.96066062602966 0 0,0 -0.5699091566095098,0.19334412862740383 l -4.371181138125455 -13.258688493696162" fill="#ff9e0e" stroke="none" /><path d="M 106.2309692047433 120.05430185196036 l 5.28300107627349 17.003277465593676 a38.80509884678747,38.80509884678747 0 0,0 -0.6395912300091953,0.19270359095490788 l -4.989534871824049 -17.091696425654312" fill="#ffd113" stroke="none" /><path d="M 105.88484417918355 120.15858648285463 l 2.7323931226827467 9.35983713274787 a30.750514003294896,30.750514003294896 0 0,0 -0.5093878755480552,0.14395810176784232 l -2.5708740790300855 -9.405484027854232" fill="#ff6409" stroke="none" /><path d="M 104.83641907484287 120.43548508189849 l 3.5114929395655308 14.837229874256657 a36.24709719934102,36.24709719934102 0 0,0 -0.6083986383698158,0.1384695493170621 l -3.255574151802853 -14.895476157151403" fill="#ffaf10" stroke="none" /><path d="M 104.48393922423573 120.51570834832081 l 3.111004310893422 14.23401476266371 a35.570021416803954,35.570021416803954 0 0,0 -0.599284633066911,0.12558592159451692 l -2.865528216397133 -14.285456664984768" fill="#ffa60f" stroke="none" /><path d="M 103.7750983002368 120.6578951692458 l 5.950454938725141 32.56176781563382 a54.10100658978583,54.10100658978583 0 0,0 -0.9175299591118871,0.1595243443563786 l -5.3890760081412035 -32.65937073851121" fill="#76ff27" stroke="none" /><path d="M 102.70371172650421 120.8252237178851 l 1.9123609477390522 14.729878254256459 a35.85349917627677,35.85349917627677 0 0,0 -0.612706554381698,0.07419023095481778 l -1.658526970305974 -14.760614013936628" fill="#ffaa0f" stroke="none" /><path d="M 101.98527174616119 120.90594882070398 l 1.7368399139937112 18.2898318187017 a39.3721136738056,39.3721136738056 0 0,0 -0.6752424029593824,0.05826275579918903 l -1.421753193292787 -18.31701882677955" fill="#ffd814" stroke="none" /><path d="M 101.26447882468166 120.96189622390904 l 0.913032573949824 15.135796417154747 a36.1633097199341,36.1633097199341 0 0,0 -0.621685061645476,0.03213401654725299 l -0.6523594438908683 -15.149270240464201" fill="#ffae10" stroke="none" /><path d="M 100.90346689309514 120.98055641714683 l 0.7673176855519893 17.818862112861854 a38.83537561779242,38.83537561779242 0 0,0 -0.6681157545608967,0.023011257476693036 l -0.4604815793164404 -17.829430168764638" fill="#ffd113" stroke="none" /><line stroke="#e1ed5e" stroke-width="0.3" x1="102.19456741930631" x2="102.32365962044197" y1="184.97166512339345" y2="189.96999836594603" /><path d="M 102.22038585953345 185.97133177190398 a86.0,86.0 0 0,1 -42.740103519485714,-10.115201625700543" fill="none" id="id19" stroke="none" /><text fill="#e1ed5e" style="font-size:6.75px; font-family:Arial;" text-anchor="middle"><textPath startOffset="22.20632615414155" xlink:href="#id19">July</textPath></text><path d="M 100.18074693466247 120.99922214144158 l 0.17559643399052535 20.400835740302142 a41.40159143327842,41.40159143327842 0 0,0 -0.7126867373059476,0.0 l 0.17559643399051128 -20.400835740302142" fill="#fff216" stroke="none" /><path d="M 99.45781275523022 120.99299961872073 l -0.39939000306478667 15.464019603817983 a36.46917627677101,36.46917627677101 0 0,0 -0.6274081514279658,-0.021609205316484772 l 0.6655185061673955 -15.454853600075404" fill="#ffb210" stroke="none" /><path d="M 98.73552117531835 120.96189622390904 l -2.13461911032801 35.38664578233184 a56.45097034596375,56.45097034596375 0 0,0 -0.9694439093770884,-0.06685852791267681 l 2.7434257804840283 -35.344658909902876" fill="#5dff2a" stroke="none" /><path d="M 97.65516085044442 120.86867818915974 l -1.7091062931052692 15.210761569142814 a36.30647940691928,36.30647940691928 0 0,0 -0.6204476106996566,-0.0751275650700808 l 1.970681326856315 -15.179088475347385" fill="#ffb010" stroke="none" /><path d="M 97.2962882734958 120.8252237178851 l -1.2975430097769813 9.994269432385687 a31.07814662273476,31.07814662273476 0 0,0 -0.5299140830716602,-0.07344126332560695 l 1.4693856840354727 -9.970453603567476" fill="#ff6809" stroke="none" /><path d="M 96.93821686468263 120.77559828337769 l -3.0576210126085868 20.74735637806238 a41.97145304777595,41.97145304777595 0 0,0 -0.7138427514716462,-0.11148755686221043 l 3.41429962768875 -20.691650513853066" fill="#fffa17" stroke="none" /><path d="M 96.22490169976321 120.6578951692458 l -3.884016416434566 21.25391117929358 a42.605886326194394,42.605886326194394 0 0,0 -0.7203080693179046,-0.13804875583242662 l 4.2492921003241655 -21.183905225112685" fill="#fcff18" stroke="none" /><path d="M 95.86986931433489 120.58985236759428 l -2.1105278851482114 10.521569625803435 a31.73115815485997,31.73115815485997 0 0,0 -0.5346073663773334,-0.11203217151443369 l 2.2913267129549317 -10.483681473562461" fill="#ff710a" stroke="none" /><path d="M 95.16358092515715 120.4354850818985 l -3.561279941291487 15.047596576417702 a36.46327512355849,36.46327512355849 0 0,0 -0.6095387123633244,-0.14980978549571242 l 3.8197719383980218 -14.984065532607959" fill="#ffb210" stroke="none" /><path d="M 94.81253420990036 120.34920634021253 l -2.9348798862777663 11.51284245644319 a32.881037891268534,32.881037891268534 0 0,0 -0.5472493806321861,-0.14453353529718113 l 3.1326197097214417 -11.460617571842427" fill="#ff810b" stroke="none" /><path d="M 94.46302465271185 120.25689768951611 l -5.380407563332874 19.684098032279124 a41.40618780889621,41.40618780889621 0 0,0 -0.6859010564915096,-0.19384248984497107 l 5.718439787928998 -19.58856674909563" fill="#fff216" stroke="none" /><path d="M 93.76903079525671 120.05430185196036 l -5.011938518084926 16.130865777450577 a37.89154695222405,37.89154695222405 0 0,0 -0.6212024198635796,-0.19888939791446325 l 5.288862283039446 -16.042203532876407" fill="#ffc512" stroke="none" /><path d="M 93.42475214034765 119.94407469862007 l -3.137279935814251 9.516013194621932 a31.019831960461282,31.019831960461282 0 0,0 -0.505667969488909,-0.17155003003857683 l 3.300617638240386 -9.460600177685231" fill="#ff6709" stroke="none" /><path d="M 93.08242187328487 119.8279376855182 l -3.2993575286922394 9.456988310476811 a31.01600658978583,31.01600658978583 0 0,0 -0.5025781118992199,-0.1802066300543163 l 3.461655201221186 -9.398794139382536" fill="#ff6709" stroke="none" /><path d="M 92.40401165467489 119.57807347666478 l -4.9191863653159285 12.678823048067846 a34.59966721581549,34.59966721581549 0 0,0 -0.5533951901789479,-0.22020736694731927 l 5.136702631536735 -12.59226883671446" fill="#ff990e" stroke="none" /><path d="M 92.06813273071674 119.44442032107085 l -3.682717997371845 9.027926745846964 a30.750172981878087,30.750172981878087 0 0,0 -0.48838382451649365,-0.20414447825699603 l 3.837573281385801 -8.963197224569994" fill="#ff6409" stroke="none" /><path d="M 91.7346041902142 119.30500536409082 l -9.450545412635362 22.073090518969078 a45.01112520593081,45.01112520593081 0 0,0 -0.709631093622639,-0.3110814173086719 l 9.829097180915745 -21.907144548365952" fill="#dfff1b" stroke="none" /><path d="M 90.10565033884886 118.52300852407294 l -7.767667599221866 14.541690770994268 a37.48628006589786,37.48628006589786 0 0,0 -0.5665376267056806,-0.30892148553119836 l 8.016828037796188 -14.405828633703305" fill="#ffc011" stroke="none" /><line stroke="#e1ed5e" stroke-width="0.3" x1="58.666819895761336" x2="56.23545636021788" y1="174.27360380694188" y2="178.64263932499728" /><path d="M 58.180547188652646 175.14741091055294 a86.0,86.0 0 0,1 -31.652253787137756,-30.449443065178592" fill="none" id="id20" stroke="none" /><text fill="#e1ed5e" style="font-size:6.75px; font-family:Arial;" text-anchor="middle"><textPath startOffset="22.20632615414155" xlink:href="#id20">August</textPath></text><path d="M 89.4739219176387 118.17145234162733 l -8.050339067314182 13.897517342263932 a37.06078912685338,37.06078912685338 0 0,0 -0.5492623000627983,-0.32451384840790876 l 8.288369238405362 -13.756884921562273" fill="#ffba11" stroke="none" /><path d="M 88.8546689885994 117.79835938074946 l -7.979430095687486 12.742624185081663 a36.03481878088962,36.03481878088962 0 0,0 -0.5228792877370649,-0.33372630061104885 l 8.197591185471476 -12.60338345564681" fill="#ffac10" stroke="none" /><path d="M 88.54995079064634 117.60387380957326 l -7.244898046561413 11.138665750947471 a34.287528830313015,34.287528830313015 0 0,0 -0.4919857121074436,-0.3260613028239039 l 7.435558457408818 -11.012306427032248" fill="#ff950d" stroke="none" /><path d="M 87.95078237400918 117.19931262002967 l -6.285693154814597 8.972333719829123 a31.955031301482702,31.955031301482702 0 0,0 -0.4477853547504655,-0.319482961175899 l 6.439205837413949 -8.862806496809005" fill="#ff750a" stroke="none" /><path d="M 87.36589467227662 116.77436683061367 l -18.87702145401477 25.06311878247317 a52.376772652388794,52.376772652388794 0 0,0 -0.715494827057064,-0.5486109231227531 l 19.30564500956532 -24.734468517523048" fill="#89ff24" stroke="none" /><path d="M 86.79598089348748 116.32954008644616 l -7.318329920453978 9.050650475274534 a32.63925370675453,32.63925370675453 0 0,0 -0.43383765197922297,-0.3570188520619225 l 7.47303770097789 -8.92333650435543" fill="#ff7e0b" stroke="none" /><path d="M 86.51685102203217 116.09983520530335 l -9.579931251582186 11.439116684139375 a35.92073970345964,35.92073970345964 0 0,0 -0.47062074282433186,-0.4010732069338731 l 9.775417470983575 -11.27251908698255" fill="#ffab0f" stroke="none" /><path d="M 85.70375840098266 115.38237550388516 l -10.188489613903027 10.962543684856499 a35.966051070840194,35.966051070840194 0 0,0 -0.44985679975140497,-0.4253676828106491 l 10.375682248045248 -10.785541365299919" fill="#ffac0f" stroke="none" /><path d="M 85.44109423537348 115.13401014063109 l -16.20049520124914 16.84044547184686 a44.3678550247117,44.3678550247117 0 0,0 -0.5458303551722917,-0.5342098845973668 l 16.487975508797227 -16.559085484326925" fill="#e7ff1a" stroke="none" /><path d="M 84.67929136418377 114.36230785411682 l -10.617002289869916 9.952846111732818 a35.552658978583196,35.552658978583196 0 0,0 -0.4147024534336596,-0.45007760847295564 l 10.786751151299304 -9.768617248458519" fill="#ffa60f" stroke="none" /><path d="M 84.19399662182784 113.82643327865904 l -14.653682865003654 12.818431299299908 a40.46901647446458,40.46901647446458 0 0,0 -0.45413461250053017,-0.5282611519076215 l 14.872159987074964 -12.564293048230756" fill="#ffe715" stroke="none" /><path d="M 83.95833913139862 113.55231037782056 l -9.992837203695242 8.442145264682791 a34.081537067545305,34.081537067545305 0 0,0 -0.3747411066034726,-0.45139980359989534 l 10.136674310192252 -8.268884203969135" fill="#ff920d" stroke="none" /><path d="M 83.72743513129214 113.27417163493432 l -7.780993633357247 6.347262758689924 a31.0414942339374,31.0414942339374 0 0,0 -0.3341869442545506,-0.41694959654927066 l 7.889098489666659 -6.212385328562394" fill="#ff6809" stroke="none" /><path d="M 83.28015986056508 112.70617746262583 l -9.003214836955594 6.841958086829528 a32.30797364085667,32.30797364085667 0 0,0 -0.332677871226068,-0.44567637394804516 l 9.119653974876748 -6.685968833372175" fill="#ff7a0b" stroke="none" /><path d="M 83.06392112726016 112.41649034213515 l -12.189982918984478 8.936944987188607 a36.11504777594728,36.11504777594728 0 0,0 -0.3632489471238305,-0.5045210169042641 l 12.342011658483916 -8.725790364833204" fill="#ffae10" stroke="none" /><path d="M 82.44556493220864 111.52570212397912 l -11.200155110274187 7.353677349619451 a34.39850906095552,34.39850906095552 0 0,0 -0.32071718005789135,-0.49776018564432034 l 11.325077153709124 -7.159795564053682" fill="#ff960d" stroke="none" /><path d="M 82.24976979558568 111.22182372390057 l -9.07716861698638 5.7386515531844315 a31.739046128500824,31.739046128500824 0 0,0 -0.2879719328899654,-0.4643024480782172 l 9.174605189544302 -5.581552773740951" fill="#ff720a" stroke="none" /><line stroke="#e1ed5e" stroke-width="0.3" x1="26.63291911575756" x2="22.317208475507996" y1="142.92168965132927" y2="145.44649492493687" /><path d="M 25.769776987707644 143.4266507060508 a86.0,86.0 0 0,1 -11.730757126820373,-40.83630448921669" fill="none" id="id21" stroke="none" /><text fill="#e1ed5e" style="font-size:6.75px; font-family:Arial;" text-anchor="middle"><textPath startOffset="21.46611528233685" xlink:href="#id21">September</textPath></text><path d="M 81.87401531095188 110.60418214915194 l -11.110712435486205 6.500061679072867 a33.87240197693575,33.87240197693575 0 0,0 -0.2900897086226746,-0.5057958587179476 l 11.220954140261256 -6.307845974496613" fill="#ff8f0d" stroke="none" /><path d="M 81.69416730710424 110.29060199501025 l -13.10035009121958 7.364346164725684 a36.028398682042834,36.028398682042834 0 0,0 -0.29924774570638857,-0.5432215808405617 l 13.225174246377486 -7.137754065487299" fill="#ffac10" stroke="none" /><path d="M 81.35079622478065 109.6543875284942 l -12.53820336309659 6.490822645160352 a35.118686985172985,35.118686985172985 0 0,0 -0.2732925020226996,-0.5392320337571791 l 12.648074534905556 -6.2740363997004875" fill="#ffa00e" stroke="none" /><path d="M 81.18737489456691 109.33194174019688 l -13.387863639075146 6.641006388282745 a35.94449258649094,35.94449258649094 0 0,0 -0.27017719511495103,-0.5566450457786095 l 13.500194090804815 -6.4095723865388505" fill="#ffab0f" stroke="none" /><path d="M 81.02952815118164 109.00673069616217 l -28.478410726711022 13.520874868811381 a52.525131795716646,52.525131795716646 0 0,0 -0.3807456339591223,-0.8200922228262054 l 28.70693097750997 -13.02866257870635" fill="#87ff25" stroke="none" /><path d="M 80.73074385275274 108.34839909993369 l -10.359222850911195 4.488130006871811 a32.28967710049423,32.28967710049423 0 0,0 -0.21656996843913615,-0.5119074316556481 l 10.434943800542637 -4.309148049550004" fill="#ff790b" stroke="none" /><path d="M 80.58989483394504 108.01547362559985 l -8.881541526662437 3.6676649226059643 a30.60903459637562,30.60903459637562 0 0,0 -0.19691431209883425,-0.4887251738041041 l 8.943358453018659 -3.5142403809590546" fill="#ff6209" stroke="none" /><path d="M 80.20201598880116 107.00284435728193 l -11.513816039198185 4.072609697799164 a33.2128665568369,33.2128665568369 0 0,0 -0.18600655417823928,-0.5406221141799737 l 11.582213424319653 -3.8738148805298938" fill="#ff860c" stroke="none" /><path d="M 80.0844068197444 106.66101706037122 l -18.071720476849176 6.0443109736692975 a40.05572817133444,40.05572817133444 0 0,0 -0.2130731060916561,-0.655771590833089 l 18.17308583395708 -5.732340482858405" fill="#ffe115" stroke="none" /><path d="M 79.76711848015287 105.62410040840567 l -8.794832177070077 2.4446848655936235 a30.128283360790775,30.128283360790775 0 0,0 -0.13459010564742274,-0.5008598518623145 l 8.835610359059276 -2.2929340805557703" fill="#ff5b08" stroke="none" /><path d="M 79.58551787078972 104.9243191809786 l -20.593912406827958 4.967600805862769 a42.18457660626029,42.18457660626029 0 0,0 -0.16419730563118373,-0.7073576952163982 l 20.676370278389694 -4.612374453297797" fill="#fffc17" stroke="none" /><path d="M 79.50377843672027 104.57218783832718 l -12.668951395634053 2.8261221375188534 a33.98034266886326,33.98034266886326 0 0,0 -0.12243596631011623,-0.5719800735688777 l 12.71572140066861 -2.607628244533812" fill="#ff910d" stroke="none" /><path d="M 79.4281124754447 104.21870165774334 l -43.60668364215689 8.942474935772015 a65.51416309719934,65.51416309719934 0 0,0 -0.21703927227215608,-1.1066785733982203 l 43.75415284740471 -8.19053263530584" fill="#35ff68" stroke="none" /><path d="M 79.29508885075956 103.50808413554451 l -12.79930437667337 2.1686176920136386 a33.9817215815486,33.9817215815486 0 0,0 -0.09275107927797284,-0.5775610592017653 l 12.834737210312634 -1.9479774031186599" fill="#ff910d" stroke="none" /><path d="M 79.1416061653843 102.43462659150553 l -12.177904962810826 1.4214254216488518 a33.260579901153214,33.260579901153214 0 0,0 -0.061480912500149476,-0.5692368929866455 l 12.200568176812027 -1.211592206777424" fill="#ff870c" stroke="none" /><path d="M 79.10278846688536 102.07522291339032 l -13.559024634612966 1.346495371422347 a34.62571828665568,34.62571828665568 0 0,0 -0.05379419229992366,-0.593614429431919 l 13.580193423189964 -1.112899553441862" fill="#ff990e" stroke="none" /><path d="M 79.07016306316243 101.71520430193888 l -52.40875994005574 4.294908306249233 a73.58444975288303,73.58444975288303 0 0,0 -0.09258830434583182,-1.2632938510485066 l 52.47492480306591 -3.392141318703965" fill="#40ffc3" stroke="none" /><path d="M 79.0235259727143 100.99374915477108 l -10.259110133775966 0.48601981490701834 a31.270616144975286,31.270616144975286 0 0,0 -0.020843901450402737,-0.5378884786407873 l 10.26595616807757 -0.30935408925223434" fill="#ff6b09" stroke="none" /><path d="M 79.0095281055655 100.63252640178507 l -10.549260847343763 0.3178911860019569 a31.554049423393742,31.554049423393742 0 0,0 -0.011686924688063484,-0.5430454673655292 l 10.553169834716833 -0.13625590284629893" fill="#ff6f0a" stroke="none" /><line stroke="#e1ed5e" stroke-width="0.3" x1="15.007084014347285" x2="10.007500721073583" y1="101.09737516637583" y2="101.16192664675087" /><path d="M 14.007167355692545 101.11028546245083 a86.0,86.0 0 0,1 10.666146001902534,-42.60595125391555" fill="none" id="id22" stroke="none" /><text fill="#e1ed5e" style="font-size:6.75px; font-family:Arial;" text-anchor="middle"><textPath startOffset="22.20632615414155" xlink:href="#id22">October</textPath></text><path d="M 79.00019446554 99.90962569577889 l -11.420271509532599 -0.049148030918507814 a32.42037726523888,32.42037726523888 0 0,0 0.007205031901802211,-0.5580376610183071 l 11.417733470513081 0.2457219499972869" fill="#ff7b0b" stroke="none" /><path d="M 79.00486145842228 99.54816195383935 l -11.662411576020693 -0.2509876869635808 a32.66511202635915,32.66511202635915 0 0,0 0.016936558113503877,-0.5620419101347806 l 11.656363323451544 0.4516997445233558" fill="#ff7e0b" stroke="none" /><path d="M 79.01574976396665 99.18683210126434 l -20.28420893161884 -0.7860403573588636 a41.29943327841845,41.29943327841845 0 0,0 0.03364210882833823,-0.7101317456952851 l 20.267673214557004 1.1350832096771577" fill="#fff116" stroke="none" /><path d="M 79.05617556472873 98.46500227214037 l -12.808940376737034 -0.9387824289373251 a33.84329654036244,33.84329654036244 0 0,0 0.04758289521923951,-0.5806318447287013 l 12.790882997698299 1.159128190873805" fill="#ff8f0d" stroke="none" /><path d="M 79.08570108090925 98.10471618934814 l -15.07917506547676 -1.366496505101386 a36.14096540362438,36.14096540362438 0 0,0 0.06147900784936168,-0.6190852190308725 l 15.053418931945169 1.625857254836689" fill="#ffae10" stroke="none" /><path d="M 79.16333360222342 97.38593545837743 l -15.322688154819465 -1.9223082533071467 a36.442799011532124,36.442799011532124 0 0,0 0.08344359914312771,-0.6217517356979105 l 15.287328556618505 2.1857783310697165" fill="#ffb210" stroke="none" /><path d="M 79.21141760316559 97.0276538004421 l -10.859008240163714 -1.5526182236713513 a31.969443163097196,31.969443163097196 0 0,0 0.0825787562678674,-0.5440908268010239 l 10.830673590456543 1.739308162864467" fill="#ff750a" stroke="none" /><path d="M 79.26566170972629 96.67025291283419 l -15.891442953307486 -2.5520219234321524 a37.09505436573311,37.09505436573311 0 0,0 0.10667148952155936,-0.6295811694830605 l 15.845159602265705 2.825188881231041" fill="#ffbb11" stroke="none" /><path d="M 79.3925641242962 95.95851677861259 l -10.671091920603796 -2.0927901564818088 a31.874372322899504,31.874372322899504 0 0,0 0.11022568382650343,-0.5374995801928663 l 10.633486940862298 2.2761653928380774" fill="#ff730a" stroke="none" /><path d="M 79.46518482838121 95.60439243477599 l -14.846729363380708 -3.178036683705153 a36.18305930807249,36.18305930807249 0 0,0 0.13560999347540356,-0.6079130103026915 l 14.789824982903268 3.4331278635578037" fill="#ffae10" stroke="none" /><path d="M 79.62865764111835 94.90015583598534 l -11.40549699579421 -2.855298206027547 a32.75746952224053,32.75746952224053 0 0,0 0.14164278053647858,-0.5458074131336244 l 11.354657883387423 3.051202044710035" fill="#ff800b" stroke="none" /><path d="M 79.71946130924805 94.55025226153421 l -11.140588182215334 -2.993677642245882 a32.53580560131796,32.53580560131796 0 0,0 0.14999506726136572,-0.5396120630998905 l 11.087406344387608 3.1850010087647154" fill="#ff7d0b" stroke="none" /><path d="M 79.81627453868168 94.20196356495316 l -51.861918689937106 -14.8980075423624 a74.9593294892916,74.9593294892916 0 0,0 0.3669227156171286,-1.2370809900081914 l 51.597790077208266 15.788517919117131" fill="#41ffd2" stroke="none" /><path d="M 80.14247586403 93.16781622104843 l -17.105572261436336 -5.885346659232978 a39.08971828665568,39.08971828665568 0 0,0 0.22438786245089487,-0.6343747035432078 l 17.001731318175633 6.1789189892027965" fill="#ffd513" stroke="none" /><path d="M 80.52162464483688 92.15188598940014 l -18.046194456932184 -7.271067990684215 a40.455939044481056,40.455939044481056 0 0,0 0.2658115345139155,-0.6436837148072327 l 17.918361235532068 7.580626275944759" fill="#ffe615" stroke="none" /><path d="M 80.65960295795068 91.81776055985345 l -24.35390679972809 -10.30327848519047 a47.44371993410214,47.44371993410214 0 0,0 0.32467158638821314,-0.7493867850540711 l 24.172944503497195 10.72096441483114" fill="#c2ff1e" stroke="none" /><path d="M 80.95270993114464 91.15688171328213 l -12.296072466259755 -5.70871881974359 a34.55665403624382,34.55665403624382 0 0,0 0.25512981221737946,-0.5373684507438874 l 12.195984460200624 5.919529686128009" fill="#ff980e" stroke="none" /><path d="M 81.10775173730289 90.83032412892265 l -17.8677139473448 -8.67240061511288 a40.861161449752885,40.861161449752885 0 0,0 0.3125684021903244,-0.6301188256332545 l 17.71578553220106 8.978679029245095" fill="#ffec16" stroke="none" /><path d="M 81.43458229118936 90.18545643968196 l -19.009738096386286 -10.0494319892775 a42.50258649093904,42.50258649093904 0 0,0 0.34749285060764884,-0.6438514771582884 l 18.833937146560164 10.37516444976826" fill="#feff18" stroke="none" /><path d="M 81.6062741919709 89.86733742301443 l -9.491798873190087 -5.228804443125076 a31.836726523887975,31.836726523887975 0 0,0 0.2685539442842548,-0.47772750082732024 l 9.400387287613402 5.3914154538871815" fill="#ff730a" stroke="none" /><line stroke="#e1ed5e" stroke-width="0.3" x1="26.266209847984243" x2="21.928928074336255" y1="57.711370442889674" y2="55.22380399835377" /><path d="M 25.398753493254645 57.213857153982495 a86.0,86.0 0 0,1 29.58750427330803,-30.492523968695096" fill="none" id="id23" stroke="none" /><text fill="#e1ed5e" style="font-size:6.75px; font-family:Arial;" text-anchor="middle"><textPath startOffset="21.46611528233685" xlink:href="#id23">November</textPath></text><path d="M 82.15384107792192 88.93136811851018 l -11.677675461493838 -7.242784930872449 a34.74139868204283,34.74139868204283 0 0,0 0.3195752139613123,-0.5054912423331638 l 11.551272651286563 7.442723820919828" fill="#ff9b0e" stroke="none" /><path d="M 82.34701348167596 88.62581576622439 l -10.850093035451298 -6.990939295780142 a33.907275123558485,33.907275123558485 0 0,0 0.32034845096946163,-0.4879126686704187 l 10.728147949123915 7.176670028428227" fill="#ff900d" stroke="none" /><path d="M 82.54541684631803 88.32363383020206 l -7.1436034390656316 -4.778763766052064 a29.594629324546954,29.594629324546954 0 0,0 0.28689249895620056,-0.42097934154323746 l 7.060286474440691 4.9010211308657174" fill="#ff5307" stroke="none" /><path d="M 82.7489923806493 88.02491185347247 l -6.692461212663727 -4.645688803068364 a29.14686820428336,29.14686820428336 0 0,0 0.28964683649873973,-0.4096849091536432 l 6.6115017563611085 4.7602002125537926" fill="#ff4d07" stroke="none" /><path d="M 83.17141714833178 87.43820079747576 l -6.266138073122728 -4.67739731525028 a28.81936902800659,28.81936902800659 0 0,0 0.3001661616183419,-0.3949834836077675 l 6.184695971280277 4.784565574739075" fill="#ff4806" stroke="none" /><path d="M 83.39014120810768 87.1503855733568 l -49.82957637567698 -38.54884327992962 a84.0,84.0 0 0,0 0.8945836776241158,-1.1360304241878092 l 49.15863861745889 39.40086609807048" fill="#4dd2ff" stroke="none" /><path d="M 85.31137513191541 84.99185889309783 l -16.52598896587521 -16.88547270819547 a44.626838550247115,44.626838550247115 0 0,0 0.5536209155686788,-0.5325828821437867 l 16.232884806694106 17.16743867710157" fill="#e3ff1b" stroke="none" /><path d="M 85.57189188830299 84.74124197986013 l -6.487269943921244 -6.860752741752068 a30.442171334431634,30.442171334431634 0 0,0 0.38384985569160573,-0.3567466073968311 l 6.368212204434782 6.971403935223547" fill="#ff5f08" stroke="none" /><path d="M 85.83668400450813 84.49514656593479 l -9.826187971398134 -10.756916273039185 a35.569324546952224,35.569324546952224 0 0,0 0.4556074991315739,-0.4090489112141041 l 9.63956948467059 10.924464193022567" fill="#ffa60f" stroke="none" /><path d="M 86.37877921826538 84.01681056812374 l -7.523934071975072 -8.828611287659593 a32.59973970345963,32.59973970345963 0 0,0 0.4302272455194611,-0.36030294544933156 l 7.3708492894965 8.956815390502737" fill="#ff7e0b" stroke="none" /><path d="M 86.65592168130627 83.78471172551755 l -10.762500077298279 -13.078238686822617 a37.937288303130146,37.937288303130146 0 0,0 0.5078115623661245,-0.4106149675063885 l 10.535785116367654 13.26155975159314" fill="#ffc612" stroke="none" /><path d="M 87.22198572758235 83.33499621200491 l -8.725419981688018 -11.379636455764176 a35.339772652388795,35.339772652388795 0 0,0 0.48592834660387285,-0.3659911563109169 l 8.528245481325756 11.528144201580947" fill="#ffa30f" stroke="none" /><path d="M 87.51073957382395 83.11751280151077 l -5.52896237611346 -7.473832184652725 a30.296644151565076,30.296644151565076 0 0,0 0.42192359432800064,-0.30654543484817487 l 5.399493465431678 7.567896854317567" fill="#ff5d08" stroke="none" /><path d="M 87.80319425747018 82.90503203632743 l -7.971733487702634 -11.173132659809522 a34.72542998352554,34.72542998352554 0 0,0 0.48957707060427624,-0.3429800247677453 l 7.778225277514698 11.30869752734121" fill="#ff9b0e" stroke="none" /><path d="M 88.39885842347998 82.49532879139004 l -11.40231947023568 -17.204673525058308 a41.64009884678748,41.64009884678748 0 0,0 0.6008725238180136,-0.39082420384786276 l 11.10447992063338 17.398396653065706" fill="#fff517" stroke="none" /><line stroke="#e1ed5e" stroke-width="0.3" x1="56.762969772571076" x2="54.21961505331055" y1="26.818313649435495" y2="22.513508569990535" /><path d="M 56.25429882871897 25.957352633546506 a86.0,86.0 0 0,1 42.265352541879196,-11.944610805530505" fill="none" id="id24" stroke="none" /><text fill="#e1ed5e" style="font-size:6.75px; font-family:Arial;" text-anchor="middle"><textPath startOffset="22.20632615414155" xlink:href="#id24">December</textPath></text><path d="M 89.3179101791058 81.91981866633112 l -12.402381432676233 -20.99189475391841 a45.38193410214168,45.38193410214168 0 0,0 0.6759817749615921,-0.39157227566223396 l 12.03920292524932 21.202271186970687" fill="#daff1b" stroke="none" /><path d="M 89.63071344664047 81.73862282372117 l -5.81536873655322 -10.241460815154344 a32.77735255354201,32.77735255354201 0 0,0 0.49302743312651404,-0.274369232745431 l 5.63821721435466 10.34004544545996" fill="#ff800b" stroke="none" /><path d="M 89.94658935756843 81.56283822128135 l -4.849245706011348 -8.893133958851566 a31.129314662273476,31.129314662273476 0 0,0 0.4726541037259501,-0.2524754531621991 l 4.695446555757092 8.975288138515515" fill="#ff6909" stroke="none" /><path d="M 90.58718382345135 81.22770947309562 l -6.668155061266926 -13.298522115030687 a35.876658978583194,35.876658978583194 0 0,0 0.5544288896294585,-0.27205584828294316 l 6.438254904627041 13.41133312344846" fill="#ffaa0f" stroke="none" /><path d="M 90.91171255644093 81.06846463323043 l -14.737091221810884 -30.69838684148885 a55.05250082372323,55.05250082372323 0 0,0 0.8578275139032616,-0.4027615199887483 l 14.206485496608014 30.947513344117606" fill="#6cff28" stroke="none" /><path d="M 91.56875222667455 80.76684994638697 l -4.033301378035644 -9.200665512479345 a31.045883031301482,31.045883031301482 0 0,0 0.4912881516687496,-0.21034394726217628 l 3.8743294685765863 9.268728987704309" fill="#ff6809" stroke="none" /><path d="M 91.90106846888425 80.62456947434976 l -3.8531205226724388 -9.21798989251511 a30.990889621087316,30.990889621087316 0 0,0 0.49395955485637943,-0.20149850501170688 l 3.693877098227679 9.282949283710394" fill="#ff6709" stroke="none" /><path d="M 92.23578459929587 80.48803036053334 l -5.51161898137954 -13.85105083756856 a35.90736573311368,35.90736573311368 0 0,0 0.576256512027288,-0.22357857398452433 l 5.272379304352576 13.943872115443636" fill="#ffab0f" stroke="none" /><path d="M 92.91201910852362 80.23233633223022 l -4.340086302834229 -12.104062868833617 a33.85864250411862,33.85864250411862 0 0,0 0.5503125716496874,-0.19199325057798092 l 4.131091727121256 12.176976972583807" fill="#ff8f0d" stroke="none" /><path d="M 93.25333710446033 80.11325718540243 l -10.770998884106273 -31.749042153291846 a54.5263492586491,54.5263492586491 0 0,0 0.8914205876621003,-0.2938873524917512 l 10.222895474201763 31.92974323004283" fill="#71ff27" stroke="none" /><path d="M 93.94186890950719 79.89281104454417 l -4.658534566774734 -15.461869905169449 a37.14841680395387,37.14841680395387 0 0,0 0.6138506679552205,-0.1791998428697722 l 4.3916936810960925 15.53976807695792" fill="#ffbb11" stroke="none" /><path d="M 94.28887869178378 79.79150937346287 l -3.2666054715965154 -11.558704935646192 a33.01142668863262,33.01142668863262 0 0,0 0.5481501983839302,-0.14983015571203376 l 3.067157383988863 11.613221632184523" fill="#ff830c" stroke="none" /><path d="M 94.63758080256005 79.69619591428918 l -2.5427408038259487 -9.6276156750804 a30.95773640856672,30.95773640856672 0 0,0 0.5163914233501758,-0.1316396717466241 l 2.3766404917907735 9.669958342995887" fill="#ff6709" stroke="none" /><path d="M 95.33964822691252 79.52364482259891 l -5.114052209035879 -22.469795098453734 a44.04441845140033,44.04441845140033 0 0,0 0.7406955636447113,-0.16188736136501852 l 4.726513921237647 22.554495957914618" fill="#ebff1a" stroke="none" /><path d="M 95.692805502759 79.44645832069477 l -1.8675139780574612 -8.911607406927226 a30.105182866556838,30.105182866556838 0 0,0 0.508108955097247,-0.10192187635163477 l 1.7138386134930779 8.942433239356072" fill="#ff5a08" stroke="none" /><path d="M 96.40284397218896 79.31037775812273 l -1.9388247695475984 -11.151462923765568 a32.3187528830313,32.3187528830313 0 0,0 0.548912154637712,-0.0905752087760522 l 1.7465834087710008 11.183184395481247" fill="#ff7a0b" stroke="none" /><path d="M 96.75951476605007 79.25152402106235 l -1.3082256057124209 -8.376426860636888 a29.477970345963755,29.477970345963755 0 0,0 0.502011266177194,-0.07398341109388953 l 1.163845359106578 8.397704755891747" fill="#ff5207" stroke="none" /><path d="M 97.11714578562143 79.19881850522333 l -1.1649302458772992 -8.405532736407201 a29.485873146622737,29.485873146622737 0 0,0 0.5033452971499961,-0.06534866567682739 l 1.0200702202194452 8.424339725248165" fill="#ff5207" stroke="none" /><path d="M 97.83486435360386 79.11191278185805 l -1.6377322466841004 -15.799977274237705 a36.88462932454695,36.88462932454695 0 0,0 0.6320881566902417,-0.06002438680599029 l 1.3655189629036224 15.825827205558877" fill="#ffb811" stroke="none" /><path d="M 98.19473922651362 79.07773832637324 l -1.408975230833426 -16.32946824309757 a37.39014168039539,37.39014168039539 0 0,0 0.641703518226038,-0.04980854334501489 l 1.1276815232450537 16.351302048631048" fill="#ffbf11" stroke="none" /><path d="M 98.91598698831166 79.02799685794201 l -1.1098813532588605 -21.472468482277367 a42.5011334431631,42.5011334431631 0 0,0 0.7309368560401449,-0.03147567858761254 l 0.7401036648293914 21.48839188738917" fill="#feff18" stroke="none" /><path d="M 99.27714615592234 79.0124445844662 l -0.4801227896034827 -13.94002914368006 a34.94829489291598,34.94829489291598 0 0,0 0.6013991866502225,-0.01553236669074742 l 0.24009696775838113 13.946228302513168" fill="#ff9e0e" stroke="none" /><path d="M 99.63851952072746 79.00311137660856 l -0.17511342888101375 -10.17160641723794 a31.173113673805602,31.173113673805602 0 0,0 0.536593908153547,-0.004618633176220256 l 2.4916942195976404e-15 10.173113673805602" fill="#ff6a09" stroke="none" /></svg>