<?xml version="1.0" encoding="utf-8" ?>
<svg baseProfile="full" height="200mm" version="1.1" viewBox="0,0,200,200" width="200mm" xmlns="http://www.w3.org/2000/svg" xmlns:ev="http://www.w3.org/2001/xml-events" xmlns:xlink="http://www.w3.org/1999/xlink"><defs /><rect fill="#1a1a1a" height="200" width="200" x="0" y="0" /><rect fill="#1a1a1a" height="200" width="180" x="10" y="0" /><text alignment-baseline="middle" fill="#e1ed5e" style="dominant-baseline: central; font-size:9.0px; font-family:Arial;" text-anchor="middle" x="100.0" y="100.0">2026</text><line stroke="#e1ed5e" stroke-width="0.3" x1="100.0" x2="100.0" y1="15.0" y2="10.0" /><path d="M 100.0 14.0 a86.0,86.0 0 0,1 42.46469731375804,11.215312516191453" fill="none" id="id25" stroke="none" /><text fill="#e1ed5e" style="font-size:6.75px; font-family:Arial;" text-anchor="middle"><textPath startOffset="22.20632615414155" xlink:href="#id25">January</textPath></text><path d="M 100.36148047927253 79.00311137660856 l 0.3017456908701556 -17.527144692680118 a38.52974191310595,38.52974191310595 0 0,0 0.6630296419148776,0.017124099522678835 l -0.603401967979901 17.51935380101508" fill="#ff800b" stroke="none" /><path d="M 100.72285384407766 79.0124445844662 l 0.43456101653630763 -12.617174952737194 a33.624656314730785,33.624656314730785 0 0,0 0.5782787088487132,0.0249018976446026 l -0.6516805577743524 12.607825328568397" fill="#ff3104" stroke="none" /><path d="M 101.44485096284872 79.0497635885617 l 1.8073892329060877 -26.20701559572226 a47.269265735335175,47.269265735335175 0 0,0 0.8112527196501583,0.0629688245471333 l -2.258232141918587 26.172021508986663" fill="#fcff18" stroke="none" /><path d="M 101.80526077348638 79.07773832637324 l 0.8323966986875744 -9.647150041692255 a30.68299479453071,30.68299479453071 0 0,0 0.5258113739129733,0.04993212570222421 l -0.9983331996907918 9.631392371474853" fill="#ff0000" stroke="none" /><path d="M 102.16513564639614 79.11191278185805 l 2.151838965170741 -20.759807847927842 a41.87103334324665,41.87103334324665 0 0,0 0.7162604445404145,0.0804802065762301 l -2.5088661132208805 20.71969168788101" fill="#ffb310" stroke="none" /><path d="M 102.88285421437855 79.19881850522331 l 2.579210047279288 -18.610242598817347 a39.788120024494795,39.788120024494795 0 0,0 0.6775936157708139,0.09985968524553708 l -2.8991726434787575 18.563088429410843" fill="#ff930d" stroke="none" /><path d="M 103.2404852339499 79.25152402106235 l 8.54290745175468 -54.6993111389563 a76.36240517540395,76.36240517540395 0 0,0 1.296963794050295,0.21401013883290804 l -9.48320045194385 54.54415473718377" fill="#42ffd7" stroke="none" /><path d="M 103.95276090670814 79.375362276772 l 2.8710816941744155 -14.980673310051909 a36.25331711193093,36.25331711193093 0 0,0 0.6118758739385041,0.12273654408270174 l -3.128523977580045 14.929032809891998" fill="#ff5c08" stroke="none" /><path d="M 104.307194497241 79.44645832069477 l 4.84843286910993 -23.136282124802413 a44.63884201573159,44.63884201573159 0 0,0 0.7506919925341337,0.16407219353549526 l -5.245967585797592 23.049396433171047" fill="#ffdc14" stroke="none" /><path d="M 104.66035177308747 79.52364482259891 l 3.124534350987168 -13.728378940033881 a35.07945678041822,35.07945678041822 0 0,0 0.5876248556939536,0.13907181794512094 l -3.360382893643645 13.672561209947892" fill="#ff4906" stroke="none" /><path d="M 105.36241919743992 79.69619591428918 l 5.120295093184785 -19.387046145643108 a41.05180740219164,41.05180740219164 0 0,0 0.6816596139202817,0.18632332232550713 l -5.4532525963287775 19.296036282491308" fill="#ffa70f" stroke="none" /><path d="M 105.71112130821622 79.79150937346287 l 8.733360228211009 -30.902517874392288 a53.11288202346268,53.11288202346268 0 0,0 0.8776518870020517,0.256210652615263 l -9.264002332936489 30.74760889285832" fill="#adff20" stroke="none" /><path d="M 106.40334571778207 80.00007090966166 l 9.851973926349173 -30.771223140376392 a53.309898851594994,53.309898851594994 0 0,0 0.8715335247748468,0.2873309005299456 l -10.380190273366438 30.59707851558721" fill="#aaff21" stroke="none" /><path d="M 106.74666289553966 80.11325718540242 l 4.785875698199939 -14.107045309119732 a35.896755806288084,35.896755806288084 0 0,0 0.5834385120205854,0.2035502407284949 l -5.027996214283798 14.022574215219029" fill="#ff5608" stroke="none" /><path d="M 107.08798089147638 80.2323363322302 l 6.145650051505532 -17.139598017831126 a39.20809805466816,39.20809805466816 0 0,0 0.6333371349040621,0.23326341173711607 l -6.4397695121821705 17.031271338287684" fill="#ff8b0c" stroke="none" /><path d="M 107.76421540070413 80.48803036053334 l 11.951083055461377 -30.03383570679388 a53.324289218190444,53.324289218190444 0 0,0 0.8499285592410656,0.3467071997496305 l -12.466295484290828 29.823667620860668" fill="#aaff21" stroke="none" /><path d="M 108.09893153111575 80.62456947434976 l 5.7743137163085185 -13.814144966383218 a35.97241797595163,35.97241797595163 0 0,0 0.5692485126173504,0.24372250523515174 l -6.011245986716184 13.712702933185275" fill="#ff5708" stroke="none" /><path d="M 108.76106565485865 80.91482961587045 l 6.224366805115973 -13.559206800725095 a35.91961230023955,35.91961230023955 0 0,0 0.5596990374433023,0.2627862028243651 l -6.456844053858872 13.450055615260727" fill="#ff5708" stroke="none" /><path d="M 109.08828744355905 81.06846463323043 l 8.965884274507943 -18.676561045338072 a41.71716711580298,41.71716711580298 0 0,0 0.6446866375240772,0.31634493318973805 l -9.28604217904245 18.519460952013503" fill="#ffb110" stroke="none" /><path d="M 109.41281617654863 81.2277094730956 l 9.253239958485553 -18.454042398981965 a41.643985336962864,41.643985336962864 0 0,0 0.6380245493893069,0.32682095520514787 l -9.569524995463615 18.292028918464315" fill="#ffb010" stroke="none" /><path d="M 110.05341064243156 81.56283822128135 l 8.477812374702388 -15.547638890059893 a38.70882203073823,38.70882203073823 0 0,0 0.5822468771384722,0.32401975674224137 l -8.744183340912896 15.399403735757472" fill="#ff830c" stroke="none" /><path d="M 110.36928655335952 81.73862282372117 l 7.30286780764127 -12.861099248977219 a35.78985301170791,35.78985301170791 0 0,0 0.5331039507927545,0.30880821777822326 l -7.523168490899353 12.733486873808946" fill="#ff5507" stroke="none" /><line stroke="#e1ed5e" stroke-width="0.3" x1="143.23703022742887" x2="145.7803849466894" y1="26.81831364943548" y2="22.513508569990506" /><path d="M 143.74570117128098 25.957352633546492 a86.0,86.0 0 0,1 28.547481713284135,27.462654790039103" fill="none" id="id26" stroke="none" /><text fill="#e1ed5e" style="font-size:6.75px; font-family:Arial;" text-anchor="middle"><textPath startOffset="19.985693538727396" xlink:href="#id26">February</textPath></text><path d="M 110.99172775467656 82.1063720568725 l 11.0741592929906 -18.0278197017201 a42.157487734706535,42.157487734706535 0 0,0 0.6150593726673954,0.3851501227386677 l -11.38283781803026 17.83452523765849" fill="#ffb711" stroke="none" /><path d="M 111.2981086023043 82.29822771554956 l 8.01382583120892 -12.555988350330992 a35.89544386403436,35.89544386403436 0 0,0 0.5179763388053211,0.3369062192082115 l -8.228769195798522 12.416183206963252" fill="#ff5608" stroke="none" /><path d="M 111.60114157652 82.49532879139004 l 9.859996061971131 -14.877500463602413 a38.84823639429331,38.84823639429331 0 0,0 0.5542261549673908,0.3742159738462286 l -10.114626911345063 14.705572577457515" fill="#ff850c" stroke="none" /><path d="M 112.19680574252982 82.90503203632743 l 10.245237292436244 -14.359661618919395 a38.639863066027274,38.639863066027274 0 0,0 0.5381147109099015,0.3909632224213514 l -10.490897319699934 14.181179161681369" fill="#ff820b" stroke="none" /><path d="M 112.48926042617603 83.11751280151076 l 26.840499209257867 -36.281922935295675 a66.13081352784266,66.13081352784266 0 0,0 0.9093107981548442,0.6848740411803842 l -27.461056161171093 35.81453230460944" fill="#33ff54" stroke="none" /><path d="M 113.06298171725822 83.55741782278167 l 12.803027485936703 -16.1153736651546 a41.58209856096334,41.58209856096334 0 0,0 0.5565993612401504,0.45006464123185597 l -13.078530245741344 15.892602926658615" fill="#ffaf10" stroke="none" /><path d="M 113.34407831869373 83.78471172551755 l 11.285504362157189 -13.713776417135264 a38.76035676239203,38.76035676239203 0 0,0 0.511530511498698,0.4283920925501827 l -11.519892410615004 13.517483167191262" fill="#ff840c" stroke="none" /><path d="M 113.6212207817346 84.01681056812373 l 8.10741828224254 -9.513273757540373 a33.49930433220773,33.49930433220773 0 0,0 0.43566036924501184,0.37780037914070724 l -8.269972450134317 9.372308384979995" fill="#ff2f04" stroke="none" /><path d="M 114.16331599549186 84.49514656593476 l 19.7906020307852 -21.665151293447664 a50.34359741594231,50.34359741594231 0 0,0 0.6347898903403641,0.5899680211699039 l -20.160599804920412 21.321278686203122" fill="#d2ff1c" stroke="none" /><path d="M 114.42810811169701 84.74124197986012 l 32.689917574672705 -34.571929882190204 a68.5799227281631,68.5799227281631 0 0,0 0.8507723344024785,0.8184423116291472 l -33.2801731526876 34.004104483798756" fill="#37ff75" stroke="none" /><path d="M 114.94478906791727 85.2469230424477 l 44.8343672037518 -44.25923087265689 a84.0,84.0 0 0,0 1.0069429451875638,1.0377432177995427 l -45.58957441264248 43.480923459307235" fill="#4dd2ff" stroke="none" /><path d="M 115.19652480421416 85.50635884689758 l 16.00769020755562 -15.267287787666023 a43.120945327279486,43.120945327279486 0 0,0 0.5076622282108838,0.5415386693301398 l -16.268119757736965 14.989479701457828" fill="#ffc612" stroke="none" /><path d="M 115.4437574822437 85.77008943001954 l 10.775101574251355 -9.928201214007712 a35.651689093113404,35.651689093113404 0 0,0 0.4119575752963756,0.45489384388725507 l -10.944402790163767 9.741254582850909" fill="#ff5207" stroke="none" /><path d="M 115.9244219780498 86.31012108654704 l 14.129654572554577 -12.146956445503463 a39.63318784396998,39.63318784396998 0 0,0 0.4402858132223619,0.5211595295609902 l -14.336650999264055 11.901937966313366" fill="#ff910d" stroke="none" /><path d="M 116.15771136456269 86.58626213691792 l 15.793649654188954 -13.111502711162657 a41.52683299352554,41.52683299352554 0 0,0 0.4518544742053201,0.5539201575012914 l -16.017002620470684 12.837698384053265" fill="#ffae10" stroke="none" /><path d="M 116.60985879189232 87.15038557335679 l 14.644334748540762 -11.329058085990123 a39.51496954745151,39.51496954745151 0 0,0 0.4115654553018628,0.5415718960168519 l -14.837176144066738 11.075301414092237" fill="#ff8f0d" stroke="none" /><path d="M 116.82858285166822 87.43820079747576 l 22.91977544219218 -17.108607385988165 a49.60105859943657,49.60105859943657 0 0,0 0.504838127695338,0.6885986388279419 l -23.210876182401144 16.711546303488728" fill="#dcff1b" stroke="none" /><path d="M 117.04232023915458 87.72973835380427 l 17.111669421081427 -12.320192207014387 a42.08545390533842,42.08545390533842 0 0,0 0.41822395808902474,0.5915481292554163 l -17.32120599897433 12.023817577427177" fill="#ffb610" stroke="none" /><line stroke="#e1ed5e" stroke-width="0.3" x1="172.23445277983987" x2="176.4835382374775" y1="55.19839476539836" y2="52.563006222186495" /><path d="M 173.08426987136738 54.67131705675599 a86.0,86.0 0 0,1 12.851231095245387,41.99856678651699" fill="none" id="id27" stroke="none" /><text fill="#e1ed5e" style="font-size:6.75px; font-family:Arial;" text-anchor="middle"><textPath startOffset="22.20632615414155" xlink:href="#id27">March</textPath></text><line stroke="#e1ed5e" stroke-width="0.3" x1="184.98032266829074" x2="189.97916517819016" y1="98.17113171792111" y2="98.06355123074" /><path d="M 185.9800911702706 98.14961562048488 a86.0,86.0 0 0,1 -9.607161424134198,41.387399972396054" fill="none" id="id28" stroke="none" /><text fill="#e1ed5e" style="font-size:6.75px; font-family:Arial;" text-anchor="middle"><textPath startOffset="21.466115282336823" xlink:href="#id28">April</textPath></text><line stroke="#e1ed5e" stroke-width="0.3" x1="174.80103733775053" x2="179.2010983576182" y1="140.37084112569926" y2="142.7455964860345" /><path d="M 175.68104954172406 140.8457921977663 a86.0,86.0 0 0,1 -30.038265399797805,32.042727171017184" fill="none" id="id29" stroke="none" /><text fill="#e1ed5e" style="font-size:6.75px; font-family:Arial;" text-anchor="middle"><textPath startOffset="22.206326154141568" xlink:href="#id29">May</textPath></text><line stroke="#e1ed5e" stroke-width="0.3" x1="143.8653032363475" x2="146.44561519142675" y1="172.8068346515853" y2="177.08958963109032" /><path d="M 144.38136562736335 173.6633856474863 a86.0,86.0 0 0,1 -40.68145358897372,12.25698825130547" fill="none" id="id30" stroke="none" /><text fill="#e1ed5e" style="font-size:6.75px; font-family:Arial;" text-anchor="middle"><textPath startOffset="21.466115282336833" xlink:href="#id30">June</textPath></text><line stroke="#e1ed5e" stroke-width="0.3" x1="102.19456741930631" x2="102.32365962044197" y1="184.97166512339345" y2="189.96999836594603" /><path d="M 102.22038585953345 185.97133177190398 a86.0,86.0 0 0,1 -42.740103519485714,-10.115201625700543" fill="none" id="id31" stroke="none" /><text fill="#e1ed5e" style="font-size:6.75px; font-family:Arial;" text-anchor="middle"><textPath startOffset="22.20632615414155" xlink:href="#id31">July</textPath></text><line stroke="#e1ed5e" stroke-width="0.3" x1="58.666819895761336" x2="56.23545636021788" y1="174.27360380694188" y2="178.64263932499728" /><path d="M 58.180547188652646 175.14741091055294 a86.0,86.0 0 0,1 -31.652253787137756,-30.449443065178592" fill="none" id="id32" stroke="none" /><text fill="#e1ed5e" style="font-size:6.75px; font-family:Arial;" text-anchor="middle"><textPath startOffset="22.20632615414155" xlink:href="#id32">August</textPath></text><line stroke="#e1ed5e" stroke-width="0.3" x1="26.63291911575756" x2="22.317208475507996" y1="142.92168965132927" y2="145.44649492493687" /><path d="M 25.769776987707644 143.4266507060508 a86.0,86.0 0 0,1 -11.730757126820373,-40.83630448921669" fill="none" id="id33" stroke="none" /><text fill="#e1ed5e" style="font-size:6.75px; font-family:Arial;" text-anchor="middle"><textPath startOffset="21.46611528233685" xlink:href="#id33">September</textPath></text><line stroke="#e1ed5e" stroke-width="0.3" x1="15.007084014347285" x2="10.007500721073583" y1="101.09737516637583" y2="101.16192664675087" /><path d="M 14.007167355692545 101.11028546245083 a86.0,86.0 0 0,1 10.666146001902534,-42.60595125391555" fill="none" id="id34" stroke="none" /><text fill="#e1ed5e" style="font-size:6.75px; font-family:Arial;" text-anchor="middle"><textPath startOffset="22.20632615414155" xlink:href="#id34">October</textPath></text><line stroke="#e1ed5e" stroke-width="0.3" x1="26.266209847984243" x2="21.928928074336255" y1="57.711370442889674" y2="55.22380399835377" /><path d="M 25.398753493254645 57.213857153982495 a86.0,86.0 0 0,1 29.58750427330803,-30.492523968695096" fill="none" id="id35" stroke="none" /><text fill="#e1ed5e" style="font-size:6.75px; font-family:Arial;" text-anchor="middle"><textPath startOffset="21.46611528233685" xlink:href="#id35">November</textPath></text><line stroke="#e1ed5e" stroke-width="0.3" x1="56.762969772571076" x2="54.21961505331055" y1="26.818313649435495" y2="22.513508569990535" /><path d="M 56.25429882871897 25.957352633546506 a86.0,86.0 0 0,1 42.265352541879196,-11.944610805530505" fill="none" id="id36" stroke="none" /><text fill="#e1ed5e" style="font-size:6.75px; font-family:Arial;" text-anchor="middle"><textPath startOffset="22.20632615414155" xlink:href="#id36">December</textPath></text></svg>