<?xml version="1.0" encoding="utf-8" ?>
<svg baseProfile="full" height="200mm" version="1.1" viewBox="0,0,200,200" width="200mm" xmlns="http://www.w3.org/2000/svg" xmlns:ev="http://www.w3.org/2001/xml-events" xmlns:xlink="http://www.w3.org/1999/xlink"><defs /><rect fill="#1a1a1a" height="200" width="200" x="0" y="0" /><rect fill="#1a1a1a" height="200" width="180" x="10" y="0" /><text alignment-baseline="middle" fill="#e1ed5e" style="dominant-baseline: central; font-size:9.0px; font-family:Arial;" text-anchor="middle" x="100.0" y="100.0">2022</text><line stroke="#e1ed5e" stroke-width="0.3" x1="100.0" x2="100.0" y1="15.0" y2="10.0" /><path d="M 100.0 14.0 a86.0,86.0 0 0,1 42.46469731375804,11.215312516191453" fill="none" id="id61" stroke="none" /><text fill="#e1ed5e" style="font-size:6.75px; font-family:Arial;" text-anchor="middle"><textPath startOffset="22.20632615414155" xlink:href="#id61">January</textPath></text><line stroke="#e1ed5e" stroke-width="0.3" x1="143.23703022742887" x2="145.7803849466894" y1="26.81831364943548" y2="22.513508569990506" /><path d="M 143.74570117128098 25.957352633546492 a86.0,86.0 0 0,1 28.547481713284135,27.462654790039103" fill="none" id="id62" stroke="none" /><text fill="#e1ed5e" style="font-size:6.75px; font-family:Arial;" text-anchor="middle"><textPath startOffset="19.985693538727396" xlink:href="#id62">February</textPath></text><line stroke="#e1ed5e" stroke-width="0.3" x1="172.23445277983987" x2="176.4835382374775" y1="55.19839476539836" y2="52.563006222186495" /><path d="M 173.08426987136738 54.67131705675599 a86.0,86.0 0 0,1 12.851231095245387,41.99856678651699" fill="none" id="id63" stroke="none" /><text fill="#e1ed5e" style="font-size:6.75px; font-family:Arial;" text-anchor="middle"><textPath startOffset="22.20632615414155" xlink:href="#id63">March</textPath></text><line stroke="#e1ed5e" stroke-width="0.3" x1="184.98032266829074" x2="189.97916517819016" y1="98.17113171792111" y2="98.06355123074" /><path d="M 185.9800911702706 98.14961562048488 a86.0,86.0 0 0,1 -9.607161424134198,41.387399972396054" fill="none" id="id64" stroke="none" /><text fill="#e1ed5e" style="font-size:6.75px; font-family:Arial;" text-anchor="middle"><textPath startOffset="21.466115282336823" xlink:href="#id64">April</textPath></text><line stroke="#e1ed5e" stroke-width="0.3" x1="174.80103733775053" x2="179.2010983576182" y1="140.37084112569926" y2="142.7455964860345" /><path d="M 175.68104954172406 140.8457921977663 a86.0,86.0 0 0,1 -30.038265399797805,32.042727171017184" fill="none" id="id65" stroke="none" /><text fill="#e1ed5e" style="font-size:6.75px; font-family:Arial;" text-anchor="middle"><textPath startOffset="22.206326154141568" xlink:href="#id65">May</textPath></text><line stroke="#e1ed5e" stroke-width="0.3" x1="143.8653032363475" x2="146.44561519142675" y1="172.8068346515853" y2="177.08958963109032" /><path d="M 144.38136562736335 173.6633856474863 a86.0,86.0 0 0,1 -40.68145358897372,12.25698825130547" fill="none" id="id66" stroke="none" /><text fill="#e1ed5e" style="font-size:6.75px; font-family:Arial;" text-anchor="middle"><textPath startOffset="21.466115282336833" xlink:href="#id66">June</textPath></text><line stroke="#e1ed5e" stroke-width="0.3" x1="102.19456741930631" x2="102.32365962044197" y1="184.97166512339345" y2="189.96999836594603" /><path d="M 102.22038585953345 185.97133177190398 a86.0,86.0 0 0,1 -42.740103519485714,-10.115201625700543" fill="none" id="id67" stroke="none" /><text fill="#e1ed5e" style="font-size:6.75px; font-family:Arial;" text-anchor="middle"><textPath startOffset="22.20632615414155" xlink:href="#id67">July</textPath></text><path d="M 92.06813273071674 119.44442032107085 l -13.919314532866352 34.12223038657833 a57.85205453729268,57.85205453729268 0 0,0 -0.918824348328402,-0.38406865212013447 l 14.504610340692215 -33.87757669143822" fill="red" stroke="none" /><path d="M 91.7346041902142 119.30500536409082 l -6.9975198720711465 16.34370110935637 a38.77869090546341,38.77869090546341 0 0,0 -0.6113725153636538,-0.2680077441533712 l 7.277813062092544 -16.220828811908547" fill="red" stroke="none" /><line stroke="#e1ed5e" stroke-width="0.3" x1="58.666819895761336" x2="56.23545636021788" y1="174.27360380694188" y2="178.64263932499728" /><path d="M 58.180547188652646 175.14741091055294 a86.0,86.0 0 0,1 -31.652253787137756,-30.449443065178592" fill="none" id="id68" stroke="none" /><text fill="#e1ed5e" style="font-size:6.75px; font-family:Arial;" text-anchor="middle"><textPath startOffset="22.20632615414155" xlink:href="#id68">August</textPath></text><path d="M 89.7882731507175 118.34994917583269 l -30.635180547847483 55.04984752749809 a84.0,84.0 0 0,0 -1.257404932315171,-0.7139873368214675 l 31.57823424708386 -54.51435702488198" fill="red" stroke="none" /><line stroke="#e1ed5e" stroke-width="0.3" x1="26.63291911575756" x2="22.317208475507996" y1="142.92168965132927" y2="145.44649492493687" /><path d="M 25.769776987707644 143.4266507060508 a86.0,86.0 0 0,1 -11.730757126820373,-40.83630448921669" fill="none" id="id69" stroke="none" /><text fill="#e1ed5e" style="font-size:6.75px; font-family:Arial;" text-anchor="middle"><textPath startOffset="21.46611528233685" xlink:href="#id69">September</textPath></text><path d="M 79.67330655649465 105.27499134158121 l -17.422113312064717 4.521222161814612 a38.999207818537634,38.999207818537634 0 0,0 -0.1630328189487284,-0.6512350698817486 l 17.497357445308506 -4.220659252535472" fill="red" stroke="none" /><path d="M 79.35854240842038 103.8639653848113 l -27.69519157454734 5.1843849250947684 a49.176257441371234,49.176257441371234 0 0,0 -0.14859088033804524,-0.8333765682142996 l 27.780328897224575 -4.706889606147255" fill="red" stroke="none" /><line stroke="#e1ed5e" stroke-width="0.3" x1="15.007084014347285" x2="10.007500721073583" y1="101.09737516637583" y2="101.16192664675087" /><path d="M 14.007167355692545 101.11028546245083 a86.0,86.0 0 0,1 10.666146001902534,-42.60595125391555" fill="none" id="id70" stroke="none" /><text fill="#e1ed5e" style="font-size:6.75px; font-family:Arial;" text-anchor="middle"><textPath startOffset="22.20632615414155" xlink:href="#id70">October</textPath></text><path d="M 79.00019446554 99.90962569577889 l -39.26188721411485 -0.16896659988403886 a60.26225079291496,60.26225079291496 0 0,0 0.01339254740576069,-1.0372675556812063 l 39.25316165959138 0.8447704136257171" fill="red" stroke="none" /><path d="M 79.54389044137918 95.25157060432595 l -45.73577276408493 -10.616539142230298 a67.9518030930285,67.9518030930285 0 0,0 0.2742897174011682,-1.1371079591553759 l 45.54625024642295 11.40223233304507" fill="red" stroke="none" /><path d="M 80.52162464483688 92.15188598940014 l -37.18563706468724 -14.982621184733253 a61.09052932391713,61.09052932391713 0 0,0 0.4013889611115826,-0.971995207218495 l 36.92222641668946 15.620490962405059" fill="red" stroke="none" /><line stroke="#e1ed5e" stroke-width="0.3" x1="26.266209847984243" x2="21.928928074336255" y1="57.711370442889674" y2="55.22380399835377" /><path d="M 25.398753493254645 57.213857153982495 a86.0,86.0 0 0,1 29.58750427330803,-30.492523968695096" fill="none" id="id71" stroke="none" /><text fill="#e1ed5e" style="font-size:6.75px; font-family:Arial;" text-anchor="middle"><textPath startOffset="21.46611528233685" xlink:href="#id71">November</textPath></text><path d="M 82.34701348167596 88.62581576622439 l -31.25127267141048 -20.135841181072077 a58.17652678306845,58.17652678306845 0 0,0 0.5496389836643261,-0.8371378806839396 l 30.90003705238823 20.67079712573368" fill="red" stroke="none" /><path d="M 82.7489923806493 88.02491185347247 l -34.13439164066934 -23.694983953667315 a62.552484369086145,62.552484369086145 0 0,0 0.6216149565592116,-0.8792302725792571 l 33.721464064306254 24.27904072657836" fill="red" stroke="none" /><path d="M 85.31137513191541 84.99185889309783 l -24.98675020103011 -25.53027776172469 a56.723000548659016,56.723000548659016 0 0,0 0.7036805769289114,-0.6769401574802151 l 24.54358638048877 25.95660100596722" fill="red" stroke="none" /><path d="M 87.80319425747018 82.90503203632743 l -26.139972225954846 -36.63762440815115 a66.0068180417861,66.0068180417861 0 0,0 0.930598257016205,-0.651943549656614 l 25.50544282935498 37.0821528005717" fill="red" stroke="none" /><line stroke="#e1ed5e" stroke-width="0.3" x1="56.762969772571076" x2="54.21961505331055" y1="26.818313649435495" y2="22.513508569990535" /><path d="M 56.25429882871897 25.957352633546506 a86.0,86.0 0 0,1 42.265352541879196,-11.944610805530505" fill="none" id="id72" stroke="none" /><text fill="#e1ed5e" style="font-size:6.75px; font-family:Arial;" text-anchor="middle"><textPath startOffset="22.20632615414155" xlink:href="#id72">December</textPath></text><path d="M 91.56875222667455 80.76684994638697 l -9.601976388444115 -21.903786682022155 a44.91597419248836,44.91597419248836 0 0,0 0.7107765599445346,-0.3043174290532647 l 9.223516070709271 22.065823639038207" fill="red" stroke="none" /><path d="M 92.23578459929587 80.48803036053334 l -15.356713276621772 -38.592402161880294 a62.535552810630485,62.535552810630485 0 0,0 1.0035968611063943,-0.38937999029655557 l 14.690133250515702 38.8510248560674" fill="red" stroke="none" /></svg>