<?xml version="1.0" encoding="utf-8" ?>
<svg baseProfile="full" height="200mm" version="1.1" viewBox="0,0,200,200" width="200mm" xmlns="http://www.w3.org/2000/svg" xmlns:ev="http://www.w3.org/2001/xml-events" xmlns:xlink="http://www.w3.org/1999/xlink"><defs /><rect fill="#1a1a1a" height="200" width="200" x="0" y="0" /><text alignment-baseline="middle" fill="#e1ed5e" style="dominant-baseline: central; font-size:9.0px; font-family:Arial;" text-anchor="middle" x="100.0" y="100.0">2025</text><line stroke="#e1ed5e" stroke-width="0.3" x1="100.0" x2="100.0" y1="15.0" y2="10.0" /><path d="M 100.0 14.0 a86.0,86.0 0 0,1 42.46469731375804,11.215312516191453" fill="none" id="id13" stroke="none" /><text fill="#e1ed5e" style="font-size:6.75px; font-family:Arial;" text-anchor="middle"><textPath startOffset="22.20632615414155" xlink:href="#id13">January</textPath></text><line stroke="#e1ed5e" stroke-width="0.3" x1="143.23703022742887" x2="145.7803849466894" y1="26.81831364943548" y2="22.513508569990506" /><path d="M 143.74570117128098 25.957352633546492 a86.0,86.0 0 0,1 28.547481713284135,27.462654790039103" fill="none" id="id14" stroke="none" /><text fill="#e1ed5e" style="font-size:6.75px; font-family:Arial;" text-anchor="middle"><textPath startOffset="19.985693538727396" xlink:href="#id14">February</textPath></text><line stroke="#e1ed5e" stroke-width="0.3" x1="172.23445277983987" x2="176.4835382374775" y1="55.19839476539836" y2="52.563006222186495" /><path d="M 173.08426987136738 54.67131705675599 a86.0,86.0 0 0,1 12.851231095245387,41.99856678651699" fill="none" id="id15" stroke="none" /><text fill="#e1ed5e" style="font-size:6.75px; font-family:Arial;" text-anchor="middle"><textPath startOffset="22.20632615414155" xlink:href="#id15">March</textPath></text><line stroke="#e1ed5e" stroke-width="0.3" x1="184.98032266829074" x2="189.97916517819016" y1="98.17113171792111" y2="98.06355123074" /><path d="M 185.9800911702706 98.14961562048488 a86.0,86.0 0 0,1 -9.607161424134198,41.387399972396054" fill="none" id="id16" stroke="none" /><text fill="#e1ed5e" style="font-size:6.75px; font-family:Arial;" text-anchor="middle"><textPath startOffset="21.466115282336823" xlink:href="#id16">April</textPath></text><path d="M 120.99824983174949 100.27111621757518 l 7.759250409393995 0.1001825694555201 a28.759897129659876,28.759897129659876 0 0,0 -0.010652032240958502,0.4949580818803678 l -7.756376314468029 -0.23373046712600273" fill="#ff2703" stroke="none" /><path d="M 120.95626037817324 101.35467743843564 l 17.55651070248531 1.1349071121048897 a38.5931544129979,38.5931544129979 0 0,0 -0.048560188170952735,0.662565186343522 l -17.534373955650018 -1.4369454349451818" fill="#ffb710" stroke="none" /><path d="M 120.8583938346157 102.4346265915055 l 12.75667207794477 1.4889800866899965 a33.8432762254331,33.8432762254331 0 0,0 -0.07251887391840553,0.5780467770862077 l -12.729151694779517 -1.708344618063599" fill="#ff730a" stroke="none" /><path d="M 120.76222939487914 103.15116336523771 l 6.4725276772401905 0.9823604059608793 a27.546651548680433,27.546651548680433 0 0,0 -0.0751869399995838,0.4681891471489471 l -6.454658982879319 -1.0936287828030313" fill="#ff1502" stroke="none" /><path d="M 120.64145759157962 103.86396538481128 l 17.736303384367233 3.320136769782331 a39.044383223384976,39.044383223384976 0 0,0 -0.1293485884654642,0.6595456658854497 l -17.676524862926104 -3.624946162735726" fill="#ffbd11" stroke="none" /><path d="M 120.49622156327973 104.57218783832717 l 11.760267656671708 2.623417813341719 a33.04932431217275,33.04932431217275 0 0,0 -0.12863966979307723,0.5541763306556241 l -11.713367420948078 -2.8254628013459087" fill="#ff6809" stroke="none" /><path d="M 120.23288151984713 105.62410040840565 l 16.628025432907016 4.622064560426419 a38.25846779404685,38.25846779404685 0 0,0 -0.1818322279667574,0.6329818396995374 l -16.546000568054158 -4.907603875630538" fill="#ffb210" stroke="none" /><path d="M 119.9155931802556 106.66101706037122 l 9.440430515253357 3.157469031938955 a30.954463270361707,30.954463270361707 0 0,0 -0.1733585097059773,0.5038609765252037 l -9.38468117460415 -3.319502711553459" fill="#ff4906" stroke="none" /><path d="M 119.54520255179757 107.68017299344265 l 11.954476438959738 4.6974415769767015 a33.84427749228242,33.84427749228242 0 0,0 -0.21772730531212994,0.5403813160983588 l -11.871846519390216 -4.902522260917873" fill="#ff730a" stroke="none" /><path d="M 119.41010516605496 108.01547362559984 l 22.47688215276277 9.281910352359164 a45.31797876260315,45.31797876260315 0 0,0 -0.303952040145735,0.7184528369233515 l -22.313779131424727 -9.667437714948678" fill="#eeff19" stroke="none" /><path d="M 119.12269723197855 108.67885076344098 l 9.420118066111883 4.275327788647961 a31.344904643343646,31.344904643343646 0 0,0 -0.22721381521199696,0.48939834407671357 l -9.345129634060054 -4.436846200003505" fill="#ff4f07" stroke="none" /><path d="M 118.64920377521936 109.65438752849418 l 4.629832138028737 2.3967883128501257 a26.213438389675158,26.213438389675158 0 0,0 -0.21089022222556741,0.3989248243954706 l -4.587889407578277 -2.476128152331731" fill="#ff0000" stroke="none" /><line stroke="#e1ed5e" stroke-width="0.3" x1="174.80103733775053" x2="179.2010983576182" y1="140.37084112569926" y2="142.7455964860345" /><path d="M 175.68104954172406 140.8457921977663 a86.0,86.0 0 0,1 -30.038265399797805,32.042727171017184" fill="none" id="id17" stroke="none" /><text fill="#e1ed5e" style="font-size:6.75px; font-family:Arial;" text-anchor="middle"><textPath startOffset="22.206326154141568" xlink:href="#id17">May</textPath></text><path d="M 117.55443506779139 111.5257021239791 l 27.511459304305436 18.06317797826418 a53.911377846071744,53.911377846071744 0 0,0 -0.51600093000427,0.7713513784308293 l -27.196455268890446 -18.534066270900816" fill="#85ff25" stroke="none" /><path d="M 116.93607887273984 112.41649034213515 l 21.92432813879894 16.073567597241578 a48.185211782158795,48.185211782158795 0 0,0 -0.49616710284774973,0.6646969167336861 l -21.6443997692561 -16.448577393484577" fill="#caff1d" stroke="none" /><path d="M 116.0416608686014 113.55231037782055 l 11.081299103451144 9.361699269766936 a35.50643316041893,35.50643316041893 0 0,0 -0.39844556822272414,0.4634822122076835 l -10.918511025657642 -9.551058581136147" fill="#ff8b0c" stroke="none" /><path d="M 115.32070863581623 114.36230785411682 l 22.107704688278996 20.72473723171542 a51.30289325968404,51.30289325968404 0 0,0 -0.6095112268378785,0.6390700845457432 l -21.747686910062153 -21.10221443284367" fill="#a4ff21" stroke="none" /><path d="M 114.81725581225074 114.88116024355365 l 39.4410945139318 39.61119758475773 a76.89854122028247,76.89854122028247 0 0,0 -0.9460353231662821,0.9258946777596561 l -38.75340923838972 -40.284242365439965" fill="#44ffe3" stroke="none" /><path d="M 114.0293411484842 115.62618273729858 l 17.66609442340446 19.67687696754851 a47.44372098197761,47.44372098197761 0 0,0 -0.6123801608919622,0.5403542917667402 l -17.324771909605907 -19.978054401087537" fill="#d3ff1c" stroke="none" /><path d="M 113.48314897796784 116.09983520530334 l 21.512261389024054 25.687164313220965 a54.50533988074301,54.50533988074301 0 0,0 -0.7244794530733198,0.5961972675692937 l -21.066911807406044 -26.053656699647437" fill="#7eff26" stroke="none" /><path d="M 112.92097659922987 116.55440617244103 l 16.46846267314489 21.099459319752476 a47.765601924908324,47.765601924908324 0 0,0 -0.6525037599272416,0.5003120589245051 l -16.102830184724155 -21.379810720504352" fill="#cfff1d" stroke="none" /><path d="M 112.34349029814194 116.9893568818739 l 9.175180948357696 12.628553174371083 a36.609750180993416,36.609750180993416 0 0,0 -0.513011857740272,0.3660203391880571 l -8.956441762768538 -12.78461777540336" fill="#ff9b0e" stroke="none" /><path d="M 111.45004920935366 117.60387380957326 l 15.212702651901846 23.388763916217044 a48.900906786406026,48.900906786406026 0 0,0 -0.709571247344032,0.45288194225656464 l -14.807849602510883 -23.647160287297417" fill="#c1ff1e" stroke="none" /><line stroke="#e1ed5e" stroke-width="0.3" x1="143.8653032363475" x2="146.44561519142675" y1="172.8068346515853" y2="177.08958963109032" /><path d="M 144.38136562736335 173.6633856474863 a86.0,86.0 0 0,1 -40.68145358897372,12.25698825130547" fill="none" id="id18" stroke="none" /><text fill="#e1ed5e" style="font-size:6.75px; font-family:Arial;" text-anchor="middle"><textPath startOffset="21.466115282336833" xlink:href="#id18">June</textPath></text><path d="M 110.8373102113329 117.98757091392108 l 29.136291921542764 48.3598888365674 a77.45885541899086,77.45885541899086 0 0,0 -1.1479849752265365,0.6782497582350513 l -28.299539075287846 -48.8542571670962" fill="#44ffe9" stroke="none" /><path d="M 109.89434966115114 118.52300852407294 l 12.545591637929062 23.486344106203944 a47.62705821191474,47.62705821191474 0 0,0 -0.7264466681512604,0.38004256278687387 l -12.139454067251306 -23.698816087935533" fill="#d0ff1d" stroke="none" /><path d="M 109.2508944713604 118.85261126421891 l 13.9246454263361 28.377356160262615 a52.60965189456501,52.60965189456501 0 0,0 -0.8164199568264902,0.3919311930357864 l -13.434112801509379 -28.61284162979796" fill="#94ff23" stroke="none" /><path d="M 108.59647513512805 119.15986991738527 l 14.47173200361948 32.254673957651185 a56.35244007560109,56.35244007560109 0 0,0 -0.8884346591247317,0.3894636458723736 l -13.914376669836994 -32.49900215681801" fill="#69ff28" stroke="none" /><path d="M 108.2653958097858 119.30500536409082 l 5.2076358654714365 12.163172899491567 a34.23110903478127,34.23110903478127 0 0,0 -0.5436691350549462,0.2272537425458399 l -4.997495270919029 -12.25101168505738" fill="#ff790b" stroke="none" /><path d="M 107.59598834532513 119.57807347666477 l 6.9707810440160545 17.966649929561843 a40.27154114374453,40.27154114374453 0 0,0 -0.6484289198370404,0.24518033362526426 l -6.660481903418739 -18.08397851329374" fill="#ffce13" stroke="none" /><path d="M 107.2578585660854 119.70592522655815 l 9.156095422875323 24.8598577841575 a47.49238782068039,47.49238782068039 0 0,0 -0.7695585997316264,0.2759363342802411 l -8.726817262513963 -25.0137816594777" fill="#d2ff1c" stroke="none" /><path d="M 106.91757812671514 119.82793768551818 l 8.172466900509937 23.424840525396185 a45.80952173823941,45.80952173823941 0 0,0 -0.7467612290794955,0.2533419536335537 l -7.768035938493215 -23.56204546592786" fill="#e7ff1a" stroke="none" /><path d="M 106.2309692047433 120.05430185196036 l 9.38843322360918 30.21656304125293 a52.64148164072253,52.64148164072253 0 0,0 -0.8676444846856388,0.2614141658395463 l -8.866913764483295 -30.3736925761982" fill="#94ff23" stroke="none" /><path d="M 105.88484417918355 120.15858648285463 l 4.855742030446621 16.633387848303343 a38.32766060316081,38.32766060316081 0 0,0 -0.6349046915859368,0.17943040773373545 l -4.568706170756078 -16.714507049375598" fill="#ffb310" stroke="none" /><path d="M 104.83641907484287 120.43548508189849 l 6.240282086321391 26.367274942153852 a48.09565109739934,48.09565109739934 0 0,0 -0.8072737101744928,0.183732868178162 l -5.785488226754036 -26.470784543909698" fill="#cbff1d" stroke="none" /><path d="M 104.48393922423573 120.51570834832081 l 5.528572833792692 25.295299995925546 a46.892418184913154,46.892418184913154 0 0,0 -0.7900446641926944,0.16556154084196625 l -5.09233670817062 -25.386717517494052" fill="#daff1c" stroke="none" /><path d="M 103.7750983002368 120.6578951692458 l 10.57456700003602 57.865591614715576 a79.82387406622665,79.82387406622665 0 0,0 -1.3537788023701038,0.23537179762575927 l -9.576939226193867 -58.03904199086234" fill="#47fcff" stroke="none" /><path d="M 102.70371172650421 120.8252237178851 l 3.398460988001626 26.17650013418637 a47.39618715576225,47.39618715576225 0 0,0 -0.8099615153394032,0.09807505968037915 l -2.947372049610842 -26.2311207225921" fill="#d3ff1c" stroke="none" /><path d="M 101.98527174616119 120.90594882070398 l 3.086542159883696 32.50290170715728 a53.64912497893116,53.64912497893116 0 0,0 -0.9200970099693453,0.07938984158646295 l -2.526600832172809 -32.5512158010224" fill="#88ff25" stroke="none" /><path d="M 101.26447882468166 120.96189622390904 l 1.6225522629562645 26.897858224332513 a47.94675217725351,47.94675217725351 0 0,0 -0.8242547436576425,0.04260455527392226 l -1.1593094508851425 -26.92180258636864" fill="#cdff1d" stroke="none" /><path d="M 100.90346689309514 120.98055641714683 l 1.3636020035000018 31.665940372154246 a52.695286559310006,52.695286559310006 0 0,0 -0.9065587903119495,0.031223717745345013 l -0.8183228615134 -31.684720888325685" fill="#93ff23" stroke="none" /><line stroke="#e1ed5e" stroke-width="0.3" x1="102.19456741930631" x2="102.32365962044197" y1="184.97166512339345" y2="189.96999836594603" /><path d="M 102.22038585953345 185.97133177190398 a86.0,86.0 0 0,1 -42.740103519485714,-10.115201625700543" fill="none" id="id19" stroke="none" /><text fill="#e1ed5e" style="font-size:6.75px; font-family:Arial;" text-anchor="middle"><textPath startOffset="22.20632615414155" xlink:href="#id19">July</textPath></text><path d="M 100.18074693466247 120.99922214144158 l 0.3120528220650699 36.25437157562505 a57.25571451933127,57.25571451933127 0 0,0 -0.9855995134550257,0.0 l 0.3120528220650449 -36.25437157562505" fill="#5fff29" stroke="none" /><path d="M 99.45781275523022 120.99299961872073 l -0.7097568824641863 27.481144395570915 a48.49030833079949,48.49030833079949 0 0,0 -0.834217216235208,-0.028732127663857233 l 1.1826944503740373 -27.464855469480966" fill="#c6ff1e" stroke="none" /><path d="M 98.73552117531835 120.96189622390904 l -3.793436474044945 62.885688671727095 a84.0,84.0 0 0,0 -1.4425489568842798,-0.09948662193485935 l 4.875348191708155 -62.81107370527595" fill="#4dd2ff" stroke="none" /><path d="M 97.65516085044442 120.86867818915974 l -3.037256679150139 27.031078966364632 a48.20117935349279,48.20117935349279 0 0,0 -0.8237181641214345,-0.09974079826765109 l 3.502102266322963 -26.974792639371632" fill="#c9ff1d" stroke="none" /><line stroke="#e1ed5e" stroke-width="0.3" x1="58.666819895761336" x2="56.23545636021788" y1="174.27360380694188" y2="178.64263932499728" /><path d="M 58.180547188652646 175.14741091055294 a86.0,86.0 0 0,1 -31.652253787137756,-30.449443065178592" fill="none" id="id20" stroke="none" /><text fill="#e1ed5e" style="font-size:6.75px; font-family:Arial;" text-anchor="middle"><textPath startOffset="22.20632615414155" xlink:href="#id20">August</textPath></text><line stroke="#e1ed5e" stroke-width="0.3" x1="26.63291911575756" x2="22.317208475507996" y1="142.92168965132927" y2="145.44649492493687" /><path d="M 25.769776987707644 143.4266507060508 a86.0,86.0 0 0,1 -11.730757126820373,-40.83630448921669" fill="none" id="id21" stroke="none" /><text fill="#e1ed5e" style="font-size:6.75px; font-family:Arial;" text-anchor="middle"><textPath startOffset="21.46611528233685" xlink:href="#id21">September</textPath></text><line stroke="#e1ed5e" stroke-width="0.3" x1="15.007084014347285" x2="10.007500721073583" y1="101.09737516637583" y2="101.16192664675087" /><path d="M 14.007167355692545 101.11028546245083 a86.0,86.0 0 0,1 10.666146001902534,-42.60595125391555" fill="none" id="id22" stroke="none" /><text fill="#e1ed5e" style="font-size:6.75px; font-family:Arial;" text-anchor="middle"><textPath startOffset="22.20632615414155" xlink:href="#id22">October</textPath></text><line stroke="#e1ed5e" stroke-width="0.3" x1="26.266209847984243" x2="21.928928074336255" y1="57.711370442889674" y2="55.22380399835377" /><path d="M 25.398753493254645 57.213857153982495 a86.0,86.0 0 0,1 29.58750427330803,-30.492523968695096" fill="none" id="id23" stroke="none" /><text fill="#e1ed5e" style="font-size:6.75px; font-family:Arial;" text-anchor="middle"><textPath startOffset="21.46611528233685" xlink:href="#id23">November</textPath></text><line stroke="#e1ed5e" stroke-width="0.3" x1="56.762969772571076" x2="54.21961505331055" y1="26.818313649435495" y2="22.513508569990535" /><path d="M 56.25429882871897 25.957352633546506 a86.0,86.0 0 0,1 42.265352541879196,-11.944610805530505" fill="none" id="id24" stroke="none" /><text fill="#e1ed5e" style="font-size:6.75px; font-family:Arial;" text-anchor="middle"><textPath startOffset="22.20632615414155" xlink:href="#id24">December</textPath></text></svg>