<?xml version="1.0" encoding="utf-8" ?>
<svg baseProfile="full" height="200mm" version="1.1" viewBox="0,0,200,200" width="200mm" xmlns="http://www.w3.org/2000/svg" xmlns:ev="http://www.w3.org/2001/xml-events" xmlns:xlink="http://www.w3.org/1999/xlink"><defs /><rect fill="#1a1a1a" height="200" width="200" x="0" y="0" /><rect fill="#1a1a1a" height="200" width="180" x="10" y="0" /><text alignment-baseline="middle" fill="#e1ed5e" style="dominant-baseline: central; font-size:9.0px; font-family:Arial;" text-anchor="middle" x="100.0" y="100.0">2026</text><line stroke="#e1ed5e" stroke-width="0.3" x1="100.0" x2="100.0" y1="15.0" y2="10.0" /><path d="M 100.0 14.0 a86.0,86.0 0 0,1 42.46469731375804,11.215312516191453" fill="none" id="id25" stroke="none" /><text fill="#e1ed5e" style="font-size:6.75px; font-family:Arial;" text-anchor="middle"><textPath startOffset="22.20632615414155" xlink:href="#id25">January</textPath></text><path d="M 100.36148047927253 79.00311137660856 l 0.21886464105387374 -12.7129312793184 a33.714815116381985,33.714815116381985 0 0,0 0.5801731515423758,0.014984160826814679 l -0.43766442779111736 12.707280326349226" fill="#ff5a08" stroke="none" /><path d="M 100.72285384407766 79.0124445844662 l 0.31519933433333525 -9.151592054824185 a30.157018497212142,30.157018497212142 0 0,0 0.5186420808606033,0.02233381899445525 l -0.47268224758327004 9.144810509305534" fill="#ff2203" stroke="none" /><path d="M 101.44485096284872 79.0497635885617 l 1.3109502726083548 -19.00868590670013 a40.05383768475086,40.05383768475086 0 0,0 0.6874188597748848,0.053356933694128784 l -1.6379593217455808 18.983303710817534" fill="#ffb711" stroke="none" /><path d="M 101.80526077348638 79.07773832637324 l 0.6037607501446651 -6.997349406975968 a28.023348614921673,28.023348614921673 0 0,0 0.48023328672860566,0.04560393713220395 l -0.724119163963515 6.985919925328586" fill="#ff0000" stroke="none" /><path d="M 102.16513564639614 79.11191278185805 l 1.5607893566257853 -15.057672836624773 a36.13834781839101,36.13834781839101 0 0,0 0.6181951341196539,0.06946142632557839 l -1.8197511942551645 15.028575456828595" fill="#ff7e0b" stroke="none" /><path d="M 102.88285421437855 79.19881850522331 l 1.8707736291857617 -13.498532670242431 a34.627552172758655,34.627552172758655 0 0,0 0.589708894704933,0.08690776188134311 l -2.1028515043193505 13.46433042420012" fill="#ff6709" stroke="none" /><path d="M 103.2404852339499 79.25152402106235 l 6.196411181856181 -39.67494966969849 a61.155910434551735,61.155910434551735 0 0,0 1.038691767809115,0.17139304154299867 l -6.8784321558041706 39.56241036521587" fill="#3dff2e" stroke="none" /><path d="M 103.95276090670814 79.375362276772 l 2.0824763482777584 -10.865903924907194 a32.06366014691566,32.06366014691566 0 0,0 0.5411637234046265,0.10855235191098003 l -2.26920648114951 10.828447616919005" fill="#ff4006" stroke="none" /><path d="M 104.307194497241 79.44645832069477 l 3.516704800361747 -16.781396506321627 a38.14591733781751,38.14591733781751 0 0,0 0.6415003929375399,0.14020713910620075 l -3.8050479174528147 16.718375869119555" fill="#ff9c0e" stroke="none" /><path d="M 104.66035177308747 79.52364482259891 l 2.2663126927090826 -9.957579577350156 a31.21222621470927,31.21222621470927 0 0,0 0.5228438980715284,0.12374025826468991 l -2.4373802777431344 9.917093406944597" fill="#ff3304" stroke="none" /><path d="M 105.36241919743992 79.69619591428918 l 3.7138941219943615 -14.061970142887416 a35.54414018939729,35.54414018939729 0 0,0 0.5902055576081507,0.16132547403841022 l -3.955397568826223 13.995958128022712" fill="#ff750a" stroke="none" /><path d="M 105.71112130821622 79.79150937346287 l 6.334551940176952 -22.414465846175666 a44.292377024515446,44.292377024515446 0 0,0 0.7318994337042373,0.21366151470220182 l -6.719441591604616 22.302106002554762" fill="#fff216" stroke="none" /><path d="M 106.40334571778207 80.00007090966166 l 7.145913934493901 -22.319234080811306 a44.43527887423666,44.43527887423666 0 0,0 0.7264473588559075,0.2394982727274803 l -7.529044115592226 22.192922083824588" fill="#fff417" stroke="none" /><path d="M 106.74666289553966 80.11325718540242 l 3.471330323871034 -10.232236950948936 a31.805036197893617,31.805036197893617 0 0,0 0.5169348197980994,0.18034840834629667 l -3.646947147732407 10.170967689430432" fill="#ff3c05" stroke="none" /><path d="M 107.08798089147638 80.2323363322302 l 4.457612927915098 -12.431832770047732 a34.20684591556775,34.20684591556775 0 0,0 0.5525507959111778,0.20350912130207635 l -4.670946049598852 12.353260380939332" fill="#ff6109" stroke="none" /><path d="M 107.76421540070413 80.48803036053334 l 8.668456857149078 -21.784386224315753 a44.44571661208957,44.44571661208957 0 0,0 0.7084142037033212,0.2889799409119275 l -9.042154930440786 21.631945397220246" fill="#fff417" stroke="none" /><path d="M 108.09893153111575 80.62456947434976 l 4.188272234171346 -10.019788089814517 a31.8599160987698,31.8599160987698 0 0,0 0.504169885479001,0.21585923340946891 l -4.360125877440662 9.946209328442258" fill="#ff3d05" stroke="none" /><path d="M 108.76106565485865 80.91482961587045 l 4.5147084044874175 -9.834874264013745 a31.821614656164265,31.821614656164265 0 0,0 0.4958440793869047,0.23280544381537782 l -4.68333069517392 9.755703837558364" fill="#ff3c05" stroke="none" /><path d="M 109.08828744355905 81.06846463323043 l 6.50320817444633 -13.546635305780162 a36.026744313656074,36.026744313656074 0 0,0 0.5567482707547589,0.27319395852816736 l -6.7354277122115205 13.432686187117163" fill="#ff7c0b" stroke="none" /><path d="M 109.41281617654863 81.2277094730956 l 6.711635338549938 -13.385236269651159 a35.973663510045135,35.973663510045135 0 0,0 0.5511499503508618,0.28232041134992314 l -6.941045776489554 13.267723332988735" fill="#ff7c0b" stroke="none" /><path d="M 110.05341064243156 81.56283822128135 l 6.1491958906209065 -11.277140015141029 a33.844706965218165,33.844706965218165 0 0,0 0.5090822687013489,0.2833037313606231 l -6.342402248394291 11.169620886220226" fill="#ff5c08" stroke="none" /><path d="M 110.36928655335952 81.73862282372117 l 5.296975531859637 -9.328517211193248 a31.727496592618817,31.727496592618817 0 0,0 0.4725935526126823,0.27375668947637616 l -5.456765816937648 9.235956364326821" fill="#ff3b05" stroke="none" /><line stroke="#e1ed5e" stroke-width="0.3" x1="143.23703022742887" x2="145.7803849466894" y1="26.81831364943548" y2="22.513508569990506" /><path d="M 143.74570117128098 25.957352633546492 a86.0,86.0 0 0,1 28.547481713284135,27.462654790039103" fill="none" id="id26" stroke="none" /><text fill="#e1ed5e" style="font-size:6.75px; font-family:Arial;" text-anchor="middle"><textPath startOffset="19.985693538727396" xlink:href="#id26">February</textPath></text><path d="M 110.99172775467656 82.1063720568725 l 8.032399374600415 -13.076084952937334 a36.346121249668116,36.346121249668116 0 0,0 0.5302740684025625,0.3320575729862481 l -8.256292595375239 12.935883038628143" fill="#ff810b" stroke="none" /><path d="M 111.2981086023043 82.29822771554956 l 5.812653393517862 -9.10721169023863 a31.80408460925746,31.80408460925746 0 0,0 0.45893744530246133,0.2985056806002877 l -5.968557864604604 9.005807085478814" fill="#ff3c05" stroke="none" /><path d="M 111.60114157652 82.49532879139004 l 7.151732615212496 -10.791069755976535 a33.945828126382864,33.945828126382864 0 0,0 0.48428622624508005,0.3269922217678099 l -7.336423535864117 10.666365621910055" fill="#ff5d08" stroke="none" /><path d="M 112.19680574252982 82.90503203632743 l 7.431158920793714 -10.415466669355919 a33.794689087529875,33.794689087529875 0 0,0 0.4706388145721723,0.3419391141167103 l -7.609343051719675 10.286008320422534" fill="#ff5b08" stroke="none" /><path d="M 112.48926042617603 83.11751280151076 l 19.468169398544404 -26.3162997194045 a53.73464908398974,53.73464908398974 0 0,0 0.7388612666402676,0.5564949878329801 l -19.918276818943053 25.977288142065674" fill="#92ff23" stroke="none" /><path d="M 113.06298171725822 83.55741782278167 l 9.286396127254728 -11.688934024217277 a35.92877528984866,35.92877528984866 0 0,0 0.48092650608174037,0.3888757883880859 l -9.486226031900959 11.52735213856506" fill="#ff7b0b" stroke="none" /><path d="M 113.34407831869373 83.78471172551755 l 8.18569390075673 -9.94698795656024 a33.88208655633242,33.88208655633242 0 0,0 0.447150710532683,0.37447586070510414 l -8.35570214824853 9.804610938461316" fill="#ff5c08" stroke="none" /><path d="M 113.6212207817346 84.01681056812373 l 5.880538632050197 -6.9002451706502335 a30.066097176741305,30.066097176741305 0 0,0 0.3910113137836698,0.33908115822373003 l -5.998443744480631 6.7979990190068325" fill="#ff2103" stroke="none" /><path d="M 114.16331599549186 84.49514656593476 l 14.354680582900988 -15.714343915051003 a42.28373696787327,42.28373696787327 0 0,0 0.5331619139421538,0.49551589292475223 l -14.623050380637988 15.46492343605161" fill="#ffd714" stroke="none" /><path d="M 114.42810811169701 84.74124197986012 l 23.710917148242515 -25.07599363684443 a55.51105690769095,55.51105690769095 0 0,0 0.6886457375827671,0.6624766539413192 l -24.139046129437702 24.664133896140807" fill="#7dff26" stroke="none" /><path d="M 114.94478906791727 85.2469230424477 l 32.51962822279108 -32.1024656568597 a66.69567289140632,66.69567289140632 0 0,0 0.7995087772921313,0.8239640738051633 l -33.067401263786316 31.537937387504424" fill="#35ff67" stroke="none" /><path d="M 115.19652480421416 85.50635884689758 l 11.610828182086184 -11.073793471176966 a37.04494415434994,37.04494415434994 0 0,0 0.43612955955878957,0.46523260588317167 l -11.799725063615435 10.87229144841574" fill="#ff8c0c" stroke="none" /><path d="M 115.4437574822437 85.77008943001954 l 7.815484395375673 -7.201203731354916 a31.627282414372953,31.627282414372953 0 0,0 0.3654552956133438,0.40354486519857335 l -7.938283331605052 7.065606078886793" fill="#ff3905" stroke="none" /><path d="M 115.9244219780498 86.31012108654704 l 10.248636085968533 -8.810529339045807 a34.51517550225684,34.51517550225684 0 0,0 0.38342971991933233,0.45385984842518723 l -10.398776419374983 8.632810540991514" fill="#ff6609" stroke="none" /><path d="M 116.15771136456269 86.58626213691792 l 11.455578545385574 -9.510141888953587 a35.888689618550316,35.888689618550316 0 0,0 0.3905056997733561,0.4787138140084453 l -11.617582737235338 9.311543905337041" fill="#ff7a0b" stroke="none" /><path d="M 116.60985879189232 87.15038557335679 l 10.62194810129482 -8.21728464230391 a34.42942844499513,34.42942844499513 0 0,0 0.3585973507263201,0.47187207924686625 l -10.761821392245253 8.033227787176012" fill="#ff6409" stroke="none" /><path d="M 116.82858285166822 87.43820079747576 l 16.624358116680977 -12.409354392660529 a41.745152668377735,41.745152668377735 0 0,0 0.42488094626470835,0.5795371332142509 l -16.835501675459312 12.121354815774785" fill="#ffcf13" stroke="none" /><path d="M 117.04232023915458 87.72973835380427 l 12.411575372882814 -8.936182111920363 a36.29387308611382,36.29387308611382 0 0,0 0.3606701567386408,0.5101423588258075 l -12.563558149425337 8.721213252762762" fill="#ff800b" stroke="none" /><path d="M 117.45458315368197 88.32363383020206 l 14.140229850331469 -9.459206215574895 a38.01242729445084,38.01242729445084 0 0,0 0.3591330225443475,0.5469842320354792 l -14.30095950823374 9.214403919561743" fill="#ff9a0e" stroke="none" /><path d="M 117.65298651832404 88.62581576622439 l 7.784274933771308 -5.0155692993460805 a30.260176652801135,30.260176652801135 0 0,0 0.2783538600973146,0.4402889598498593 l -7.869456390114578 4.880832691782015" fill="#ff2403" stroke="none" /><line stroke="#e1ed5e" stroke-width="0.3" x1="172.23445277983987" x2="176.4835382374775" y1="55.19839476539836" y2="52.563006222186495" /><path d="M 173.08426987136738 54.67131705675599 a86.0,86.0 0 0,1 12.851231095245387,41.99856678651699" fill="none" id="id27" stroke="none" /><text fill="#e1ed5e" style="font-size:6.75px; font-family:Arial;" text-anchor="middle"><textPath startOffset="22.20632615414155" xlink:href="#id27">March</textPath></text><path d="M 118.03404312379186 89.2402003453031 l 15.911213276546691 -9.493238201972247 a39.52804035755376,39.52804035755376 0 0,0 0.343593397829424,0.5873124943268032 l -16.072266348846444 9.217946295291549" fill="#ffb010" stroke="none" /><path d="M 118.21658344932153 89.55222093294921 l 9.435632395270238 -5.411629622972049 a31.877356934241966,31.877356934241966 0 0,0 0.26889667603307804,0.4783371823654327 l -9.52738671259575 5.248408930671822" fill="#ff3d05" stroke="none" /><path d="M 118.3937258080291 89.86733742301442 l 12.324834896306085 -6.789456069134917 a35.07118576865209,35.07118576865209 0 0,0 0.28673516891820017,0.5312767204803939 l -12.439878164442751 6.576298365322064" fill="#ff6e0a" stroke="none" /><path d="M 118.73160827565052 90.50648371742162 l 11.897288407526249 -6.029759941232761 a34.338046198778656,34.338046198778656 0 0,0 0.26266968078938463,0.5295260481502166 l -11.999318101269042 5.824074304583595" fill="#ff6309" stroke="none" /><path d="M 118.89224826269711 90.83032412892265 l 23.496452521485644 -11.404405169055423 a47.11788158244093,47.11788158244093 0 0,0 0.34786864109009014,0.7327000756998564 l -23.68927935641749 10.998262677715026" fill="#e6ff1a" stroke="none" /><path d="M 119.196687751892 91.48605970444005 l 12.905787573672901 -5.723857484664298 a35.118140720417735,35.118140720417735 0 0,0 0.24032395593219433,0.5547008246424104 l -13.002402239447777 5.500857515435285" fill="#ff6f0a" stroke="none" /><path d="M 119.34039704204932 91.81776055985345 l 13.93682122403428 -5.8961772109245985 a36.13274236658111,36.13274236658111 0 0,0 0.23740642094840425,0.5748984792349546 l -14.036249331868882 5.6554041612363415" fill="#ff7e0b" stroke="none" /><path d="M 119.47837535516314 92.15188598940014 l 12.90615533294641 -5.2000732424855975 a34.914366935127006,34.914366935127006 0 0,0 0.2198049766962322,0.5593796904170097 l -12.993753859524343 4.977144547172804" fill="#ff6c09" stroke="none" /><path d="M 119.7369772167798 92.82701384747503 l 15.947351822297156 -5.795727103212652 a37.96786618284804,37.96786618284804 0 0,0 0.2179480617413213,0.6161685197443469 l -16.04475296484829 5.5203609570416905" fill="#ff990e" stroke="none" /><path d="M 119.85752413597 93.16781622104841 l 10.021815983194426 -3.4481080384029466 a31.598407646694397,31.598407646694397 0 0,0 0.172531377774894,0.5158468593386698 l -10.07968465474109 3.2750880761419627" fill="#ff3905" stroke="none" /><path d="M 120.08093135843002 93.85539295169968 l 14.435948558611088 -4.417286712396667 a36.09665634126914,36.09665634126914 0 0,0 0.17669159075561638,0.5957162059330193 l -14.509846046478406 4.168141119717117" fill="#ff7e0b" stroke="none" /><path d="M 120.18372546131832 94.20196356495316 l 12.577867490806895 -3.61315526841923 a34.08654429595539,34.08654429595539 0 0,0 0.15714421112019794,0.5653313373233554 l -12.638198472493457 3.396112627676923" fill="#ff5f08" stroke="none" /><path d="M 120.28053869075195 94.5502522615342 l 9.27148904787998 -2.491416882034552 a30.600399327374106,30.600399327374106 0 0,0 0.13231564310281388,0.509866147822893 l -9.313001022853097 2.331454308662809" fill="#ff2904" stroke="none" /><path d="M 120.37134235888165 94.90015583598534 l 8.751942630840961 -2.190996683643953 a30.02202672802903,30.02202672802903 0 0,0 0.12118491124904068,0.5023896937021638 l -8.78836034235082 2.040021758282383" fill="#ff2003" stroke="none" /><path d="M 120.53481517161879 95.60439243477599 l 8.198659899301417 -1.7549752056145316 a29.38438799893796,29.38438799893796 0 0,0 0.10161499740903761,0.49551081519826773 l -8.227654192625451 1.613588734252852" fill="#ff1602" stroke="none" /><path d="M 120.6074358757038 95.95851677861258 l 61.822307627111385 -12.124449664162288 a84.0,84.0 0 0,0 0.26605710436056285,1.4212876901497489 l -62.02185045538181 11.058483896549978" fill="#4dd2ff" stroke="none" /><path d="M 120.87857604477298 97.74499172005257 l 13.552570308338446 -1.4637568287385172 a34.63138826444818,34.63138826444818 0 0,0 0.05891108240099157,0.5932265602093942 l -13.575758516421665 1.230254737824688" fill="#ff6809" stroke="none" /><path d="M 120.91429891909075 98.10471618934814 l 20.21157551383056 -1.8316020062314413 a41.29439702628551,41.29439702628551 0 0,0 0.05805897083637147,0.70846650218417 l -20.240108968486425 1.4834215868395026" fill="#ffc912" stroke="none" /><path d="M 120.96714384426684 98.82574320788733 l 20.004188005624695 -1.120326822326188 a41.03553518010443,41.03553518010443 0 0,0 0.033427140054238295,0.7055940946341367 l -20.020508753912427 0.7758216210690514" fill="#ffc512" stroke="none" /><path d="M 120.98425023603335 99.18683210126433 l 14.634723291792517 -0.567115196106926 a35.6457074077352,35.6457074077352 0 0,0 0.01848196921905224,0.6133265810746943 l -14.642316955467214 0.31511846760723267" fill="#ff770a" stroke="none" /><line stroke="#e1ed5e" stroke-width="0.3" x1="184.98032266829074" x2="189.97916517819016" y1="98.17113171792111" y2="98.06355123074" /><path d="M 185.9800911702706 98.14961562048488 a86.0,86.0 0 0,1 -9.607161424134198,41.387399972396054" fill="none" id="id28" stroke="none" /><text fill="#e1ed5e" style="font-size:6.75px; font-family:Arial;" text-anchor="middle"><textPath startOffset="21.466115282336823" xlink:href="#id28">April</textPath></text><line stroke="#e1ed5e" stroke-width="0.3" x1="174.80103733775053" x2="179.2010983576182" y1="140.37084112569926" y2="142.7455964860345" /><path d="M 175.68104954172406 140.8457921977663 a86.0,86.0 0 0,1 -30.038265399797805,32.042727171017184" fill="none" id="id29" stroke="none" /><text fill="#e1ed5e" style="font-size:6.75px; font-family:Arial;" text-anchor="middle"><textPath startOffset="22.206326154141568" xlink:href="#id29">May</textPath></text><line stroke="#e1ed5e" stroke-width="0.3" x1="143.8653032363475" x2="146.44561519142675" y1="172.8068346515853" y2="177.08958963109032" /><path d="M 144.38136562736335 173.6633856474863 a86.0,86.0 0 0,1 -40.68145358897372,12.25698825130547" fill="none" id="id30" stroke="none" /><text fill="#e1ed5e" style="font-size:6.75px; font-family:Arial;" text-anchor="middle"><textPath startOffset="21.466115282336833" xlink:href="#id30">June</textPath></text><line stroke="#e1ed5e" stroke-width="0.3" x1="102.19456741930631" x2="102.32365962044197" y1="184.97166512339345" y2="189.96999836594603" /><path d="M 102.22038585953345 185.97133177190398 a86.0,86.0 0 0,1 -42.740103519485714,-10.115201625700543" fill="none" id="id31" stroke="none" /><text fill="#e1ed5e" style="font-size:6.75px; font-family:Arial;" text-anchor="middle"><textPath startOffset="22.20632615414155" xlink:href="#id31">July</textPath></text><line stroke="#e1ed5e" stroke-width="0.3" x1="58.666819895761336" x2="56.23545636021788" y1="174.27360380694188" y2="178.64263932499728" /><path d="M 58.180547188652646 175.14741091055294 a86.0,86.0 0 0,1 -31.652253787137756,-30.449443065178592" fill="none" id="id32" stroke="none" /><text fill="#e1ed5e" style="font-size:6.75px; font-family:Arial;" text-anchor="middle"><textPath startOffset="22.20632615414155" xlink:href="#id32">August</textPath></text><line stroke="#e1ed5e" stroke-width="0.3" x1="26.63291911575756" x2="22.317208475507996" y1="142.92168965132927" y2="145.44649492493687" /><path d="M 25.769776987707644 143.4266507060508 a86.0,86.0 0 0,1 -11.730757126820373,-40.83630448921669" fill="none" id="id33" stroke="none" /><text fill="#e1ed5e" style="font-size:6.75px; font-family:Arial;" text-anchor="middle"><textPath startOffset="21.46611528233685" xlink:href="#id33">September</textPath></text><line stroke="#e1ed5e" stroke-width="0.3" x1="15.007084014347285" x2="10.007500721073583" y1="101.09737516637583" y2="101.16192664675087" /><path d="M 14.007167355692545 101.11028546245083 a86.0,86.0 0 0,1 10.666146001902534,-42.60595125391555" fill="none" id="id34" stroke="none" /><text fill="#e1ed5e" style="font-size:6.75px; font-family:Arial;" text-anchor="middle"><textPath startOffset="22.20632615414155" xlink:href="#id34">October</textPath></text><line stroke="#e1ed5e" stroke-width="0.3" x1="26.266209847984243" x2="21.928928074336255" y1="57.711370442889674" y2="55.22380399835377" /><path d="M 25.398753493254645 57.213857153982495 a86.0,86.0 0 0,1 29.58750427330803,-30.492523968695096" fill="none" id="id35" stroke="none" /><text fill="#e1ed5e" style="font-size:6.75px; font-family:Arial;" text-anchor="middle"><textPath startOffset="21.46611528233685" xlink:href="#id35">November</textPath></text><line stroke="#e1ed5e" stroke-width="0.3" x1="56.762969772571076" x2="54.21961505331055" y1="26.818313649435495" y2="22.513508569990535" /><path d="M 56.25429882871897 25.957352633546506 a86.0,86.0 0 0,1 42.265352541879196,-11.944610805530505" fill="none" id="id36" stroke="none" /><text fill="#e1ed5e" style="font-size:6.75px; font-family:Arial;" text-anchor="middle"><textPath startOffset="22.20632615414155" xlink:href="#id36">December</textPath></text></svg>