<?xml version="1.0" encoding="utf-8" ?>
<svg baseProfile="full" height="200mm" version="1.1" viewBox="0,0,200,200" width="200mm" xmlns="http://www.w3.org/2000/svg" xmlns:ev="http://www.w3.org/2001/xml-events" xmlns:xlink="http://www.w3.org/1999/xlink"><defs /><rect fill="#1a1a1a" height="200" width="200" x="0" y="0" /><rect fill="#1a1a1a" height="200" width="180" x="10" y="0" /><text alignment-baseline="middle" fill="#e1ed5e" style="dominant-baseline: central; font-size:9.0px; font-family:Arial;" text-anchor="middle" x="100.0" y="100.0">2025</text><line stroke="#e1ed5e" stroke-width="0.3" x1="100.0" x2="100.0" y1="15.0" y2="10.0" /><path d="M 100.0 14.0 a86.0,86.0 0 0,1 42.46469731375804,11.215312516191453" fill="none" id="id13" stroke="none" /><text fill="#e1ed5e" style="font-size:6.75px; font-family:Arial;" text-anchor="middle"><textPath startOffset="22.20632615414155" xlink:href="#id13">January</textPath></text><line stroke="#e1ed5e" stroke-width="0.3" x1="143.23703022742887" x2="145.7803849466894" y1="26.81831364943548" y2="22.513508569990506" /><path d="M 143.74570117128098 25.957352633546492 a86.0,86.0 0 0,1 28.547481713284135,27.462654790039103" fill="none" id="id14" stroke="none" /><text fill="#e1ed5e" style="font-size:6.75px; font-family:Arial;" text-anchor="middle"><textPath startOffset="19.985693538727396" xlink:href="#id14">February</textPath></text><line stroke="#e1ed5e" stroke-width="0.3" x1="172.23445277983987" x2="176.4835382374775" y1="55.19839476539836" y2="52.563006222186495" /><path d="M 173.08426987136738 54.67131705675599 a86.0,86.0 0 0,1 12.851231095245387,41.99856678651699" fill="none" id="id15" stroke="none" /><text fill="#e1ed5e" style="font-size:6.75px; font-family:Arial;" text-anchor="middle"><textPath startOffset="22.20632615414155" xlink:href="#id15">March</textPath></text><line stroke="#e1ed5e" stroke-width="0.3" x1="184.98032266829074" x2="189.97916517819016" y1="98.17113171792111" y2="98.06355123074" /><path d="M 185.9800911702706 98.14961562048488 a86.0,86.0 0 0,1 -9.607161424134198,41.387399972396054" fill="none" id="id16" stroke="none" /><text fill="#e1ed5e" style="font-size:6.75px; font-family:Arial;" text-anchor="middle"><textPath startOffset="21.466115282336823" xlink:href="#id16">April</textPath></text><path d="M 120.99824983174949 100.27111621757518 l 5.097783066873038 0.0658193741946871 a26.098207958382716,26.098207958382716 0 0,0 -0.00966620121590192,0.4491503878946185 l -5.095894802972129 -0.15355957787942043" fill="#ff1902" stroke="none" /><path d="M 120.95626037817324 101.35467743843564 l 11.53452695174647 0.7456274708646684 a32.55860165962448,32.55860165962448 0 0,0 -0.04096715718687073,0.5589643112569268 l -11.519983235895262 -0.9440649186183655" fill="#ff770b" stroke="none" /><path d="M 120.8583938346157 102.4346265915055 l 8.381060473298719 0.9782513867125258 a29.43795890205061,29.43795890205061 0 0,0 -0.06307922483074235,0.502803486103947 l -8.36297973922113 -1.1223726271038676" fill="#ff4a06" stroke="none" /><path d="M 120.76222939487914 103.15116336523771 l 4.252413603375265 0.6454051588554173 a25.301112562262023,25.301112562262023 0 0,0 -0.0690578754655441,0.43002345644483286 l -4.240673973548432 -0.7185078449934551" fill="#ff0d01" stroke="none" /><path d="M 120.64145759157962 103.86396538481128 l 11.652649713725605 2.18131083696019 a32.855056402996546,32.855056402996546 0 0,0 -0.10884421314499074,0.5549942978748308 l -11.613375567604951 -2.3815688619029656" fill="#ff7b0b" stroke="none" /><path d="M 120.49622156327973 104.57218783832717 l 7.726428476840194 1.7235704740235342 a28.916337043522894,28.916337043522894 0 0,0 -0.11255262025233106,0.48487374227129265 l -7.695615290657311 -1.8563128736433918" fill="#ff4306" stroke="none" /><path d="M 120.23288151984713 105.62410040840565 l 10.924517448848245 3.036669936777566 a32.33871446836538,32.33871446836538 0 0,0 -0.15369722940861402,0.535040218753589 l -10.870627582553531 -3.2242676310357368" fill="#ff740a" stroke="none" /><path d="M 119.9155931802556 106.66101706037122 l 6.2023087650819475 2.0744390651070024 a27.540025340337326,27.540025340337326 0 0,0 -0.15423616647997337,0.4482824961399847 l -6.165681767658743 -2.1808942643362874" fill="#ff2f04" stroke="none" /><path d="M 119.54520255179757 107.68017299344265 l 7.854022534197504 3.0861922048224573 a29.438616728634443,29.438616728634443 0 0,0 -0.18938476951986222,0.470037466616393 l -7.799735150420249 -3.2209290392816636" fill="#ff4b06" stroke="none" /><path d="M 119.41010516605496 108.01547362559984 l 14.767182806180859 6.09816192620926 a36.976772731356974,36.976772731356974 0 0,0 -0.24800676942317224,0.5862147429010234 l -14.660025055565377 -6.3514511947764465" fill="#ffb410" stroke="none" /><path d="M 119.12269723197855 108.67885076344098 l 6.1889636023643275 2.8088658641451825 a27.79654308558038,27.79654308558038 0 0,0 -0.20149235341574334,0.43399660365624676 l -6.139696632108753 -2.91498253508026" fill="#ff3204" stroke="none" /><path d="M 118.64920377521936 109.65438752849418 l 3.041773190762485 1.5746761905420745 a24.425199154662614,24.425199154662614 0 0,0 -0.19650362539465288,0.37171080492195313 l -3.0142170571429387 -1.626802010550162" fill="#ff0000" stroke="none" /><line stroke="#e1ed5e" stroke-width="0.3" x1="174.80103733775053" x2="179.2010983576182" y1="140.37084112569926" y2="142.7455964860345" /><path d="M 175.68104954172406 140.8457921977663 a86.0,86.0 0 0,1 -30.038265399797805,32.042727171017184" fill="none" id="id17" stroke="none" /><text fill="#e1ed5e" style="font-size:6.75px; font-family:Arial;" text-anchor="middle"><textPath startOffset="22.206326154141568" xlink:href="#id17">May</textPath></text><path d="M 117.55443506779139 111.5257021239791 l 18.07487115207155 11.867404449278594 a42.6225866983288,42.6225866983288 0 0,0 -0.40795274122506653,0.6098339963766858 l -17.867915305435762 -12.176775359861088" fill="#fffe18" stroke="none" /><path d="M 116.93607887273984 112.41649034213515 l 14.404157984542513 10.560241827258775 a38.86052839906607,38.86052839906607 0 0,0 -0.4001500684082595,0.5360664082224733 l -14.220246649439162 -10.806621114990563" fill="#ffcd13" stroke="none" /><path d="M 116.0416608686014 113.55231037782055 l 7.280350027128529 6.1505827878421115 a30.530643480248855,30.530643480248855 0 0,0 -0.3426083249402243,0.3985308835843333 l -7.173399192617525 -6.274990770587973" fill="#ff5a08" stroke="none" /><path d="M 115.32070863581623 114.36230785411682 l 14.524635327001945 13.616033630944957 a40.90882726886285,40.90882726886285 0 0,0 -0.4860230663976595,0.509593242023333 l -14.288105709225322 -13.864033989550798" fill="#ffe815" stroke="none" /><path d="M 114.81725581225074 114.88116024355365 l 25.912573140910364 26.02432988393669 a57.725021343642396,57.725021343642396 0 0,0 -0.710155333963729,0.6950364621682055 l -25.460767854570843 -26.46651644902747" fill="#52ff2b" stroke="none" /><path d="M 114.0293411484842 115.62618273729858 l 11.606522828594347 12.927595440491404 a38.37337319128602,38.37337319128602 0 0,0 -0.49530458325082927,0.4370487066424414 l -11.38227589243693 -13.125467288906133" fill="#ffc712" stroke="none" /><path d="M 113.48314897796784 116.09983520530334 l 14.133432490636476 16.876319794162995 a43.01281635234884,43.01281635234884 0 0,0 -0.5717219952077114,0.47048827942068117 l -13.840840366884073 -17.117103192440855" fill="#fcff18" stroke="none" /><path d="M 112.92097659922987 116.55440617244103 l 10.819685629806282 13.862223896033699 a38.58484712676241,38.58484712676241 0 0,0 -0.5270897217208809,0.4041499223568055 l -10.579467179591907 -14.046413160217876" fill="#ffc912" stroke="none" /><path d="M 112.34349029814194 116.9893568818739 l 6.028041319224154 8.296887087633324 a31.255516441955045,31.255516441955045 0 0,0 -0.4379830639446302,0.31248928695289585 l -5.884330927430639 -8.39942063643044" fill="#ff6509" stroke="none" /><path d="M 111.45004920935366 117.60387380957326 l 9.994658489994087 15.366283900675711 a39.33073591669948,39.33073591669948 0 0,0 -0.5707043320335587,0.36425050664472547 l -9.728672355913597 -15.536048836144245" fill="#ffd313" stroke="none" /><line stroke="#e1ed5e" stroke-width="0.3" x1="143.8653032363475" x2="146.44561519142675" y1="172.8068346515853" y2="177.08958963109032" /><path d="M 144.38136562736335 173.6633856474863 a86.0,86.0 0 0,1 -40.68145358897372,12.25698825130547" fill="none" id="id18" stroke="none" /><text fill="#e1ed5e" style="font-size:6.75px; font-family:Arial;" text-anchor="middle"><textPath startOffset="21.466115282336833" xlink:href="#id18">June</textPath></text><path d="M 110.8373102113329 117.98757091392108 l 19.142376873065857 31.77216991585271 a58.09314456220047,58.09314456220047 0 0,0 -0.8609739552737914,0.5086785886687155 l -18.592635046763682 -32.096967076815176" fill="#4eff2c" stroke="none" /><path d="M 109.89434966115114 118.52300852407294 l 8.242381833470644 15.430393526468322 a38.493824701031,38.493824701031 0 0,0 -0.5871391546805015,0.30716345581866566 l -7.975551776263647 -15.569986401231706" fill="#ffc812" stroke="none" /><path d="M 109.2508944713604 118.85261126421891 l 9.14841227196987 18.64376042578451 a41.76736020566835,41.76736020566835 0 0,0 -0.6481644562904053,0.31115832790853665 l -8.826135147679231 -18.798473030192607" fill="#fff316" stroke="none" /><path d="M 108.59647513512805 119.15986991738527 l 9.50784501903165 21.191136005838334 a44.22635059848755,44.22635059848755 0 0,0 -0.6972585865950907,0.30565767382226466 l -9.141665757778807 -21.351658232955053" fill="#ecff1a" stroke="none" /><path d="M 108.2653958097858 119.30500536409082 l 3.421386929502947 7.991134913162289 a29.692762835930523,29.692762835930523 0 0,0 -0.4715897072455207,0.19712453587568537 l -3.283325762759965 -8.048844492057947" fill="#ff4e07" stroke="none" /><path d="M 107.59598834532513 119.57807347666477 l 4.579763210895002 11.80398607428231 a33.66129212638734,33.66129212638734 0 0,0 -0.54199453693425,0.20493595723954805 l -4.3758984532004765 -11.881070281628489" fill="#ff870c" stroke="none" /><path d="M 107.2578585660854 119.70592522655815 l 6.015502238321621 16.332784144138436 a38.40534702550548,38.40534702550548 0 0,0 -0.6223137314288815,0.2231395632283608 l -5.733468946263004 -16.43391124840676" fill="#ffc712" stroke="none" /><path d="M 106.91757812671514 119.82793768551818 l 5.369263934253377 15.389986026226515 a37.29971365034127,37.29971365034127 0 0,0 -0.6080390921564899,0.20627987299552109 l -5.10355510915966 -15.48012888612016" fill="#ffb811" stroke="none" /><path d="M 106.2309692047433 120.05430185196036 l 6.1681468423598735 19.852108809932236 a41.788272166543884,41.788272166543884 0 0,0 -0.6887603224639507,0.20751783517131 l -5.825511545455677 -19.955342014209272" fill="#fff316" stroke="none" /><path d="M 105.88484417918355 120.15858648285463 l 3.190194695862092 10.928040525042805 a32.38417374755342,32.38417374755342 0 0,0 -0.5364497473075667,0.15160605704081098 l -3.0016137804499197 -10.981335375422134" fill="#ff750a" stroke="none" /><path d="M 104.83641907484287 120.43548508189849 l 4.099829580657245 17.3231485810748 a38.80168754226481,38.80168754226481 0 0,0 -0.6512768108667784,0.14822848177802636 l -3.801032620397604 -17.391153796430512" fill="#ffcc13" stroke="none" /><path d="M 104.48393922423573 120.51570834832081 l 3.6322406790688735 16.61886718265792 a38.01117041198245,38.01117041198245 0 0,0 -0.6404131739439227,0.13420480722060735 l -3.3456360436955728 -16.67892797060507" fill="#ffc212" stroke="none" /><path d="M 103.7750983002368 120.6578951692458 l 6.947429938210773 38.0173621837172 a59.64694826443969,59.64694826443969 0 0,0 -1.0115867606158868,0.17587732492467187 l -6.291994206122836 -38.13131808716288" fill="#3eff2e" stroke="none" /><path d="M 102.70371172650421 120.8252237178851 l 2.232769399617349 17.197810625173137 a38.34214373977986,38.34214373977986 0 0,0 -0.6552354252204373,0.0793398849404157 l -1.9364065513455317 -17.233696038838904" fill="#ffc612" stroke="none" /><path d="M 101.98527174616119 120.90594882070398 l 2.0278405165008353 21.354220215187752 a42.45028806704226,42.45028806704226 0 0,0 -0.7280339267073189,0.0628178306033081 l -1.6599622720519747 -21.38596229806972" fill="#fffb17" stroke="none" /><path d="M 101.26447882468166 120.96189622390904 l 1.0660075412956003 17.671738757798785 a38.703861804758496,38.703861804758496 0 0,0 -0.6653598052377911,0.03439150192027747 l -0.7616596676443295 -17.687470066481264" fill="#ffcb12" stroke="none" /><path d="M 100.90346689309514 120.98055641714683 l 0.8958787043372871 20.804341412972484 a41.82362168981196,41.82362168981196 0 0,0 -0.7195249207517928,0.024781893106529822 l -0.537633431910842 -20.81668010450511" fill="#fff316" stroke="none" /><line stroke="#e1ed5e" stroke-width="0.3" x1="102.19456741930631" x2="102.32365962044197" y1="184.97166512339345" y2="189.96999836594603" /><path d="M 102.22038585953345 185.97133177190398 a86.0,86.0 0 0,1 -42.740103519485714,-10.115201625700543" fill="none" id="id19" stroke="none" /><text fill="#e1ed5e" style="font-size:6.75px; font-family:Arial;" text-anchor="middle"><textPath startOffset="22.20632615414155" xlink:href="#id19">July</textPath></text><path d="M 100.18074693466247 120.99922214144158 l 0.2050169163721447 23.81891442691291 a44.819796733234284,44.819796733234284 0 0,0 -0.7715277020691839,0.0 l 0.2050169163721283 -23.81891442691291" fill="#e5ff1a" stroke="none" /><path d="M 99.45781275523022 120.99299961872073 l -0.4663062056409532 18.054954430704566 a39.06097508365032,39.06097508365032 0 0,0 -0.6719969210222246,-0.023144932697104242 l 0.7770234783378209 -18.044252699581367" fill="#ffd013" stroke="none" /><path d="M 98.73552117531835 120.96189622390904 l -2.4922660311661735 41.31553719045618 a62.39063907825141,62.39063907825141 0 0,0 -1.0714470395437519,-0.07389326097919358 l 3.2030758314888557 -41.26651558496071" fill="#31ff40" stroke="none" /><path d="M 97.65516085044442 120.86867818915974 l -1.995460238011299 17.759264022103356 a38.87101900195562,38.87101900195562 0 0,0 -0.6642734646595345,-0.08043426564937664 l 2.3008611257222227 -17.72228422772863" fill="#ffcd13" stroke="none" /><path d="M 97.2962882734958 120.8252237178851 l -1.5149411675356796 11.668769426893125 a32.76669990605225,32.76669990605225 0 0,0 -0.5587056379770696,-0.07743151048625072 l 1.7155753966995801 -11.64096335091427" fill="#ff7a0b" stroke="none" /><path d="M 96.93821686468263 120.77559828337769 l -3.569913222004899 24.22349321589188 a45.4851363891036,45.4851363891036 0 0,0 -0.7736028312887142,-0.12082085230152155 l 3.98635191690213 -24.158454056243254" fill="#ddff1b" stroke="none" /><path d="M 96.22490169976321 120.6578951692458 l -4.534767880759857 24.814919254347366 a46.22586643372534,46.22586643372534 0 0,0 -0.7815085537359867,-0.1497779743295323 l 4.961244049067538 -24.733184081669368" fill="#d4ff1c" stroke="none" /><path d="M 95.86986931433489 120.58985236759428 l -2.464138417263399 12.284416665280515 a33.52912091671459,33.52912091671459 0 0,0 -0.564899489100008,-0.11838018035576274 l 2.675229367792794 -12.240180504198213" fill="#ff850c" stroke="none" /><path d="M 95.16358092515715 120.4354850818985 l -4.157958196012957 17.56876138541433 a39.054085215745964,39.054085215745964 0 0,0 -0.6528480158260174,-0.16045415857672418 l 4.459759496582184 -17.494585968523577" fill="#ffcf13" stroke="none" /><path d="M 94.81253420990036 120.34920634021253 l -3.4266073093475486 13.441773306316955 a34.87165841818811,34.87165841818811 0 0,0 -0.5803798996271395,-0.15328360648234968 l 3.6574776517861776 -13.380798350531025" fill="#ff970e" stroke="none" /><path d="M 94.46302465271185 120.25689768951611 l -6.281873397949465 22.982090173668414 a44.82516321326029,44.82516321326029 0 0,0 -0.7425370079293756,-0.2098483754425401 l 6.676541573983455 -22.870553004887352" fill="#e5ff1a" stroke="none" /><path d="M 93.76903079525671 120.05430185196036 l -5.851668833320334 18.833528021897745 a40.721658294536496,40.721658294536496 0 0,0 -0.6675998925385417,-0.21374440348109078 l 6.174990070949816 -18.730010771756948" fill="#ffe515" stroke="none" /><path d="M 93.42475214034765 119.94407469862007 l -3.6629186801797062 11.110383263382774 a32.698614854625546,32.698614854625546 0 0,0 -0.5330345502746076,-0.1808342600849941 l 3.8536229633915395 -11.045686016399657" fill="#ff790b" stroke="none" /><path d="M 93.08242187328487 119.8279376855182 l -3.8521517275128754 11.041468995241603 a32.69414855834584,32.69414855834584 0 0,0 -0.5297704398224243,-0.1899568313908902 l 4.041641727965026 -10.973524622810753" fill="#ff790b" stroke="none" /><path d="M 92.40401165467489 119.57807347666478 l -5.743376427173837 14.803109297101102 a36.87823723358916,36.87823723358916 0 0,0 -0.5898391733090957,-0.2347091799528991 l 5.997336676524791 -14.702053272742136" fill="#ffb310" stroke="none" /><path d="M 92.06813273071674 119.44442032107085 l -4.2997427141949505 10.540519876201037 a32.38377558935794,32.38377558935794 0 0,0 -0.5143292099181077,-0.2149896514591038 l 4.48054338361052 -10.46494518172196" fill="#ff750a" stroke="none" /><path d="M 91.7346041902142 119.30500536409082 l -11.03394661555577 25.77134882617512 a49.03409349765625,49.03409349765625 0 0,0 -0.7730559330463413,-0.3388850030278065 l 11.475923223259855 -25.57759926985286" fill="#b2ff20" stroke="none" /><path d="M 90.10565033884886 118.52300852407294 l -9.069109334431097 16.978093079426557 a40.248490557275844,40.248490557275844 0 0,0 -0.6082834647428467,-0.33168464492835126 l 9.360015611042586 -16.819467782738442" fill="#ffdf14" stroke="none" /><line stroke="#e1ed5e" stroke-width="0.3" x1="58.666819895761336" x2="56.23545636021788" y1="174.27360380694188" y2="178.64263932499728" /><path d="M 58.180547188652646 175.14741091055294 a86.0,86.0 0 0,1 -31.652253787137756,-30.449443065178592" fill="none" id="id20" stroke="none" /><text fill="#e1ed5e" style="font-size:6.75px; font-family:Arial;" text-anchor="middle"><textPath startOffset="22.20632615414155" xlink:href="#id20">August</textPath></text><path d="M 89.4739219176387 118.17145234162733 l -9.399141279942022 16.225990961143843 a39.751710307900765,39.751710307900765 0 0,0 -0.5891433061614745,-0.3480762497705746 l 9.677052457131879 -16.06179613907952" fill="#ffd914" stroke="none" /><path d="M 88.8546689885994 117.79835938074946 l -9.316351792845662 14.877600060235366 a38.553842721192815,38.553842721192815 0 0,0 -0.5594313084842005,-0.3570555296508764 l 9.571064903376787 -14.715030101760686" fill="#ffc912" stroke="none" /><path d="M 88.54995079064634 117.60387380957326 l -8.458751827595426 13.004904785722971 a36.51380130614574,36.51380130614574 0 0,0 -0.52393010374874,-0.34723230372931935 l 8.68135663008413 -12.857374460902333" fill="#ffae10" stroke="none" /><path d="M 87.95078237400918 117.19931262002967 l -7.338835980752999 10.47561246033296 a33.79050311643283,33.79050311643283 0 0,0 -0.47350579263824777,-0.33783381068885066 l 7.518069101240134 -10.347734387799889" fill="#ff880c" stroke="none" /><path d="M 87.36589467227662 116.77436683061367 l -22.039791132670423 29.26234440346711 a57.63382580565209,57.63382580565209 0 0,0 -0.7873089947929671,-0.6036749646294346 l 22.540228855956876 -28.87863009701031" fill="#53ff2b" stroke="none" /><path d="M 86.79598089348748 116.32954008644616 l -8.54448691917305 10.567050875890738 a34.58936425759434,34.58936425759434 0 0,0 -0.4597583237592021,-0.37834980026649473 l 8.72511537147694 -10.418405956767062" fill="#ff930d" stroke="none" /><path d="M 86.51685102203217 116.09983520530335 l -11.185010535934314 13.355695074821094 a38.42065014919254,38.42065014919254 0 0,0 -0.5033736794475109,-0.4289859700839319 l 11.413249691958882 -13.161184714514212" fill="#ffc712" stroke="none" /><path d="M 85.70375840098266 115.38237550388516 l -11.895530425434085 12.799274169687736 a38.47355325551342,38.47355325551342 0 0,0 -0.48122017923237626,-0.4550237157133509 l 12.11408643905728 -12.592615817228454" fill="#ffc812" stroke="none" /><path d="M 85.44109423537348 115.13401014063109 l -18.914823578029136 19.66199496487258 a48.28304596240386,48.28304596240386 0 0,0 -0.5939965344680359,-0.5813506286751741 l 19.250470064872967 -19.333494233274834" fill="#bbff1f" stroke="none" /><path d="M 84.67929136418377 114.36230785411682 l -12.395838691704725 11.620405794026839 a37.990898966464854,37.990898966464854 0 0,0 -0.4431431983479483,-0.4809444199620759 l 12.594028298048404 -11.405310119263419" fill="#ffc112" stroke="none" /><path d="M 84.19399662182784 113.82643327865904 l -17.108849002255276 14.966108354184744 a43.73097255840959,43.73097255840959 0 0,0 -0.4907395831973307,-0.5708410025808929 l 17.363931095023386 -14.669390252442321" fill="#f3ff19" stroke="none" /><path d="M 83.95833913139862 113.55231037782056 l -11.667097233996136 9.856593043480352 a36.27329644485124,36.27329644485124 0 0,0 -0.39884044029351035,-0.4804290035005143 l 11.835033674183183 -9.654302782866077" fill="#ffaa0f" stroke="none" /><path d="M 83.72743513129214 113.27417163493432 l -9.084668092452645 7.410721326268929 a32.72390655565133,32.72390655565133 0 0,0 -0.3522994818963465,-0.4395477721873887 l 9.210885486403853 -7.25324572050328" fill="#ff790b" stroke="none" /><path d="M 83.28015986056508 112.70617746262583 l -10.511667585505592 7.988300884202097 a34.20257953752648,34.20257953752648 0 0,0 -0.3521867845216824,-0.4718117514085672 l 10.64761563672236 -7.806176253284222" fill="#ff8e0d" stroke="none" /><path d="M 83.06392112726016 112.41649034213515 l -14.232365953480349 10.434294486639548 a38.64751376448544,38.64751376448544 0 0,0 -0.38872075626196106,-0.539899131969743 l 14.409866502117916 -10.187761749218666" fill="#ffca12" stroke="none" /><path d="M 82.44556493220864 111.52570212397912 l -13.076696442036114 8.585756669158854 a36.643375831934925,36.643375831934925 0 0,0 -0.341647370349522,-0.5302443057754979 l 13.222548675762681 -8.359390763461908" fill="#ffaf10" stroke="none" /><path d="M 82.24976979558568 111.22182372390057 l -10.598012026513967 6.700139739919619 a33.538330488888256,33.538330488888256 0 0,0 -0.30429704212550024,-0.49062372219384215 l 10.711773708307422 -6.516719686360513" fill="#ff850c" stroke="none" /><line stroke="#e1ed5e" stroke-width="0.3" x1="26.63291911575756" x2="22.317208475507996" y1="142.92168965132927" y2="145.44649492493687" /><path d="M 25.769776987707644 143.4266507060508 a86.0,86.0 0 0,1 -11.730757126820373,-40.83630448921669" fill="none" id="id21" stroke="none" /><text fill="#e1ed5e" style="font-size:6.75px; font-family:Arial;" text-anchor="middle"><textPath startOffset="21.46611528233685" xlink:href="#id21">September</textPath></text><path d="M 81.87401531095188 110.60418214915194 l -12.972268003710893 7.589121096526191 a36.029121603668,36.029121603668 0 0,0 -0.3085602667049025,-0.5380008336222865 l 13.100980266568172 -7.364700417045598" fill="#ffa70f" stroke="none" /><path d="M 81.69416730710424 110.29060199501025 l -15.295261515631346 8.598213001697715 a38.546346960382294,38.546346960382294 0 0,0 -0.3201615352075,-0.5811861836058817 l 15.440999460290362 -8.333656299694011" fill="#ffc912" stroke="none" /><path d="M 81.35079622478065 109.6543875284942 l -14.638929344588028 7.578334099319265 a37.484216695880505,37.484216695880505 0 0,0 -0.29170097878383916,-0.5755537048195508 l 14.767208993158135 -7.325226182797029" fill="#ffbb11" stroke="none" /><path d="M 81.18737489456691 109.33194174019688 l -15.630946812063646 7.753680529793138 a38.44838273306887,38.44838273306887 0 0,0 -0.2889977144212282,-0.5954208900032212 l 15.762097783099593 -7.483470683824632" fill="#ffc712" stroke="none" /><path d="M 81.02952815118164 109.00673069616217 l -33.249854895599604 15.786243543003298 a57.80704193191083,57.80704193191083 0 0,0 -0.4190332908305396,-0.9025604294973782 l 33.516662803269966 -15.211563046227093" fill="#51ff2b" stroke="none" /><path d="M 80.73074385275274 108.34839909993369 l -12.094869335559894 5.240098294569011 a34.181217484777804,34.181217484777804 0 0,0 -0.22925671163730132,-0.541895144972754 l 12.183277028389503 -5.031128623930098" fill="#ff8e0d" stroke="none" /><path d="M 80.58989483394504 108.01547362559985 l -10.36960839720544 4.2821675567712685 a32.21899003010779,32.21899003010779 0 0,0 -0.2072714916349928,-0.5144308440267378 l 10.441782503097821 -4.103037344901725" fill="#ff720a" stroke="none" /><path d="M 80.20201598880116 107.00284435728193 l -13.442910008980709 4.754959214462913 a35.259083653613914,35.259083653613914 0 0,0 -0.19746626334308232,-0.573929393183962 l 13.52276710326702 -4.522857118189654" fill="#ff9d0e" stroke="none" /><path d="M 80.0844068197444 106.66101706037122 l -21.09956518765565 7.057011177589502 a43.24843944794226,43.24843944794226 0 0,0 -0.23005646751379405,-0.7080410026879005 l 21.217913906185693 -6.692771274923799" fill="#f9ff18" stroke="none" /><path d="M 79.76711848015287 105.62410040840567 l -10.268371241814126 2.854282067440498 a31.65769084183942,31.65769084183942 0 0,0 -0.1414223274500158,-0.5262850908386594 l 10.315981645605918 -2.6771060434263" fill="#ff6a09" stroke="none" /><path d="M 79.58551787078972 104.9243191809786 l -24.044340319084913 5.799902514197517 a45.733967950051344,45.733967950051344 0 0,0 -0.17801279323749167,-0.7668744542394692 l 24.140613678252958 -5.385159402609473" fill="#daff1c" stroke="none" /><path d="M 79.50377843672027 104.57218783832718 l -14.791583688662026 3.2996276334201213 a36.155147328149674,36.155147328149674 0 0,0 -0.13027209417351965,-0.6085878541654056 l 14.846189821559987 -3.044525959838552" fill="#ffa90f" stroke="none" /><path d="M 79.4281124754447 104.21870165774334 l -50.9128096189757 10.440750956059244 a72.97233363843225,72.97233363843225 0 0,0 -0.24174714962608385,-1.232663507716722 l 51.08498670157745 -9.562823721274567" fill="#3fffbc" stroke="none" /><path d="M 79.29508885075956 103.50808413554451 l -14.943776791934496 2.531960939654977 a36.15675727215748,36.15675727215748 0 0,0 -0.0986877092773671,-0.6145284598749498 l 14.985146255573154 -2.2743532500868135" fill="#ffa90f" stroke="none" /><path d="M 79.1416061653843 102.43462659150553 l -14.21826438390671 1.6595795835759795 a35.31479117852902,35.31479117852902 0 0,0 -0.06527804364387868,-0.6043936114968658 l 14.24472472905164 -1.4145896501943316" fill="#ff9d0e" stroke="none" /><path d="M 79.10278846688536 102.07522291339032 l -15.830785149955194 1.5720953021931543 a36.90865305747849,36.90865305747849 0 0,0 -0.05734093842236159,-0.6327524773474344 l 15.855500684654631 -1.2993614362971537" fill="#ffb310" stroke="none" /><path d="M 79.07016306316243 101.71520430193888 l -61.18963870517989 5.0145030684156096 a82.39476464564058,82.39476464564058 0 0,0 -0.10367396333237999,-1.4145488603228757 l 61.2668892271766 -3.9604810715959733" fill="#4be1ff" stroke="none" /><path d="M 79.0235259727143 100.99374915477108 l -11.977983131835447 0.5674504970492386 a32.99141692933475,32.99141692933475 0 0,0 -0.02199092720130812,-0.5674881165773015 l 11.985976191887957 -0.36118513345794034" fill="#ff7d0b" stroke="none" /><path d="M 79.0095281055655 100.63252640178507 l -12.316747440580219 0.3711525867291909 a33.32233832345449,33.32233832345449 0 0,0 -0.012341859936609656,-0.5734777348468255 l 12.321311363201836 -0.15908503609223648" fill="#ff820b" stroke="none" /><line stroke="#e1ed5e" stroke-width="0.3" x1="15.007084014347285" x2="10.007500721073583" y1="101.09737516637583" y2="101.16192664675087" /><path d="M 14.007167355692545 101.11028546245083 a86.0,86.0 0 0,1 10.666146001902534,-42.60595125391555" fill="none" id="id22" stroke="none" /><text fill="#e1ed5e" style="font-size:6.75px; font-family:Arial;" text-anchor="middle"><textPath startOffset="22.20632615414155" xlink:href="#id22">October</textPath></text><path d="M 79.00019446554 99.90962569577889 l -13.333692466347943 -0.057382587537164784 a34.33381594100115,34.33381594100115 0 0,0 0.0076302702199198425,-0.5909728373855854 l 13.330729189010308 0.2868916829832221" fill="#ff900d" stroke="none" /><path d="M 79.00486145842228 99.54816195383935 l -13.616402135521598 -0.2930396731828103 a34.619555035547094,34.619555035547094 0 0,0 0.017949918716030872,-0.5956704151050726 l 13.609340522349921 0.5273802357128773" fill="#ff940d" stroke="none" /><path d="M 79.01574976396665 99.18683210126434 l -23.682747261446075 -0.9177382851548576 a44.70052238684984,44.70052238684984 0 0,0 0.036412602291271925,-0.7686124839067151 l 23.663441050921303 1.3252618756845818" fill="#e7ff1a" stroke="none" /><path d="M 79.05617556472873 98.46500227214037 l -14.955027265388424 -1.0960716818171115 a35.99513966724527,35.99513966724527 0 0,0 0.05060833707927203,-0.6175498985843195 l 14.933944444489654 1.3533354976092093" fill="#ffa70f" stroke="none" /><path d="M 79.08570108090925 98.10471618934814 l -17.605630724406318 -1.5954475460721216 a38.677773787341756,38.677773787341756 0 0,0 0.06579434532839999,-0.6625400785326481 l 17.575559253395692 1.8982631553092" fill="#ffcb12" stroke="none" /><path d="M 79.16333360222342 97.38593545837743 l -17.889943460939392 -2.2443833365717416 a39.0301784127914,39.0301784127914 0 0,0 0.08936795883683686,-0.6658950967260497 l 17.848659503044722 2.5519967753624506" fill="#ffcf13" stroke="none" /><path d="M 79.21141760316559 97.0276538004421 l -12.678391774050482 -1.812753216488853 a33.80732962799824,33.80732962799824 0 0,0 0.087326113851132,-0.5753699817476046 l 12.645309766760047 2.0307223106285495" fill="#ff890c" stroke="none" /><path d="M 79.26566170972629 96.67025291283419 l -18.553990858189877 -2.9796030213483733 a39.79171655093334,39.79171655093334 0 0,0 0.11442608044884742,-0.6753492040981394 l 18.499952916220806 3.298538013762341" fill="#ffd914" stroke="none" /><path d="M 79.3925641242962 95.95851677861259 l -12.458990824403315 -2.4434288028823485 a33.696330047589385,33.696330047589385 0 0,0 0.11652624824460313,-0.5682233698954293 l 12.415085280243717 2.6575278289411806" fill="#ff870c" stroke="none" /><path d="M 79.46518482838121 95.60439243477599 l -17.334239671725474 -3.7105040586754923 a38.72692035764443,38.72692035764443 0 0,0 0.14514409553674643,-0.6506525203941456 l 17.267801189186688 4.008334748619597" fill="#ffcb12" stroke="none" /><path d="M 79.62865764111835 94.90015583598534 l -13.316442541741235 -3.3336920358773905 a34.72738666161801,34.72738666161801 0 0,0 0.15016067111586082,-0.578630320202231 l 13.257085538755067 3.562418781628485" fill="#ff950d" stroke="none" /><path d="M 79.71946130924805 94.55025226153421 l -13.007149312684685 -3.4952563948912503 a34.468583834557435,34.468583834557435 0 0,0 0.15890547214417322,-0.571667530320615 l 12.945057069974151 3.718635228630808" fill="#ff920d" stroke="none" /><path d="M 79.81627453868168 94.20196356495316 l -60.551176383954946 -17.394109305140535 a84.0,84.0 0 0,0 0.4111764115531722,-1.3862824530138431 l 60.24279407529007 18.433821144900918" fill="#4dd2ff" stroke="none" /><path d="M 80.14247586403 93.16781622104843 l -19.971542690951203 -6.871413026087723 a42.12057845873485,42.12057845873485 0 0,0 0.2417859984623422,-0.6835615769057616 l 19.850303611679053 7.214172229420095" fill="#fff717" stroke="none" /><path d="M 80.52162464483688 92.15188598940014 l -21.069762384878242 -8.489306441511886 a43.71570405717431,43.71570405717431 0 0,0 0.2872294810662393,-0.6955489712399661 l 20.920511216925803 8.850729983205165" fill="#f3ff19" stroke="none" /><path d="M 80.65960295795068 91.81776055985345 l -28.434306780764494 -12.029551714422562 a51.87425977335484,51.87425977335484 0 0,0 0.35499109759358116,-0.8193683971789887 l 28.223024973328233 12.517219256188149" fill="#92ff23" stroke="none" /><path d="M 80.95270993114464 91.15688171328213 l -14.356230381404147 -6.665191896337774 a36.82801736728129,36.82801736728129 0 0,0 0.2718991585643159,-0.5726889708670431 l 14.239373028998079 6.911323282845349" fill="#ffb210" stroke="none" /><path d="M 81.10775173730289 90.83032412892265 l -20.861378177542296 -10.125426759806912 a44.18881986075729,44.18881986075729 0 0,0 0.338023402382668,-0.6814345527358525 l 20.683994762206215 10.483020901041726" fill="#edff1a" stroke="none" /><path d="M 81.43458229118936 90.18545643968196 l -22.194743919306973 -11.73317425024946 a46.105259122947345,46.105259122947345 0 0,0 0.376947598802082,-0.6984266521615977 l 21.98948822128642 12.11348188574353" fill="#d5ff1c" stroke="none" /><path d="M 81.6062741919709 89.86733742301443 l -11.082111928941721 -6.1048697794188325 a33.65237684505381,33.65237684505381 0 0,0 0.2838695909737534,-0.5049723273221564 l 10.975384696675537 6.294725616675773" fill="#ff860c" stroke="none" /><line stroke="#e1ed5e" stroke-width="0.3" x1="26.266209847984243" x2="21.928928074336255" y1="57.711370442889674" y2="55.22380399835377" /><path d="M 25.398753493254645 57.213857153982495 a86.0,86.0 0 0,1 29.58750427330803,-30.492523968695096" fill="none" id="id23" stroke="none" /><text fill="#e1ed5e" style="font-size:6.75px; font-family:Arial;" text-anchor="middle"><textPath startOffset="21.46611528233685" xlink:href="#id23">November</textPath></text><line stroke="#e1ed5e" stroke-width="0.3" x1="56.762969772571076" x2="54.21961505331055" y1="26.818313649435495" y2="22.513508569990535" /><path d="M 56.25429882871897 25.957352633546506 a86.0,86.0 0 0,1 42.265352541879196,-11.944610805530505" fill="none" id="id24" stroke="none" /><text fill="#e1ed5e" style="font-size:6.75px; font-family:Arial;" text-anchor="middle"><textPath startOffset="22.20632615414155" xlink:href="#id24">December</textPath></text></svg>