<?xml version="1.0" encoding="utf-8" ?>
<svg baseProfile="full" height="200mm" version="1.1" viewBox="0,0,200,200" width="200mm" xmlns="http://www.w3.org/2000/svg" xmlns:ev="http://www.w3.org/2001/xml-events" xmlns:xlink="http://www.w3.org/1999/xlink"><defs /><rect fill="#1a1a1a" height="200" width="200" x="0" y="0" /><rect fill="#1a1a1a" height="200" width="180" x="10" y="0" /><text alignment-baseline="middle" fill="#e1ed5e" style="dominant-baseline: central; font-size:9.0px; font-family:Arial;" text-anchor="middle" x="100.0" y="100.0">2025</text><line stroke="#e1ed5e" stroke-width="0.3" x1="100.0" x2="100.0" y1="15.0" y2="10.0" /><path d="M 100.0 14.0 a86.0,86.0 0 0,1 42.46469731375804,11.215312516191453" fill="none" id="id97" stroke="none" /><text fill="#e1ed5e" style="font-size:6.75px; font-family:Arial;" text-anchor="middle"><textPath startOffset="22.20632615414155" xlink:href="#id97">January</textPath></text><line stroke="#e1ed5e" stroke-width="0.3" x1="143.23703022742887" x2="145.7803849466894" y1="26.81831364943548" y2="22.513508569990506" /><path d="M 143.74570117128098 25.957352633546492 a86.0,86.0 0 0,1 28.547481713284135,27.462654790039103" fill="none" id="id98" stroke="none" /><text fill="#e1ed5e" style="font-size:6.75px; font-family:Arial;" text-anchor="middle"><textPath startOffset="19.985693538727396" xlink:href="#id98">February</textPath></text><line stroke="#e1ed5e" stroke-width="0.3" x1="172.23445277983987" x2="176.4835382374775" y1="55.19839476539836" y2="52.563006222186495" /><path d="M 173.08426987136738 54.67131705675599 a86.0,86.0 0 0,1 12.851231095245387,41.99856678651699" fill="none" id="id99" stroke="none" /><text fill="#e1ed5e" style="font-size:6.75px; font-family:Arial;" text-anchor="middle"><textPath startOffset="22.20632615414155" xlink:href="#id99">March</textPath></text><line stroke="#e1ed5e" stroke-width="0.3" x1="184.98032266829074" x2="189.97916517819016" y1="98.17113171792111" y2="98.06355123074" /><path d="M 185.9800911702706 98.14961562048488 a86.0,86.0 0 0,1 -9.607161424134198,41.387399972396054" fill="none" id="id100" stroke="none" /><text fill="#e1ed5e" style="font-size:6.75px; font-family:Arial;" text-anchor="middle"><textPath startOffset="21.466115282336823" xlink:href="#id100">April</textPath></text><path d="M 120.99824983174949 100.27111621757518 l 6.179448001070924 0.079785152675903 a27.179963047504973,27.179963047504973 0 0,0 -0.010066859467014638,0.46776740246745924 l -6.177159078918902 -0.18614237093347707" fill="#ff1f03" stroke="none" /><path d="M 120.95626037817324 101.35467743843564 l 13.981962076505056 0.9038372413921706 a35.011145037710264,35.011145037710264 0 0,0 -0.044053092238014395,0.601069443242969 l -13.964332425602702 -1.1443798211319098" fill="#ff910d" stroke="none" /><path d="M 120.8583938346157 102.4346265915055 l 10.159382364685113 1.1858200901972855 a31.22835369539939,31.22835369539939 0 0,0 -0.06691565642850408,0.5333836206368278 l -10.137465199009762 -1.360521465121508" fill="#ff5b08" stroke="none" /><path d="M 120.76222939487914 103.15116336523771 l 5.154705172109775 0.7823494186496145 a26.21373724157985,26.21373724157985 0 0,0 -0.07154883001531026,0.4455346328040286 l -5.140474587733177 -0.8709632811468481" fill="#ff1001" stroke="none" /><path d="M 120.64145759157962 103.86396538481128 l 14.125148527520652 2.644148782783758 a35.37050255593087,35.37050255593087 0 0,0 -0.11717753492859781,0.5974857261154592 l -14.07754105961639 -2.886898235967162" fill="#ff960d" stroke="none" /><path d="M 120.49622156327973 104.57218783832717 l 9.365848326675515 2.089283514165444 a30.596052338376133,30.596052338376133 0 0,0 -0.11909066680466909,0.5130394757021889 l -9.328497093940292 -2.250191647216198" fill="#ff5207" stroke="none" /><path d="M 120.23288151984713 105.62410040840565 l 13.24251868437364 3.6810008830451593 a34.74460143499855,34.74460143499855 0 0,0 -0.16513176436526913,0.5748453350077628 l -13.177194283122272 -3.9084036935575037" fill="#ff8d0d" stroke="none" /><path d="M 119.9155931802556 106.66101706037122 l 7.518335715277874 2.5146005952116695 a28.927710141084987,28.927710141084987 0 0,0 -0.1620078072575277,0.47087052206396734 l -7.473937077077116 -2.6436438203649373" fill="#ff3905" stroke="none" /><path d="M 119.54520255179757 107.68017299344265 l 9.520515724707575 3.7410309542082705 a31.229151101863177,31.229151101863177 0 0,0 -0.20090365108678987,0.4986263860089057 l -9.454709459363393 -3.9043567080599897" fill="#ff5b08" stroke="none" /><path d="M 119.41010516605496 108.01547362559984 l 17.900533835206435 7.392090646225836 a40.36677866108326,40.36677866108326 0 0,0 -0.270743865087658,0.6399585206223873 l -17.770638988926468 -7.699123692514386" fill="#ffda14" stroke="none" /><path d="M 119.12269723197855 108.67885076344098 l 7.502158930585864 3.4048605681675617 a29.23865669320136,29.23865669320136 0 0,0 -0.21194598658148603,0.45651279949639195 l -7.442438327164546 -3.533493434942784" fill="#ff3e05" stroke="none" /><path d="M 118.64920377521936 109.65438752849418 l 3.687186962802255 1.9087963356486906 a25.151969550664454,25.151969550664454 0 0,0 -0.2023505794661249,0.38277103854300515 l -3.653783875111237 -1.97198238927783" fill="#ff0000" stroke="none" /><line stroke="#e1ed5e" stroke-width="0.3" x1="174.80103733775053" x2="179.2010983576182" y1="140.37084112569926" y2="142.7455964860345" /><path d="M 175.68104954172406 140.8457921977663 a86.0,86.0 0 0,1 -30.038265399797805,32.042727171017184" fill="none" id="id101" stroke="none" /><text fill="#e1ed5e" style="font-size:6.75px; font-family:Arial;" text-anchor="middle"><textPath startOffset="22.206326154141568" xlink:href="#id101">May</textPath></text><path d="M 117.55443506779139 111.5257021239791 l 21.91005873437354 14.38547065263365 a47.210540620931155,47.210540620931155 0 0,0 -0.45186533603277007,0.6754773674750989 l -21.65919029293005 -14.760484934314556" fill="#cdff1d" stroke="none" /><path d="M 116.93607887273984 112.41649034213515 l 17.46048117329742 12.800949823529448 a42.65023600766496,42.65023600766496 0 0,0 -0.43917300045013546,0.5883440027289806 l -17.237546906152193 -13.099606705767744" fill="#fff717" stroke="none" /><path d="M 116.0416608686014 113.55231037782055 l 8.825119435659284 7.455634344414277 a32.552887800513815,32.552887800513815 0 0,0 -0.36530151644252845,0.42492819212124544 l -8.695475409645976 -7.606439635697051" fill="#ff6e0a" stroke="none" /><path d="M 115.32070863581623 114.36230785411682 l 17.606521807680853 16.505129916183 a45.13314989209698,45.13314989209698 0 0,0 -0.536210724462352,0.5622148008565503 l -17.319804531839537 -16.805751833622057" fill="#e7ff1a" stroke="none" /><path d="M 114.81725581225074 114.88116024355365 l 31.410790964948426 31.546260633477072 a65.51746116973598,65.51746116973598 0 0,0 -0.806020914924683,0.7888611101686728 l -30.86312009764795 -32.08227184656832" fill="#35ff64" stroke="none" /><path d="M 114.0293411484842 115.62618273729858 l 14.06923428315583 15.67061657105775 a42.05971455246811,42.05971455246811 0 0,0 -0.5428860601910742,0.479033827838746 l -13.797405870058167 -15.910473540668784" fill="#fff016" stroke="none" /><path d="M 113.48314897796784 116.09983520530334 l 17.132312224126583 20.457194676477886 a47.68357052900291,47.68357052900291 0 0,0 -0.6338051862995588,0.5215785190871411 l -16.777636909282332 -20.749068314422207" fill="#c8ff1d" stroke="none" /><path d="M 112.92097659922987 116.55440617244103 l 13.115443293732337 16.80355766831152 a42.31605974619558,42.31605974619558 0 0,0 -0.5780600887874482,0.44323182633549774 l -12.824254476451395 -17.02682883647439" fill="#fff316" stroke="none" /><path d="M 112.34349029814194 116.9893568818739 l 7.307091610569778 10.057348784014827 a33.43156677046718,33.43156677046718 0 0,0 -0.4684760232258958,0.33424520376179556 l -7.1328882594949965 -10.181638249620843" fill="#ff7b0b" stroke="none" /><path d="M 111.45004920935366 117.60387380957326 l 12.11535909182279 18.626754235770967 a43.220213754228936,43.220213754228936 0 0,0 -0.6271421738254815,0.40027180754039465 l -11.792935115950378 -18.83254047213517" fill="#ffff18" stroke="none" /><line stroke="#e1ed5e" stroke-width="0.3" x1="143.8653032363475" x2="146.44561519142675" y1="172.8068346515853" y2="177.08958963109032" /><path d="M 144.38136562736335 173.6633856474863 a86.0,86.0 0 0,1 -40.68145358897372,12.25698825130547" fill="none" id="id102" stroke="none" /><text fill="#e1ed5e" style="font-size:6.75px; font-family:Arial;" text-anchor="middle"><textPath startOffset="21.466115282336833" xlink:href="#id102">June</textPath></text><path d="M 110.8373102113329 117.98757091392108 l 23.204071446800775 38.51369689542964 a65.96369402374833,65.96369402374833 0 0,0 -0.9776200440877896,0.5775951539935765 l -22.537683531684603 -38.90741062171696" fill="#35ff69" stroke="none" /><path d="M 109.89434966115114 118.52300852407294 l 9.991278419806484 18.704466859818854 a42.20572387286396,42.20572387286396 0 0,0 -0.6437560629491902,0.3367827463445073 l -9.667831454330798 -18.87367902510808" fill="#fff216" stroke="none" /><path d="M 109.2508944713604 118.85261126421891 l 11.089553475580425 22.599656867358146 a46.17384926486385,46.17384926486385 0 0,0 -0.7165463116707569,0.3439857740496134 l -10.698894495909435 -22.78719691790732" fill="#daff1c" stroke="none" /><path d="M 108.59647513512805 119.15986991738527 l 11.525251884322792 25.68754325437073 a49.15459659526759,49.15459659526759 0 0,0 -0.7749557465824508,0.33971782545166884 l -11.081375463082587 -25.882125633116857" fill="#b6ff1f" stroke="none" /><path d="M 108.2653958097858 119.30500536409082 l 4.147348434615868 9.686721074170539 a31.537222793833788,31.537222793833788 0 0,0 -0.5008839947586088,0.20936955043199326 l -3.979992980359798 -9.756675667622506" fill="#ff5f08" stroke="none" /><path d="M 107.59598834532513 119.57807347666477 l 5.551512931738514 14.308595951325039 a36.347808114826535,36.347808114826535 0 0,0 -0.5852512539863899,0.22129194629852258 l -5.3043914569918496 -14.402036147730191" fill="#ffa30f" stroke="none" /><path d="M 107.2578585660854 119.70592522655815 l 7.291891944871578 19.798329785211486 a42.098472703484376,42.098472703484376 0 0,0 -0.6821565137313704,0.24459705585782124 l -6.950015870510473 -19.920914382109267" fill="#fff016" stroke="none" /><path d="M 106.91757812671514 119.82793768551818 l 6.508532601426716 18.655485558864687 a40.75824228166168,40.75824228166168 0 0,0 -0.6644180935852595,0.2254066913273723 l -6.1864447749042295 -18.764755237090185" fill="#ffdf14" stroke="none" /><path d="M 106.2309692047433 120.05430185196036 l 7.47692519970504 24.064396717812222 a46.19919839666008,46.19919839666008 0 0,0 -0.7614618440897202,0.2294222072574786 l -7.061588381175074 -24.189534294175427" fill="#daff1c" stroke="none" /><path d="M 105.88484417918355 120.15858648285463 l 3.8671010472135183 13.246789298847117 a34.799706418522476,34.799706418522476 0 0,0 -0.5764634867673365,0.16291433949858233 l -3.638506392341576 -13.311392431684219" fill="#ff8e0d" stroke="none" /><path d="M 104.83641907484287 120.43548508189849 l 4.969745352946937 20.998833113791147 a42.57891009791712,42.57891009791712 0 0,0 -0.714676565253742,0.1626580594646204 l -4.607548638300333 -21.081267906833453" fill="#fff617" stroke="none" /><path d="M 104.48393922423573 120.51570834832081 l 4.402941849278902 20.145114894999185 a41.620658356629875,41.620658356629875 0 0,0 -0.7012259194050648,0.14694870930323858 l -4.055524468444459 -20.217919585028962" fill="#ffea16" stroke="none" /><path d="M 103.7750983002368 120.6578951692458 l 8.42155923096013 46.08401528083534 a67.84718907559807,67.84718907559807 0 0,0 -1.150659341524026,0.20005687575786157 l -7.627050917964054 -46.222150735114205" fill="#38ff80" stroke="none" /><path d="M 102.70371172650421 120.8252237178851 l 2.7065259981298033 20.846900524488174 a42.021858729818774,42.021858729818774 0 0,0 -0.7181187014543292,0.08695417395629863 l -2.347279873624094 -20.890400227169824" fill="#ffef16" stroke="none" /><path d="M 101.98527174616119 120.90594882070398 l 2.4581146082130463 25.8852312254457 a47.00168308056037,47.00168308056037 0 0,0 -0.8060915827226217,0.06955297361379564 l -2.012178707748883 -25.923708451338157" fill="#d0ff1d" stroke="none" /><path d="M 101.26447882468166 120.96189622390904 l 1.2921966438690138 21.421388338776673 a42.460327362999465,42.460327362999465 0 0,0 -0.7299373712910677,0.03772942445398745 l -0.9232712041644665 -21.440457569992862" fill="#fff517" stroke="none" /><path d="M 100.90346689309514 120.98055641714683 l 1.0859692921603363 25.218677270401738 a46.242048501898424,46.242048501898424 0 0,0 -0.7955386200290254,0.027399958604736666 l -0.6517103204566586 -25.23363402743257" fill="#d9ff1c" stroke="none" /><line stroke="#e1ed5e" stroke-width="0.3" x1="102.19456741930631" x2="102.32365962044197" y1="184.97166512339345" y2="189.96999836594603" /><path d="M 102.22038585953345 185.97133177190398 a86.0,86.0 0 0,1 -42.740103519485714,-10.115201625700543" fill="none" id="id103" stroke="none" /><text fill="#e1ed5e" style="font-size:6.75px; font-family:Arial;" text-anchor="middle"><textPath startOffset="22.20632615414155" xlink:href="#id103">July</textPath></text><path d="M 100.18074693466247 120.99922214144158 l 0.24851810236771832 28.87289263043334 a49.8739621475082,49.8739621475082 0 0,0 -0.8585300740603277,0.0 l 0.24851810236769845 -28.87289263043334" fill="#adff20" stroke="none" /><path d="M 99.45781275523022 120.99299961872073 l -0.5652486409356897 21.885916015386748 a42.89321415093366,42.89321415093366 0 0,0 -0.737925967809216,-0.025415662372990193 l 0.9418949604195488 -21.872943554587664" fill="#fffb17" stroke="none" /><path d="M 98.73552117531835 120.96189622390904 l -3.021083506771032 50.08200826822169 a71.17304552977734,71.17304552977734 0 0,0 -1.222269078419734,-0.08429483181635107 l 3.882715345969696 -50.022585091889056" fill="#3cffa6" stroke="none" /><path d="M 97.65516085044442 120.86867818915974 l -2.4188637722003214 21.527485011086018 a42.662952542324334,42.662952542324334 0 0,0 -0.7290744628142959,-0.08828076408296423 l 2.7890656580660065 -21.482658718277705" fill="#fff817" stroke="none" /><path d="M 97.2962882734958 120.8252237178851 l -1.8363865324717947 14.144688576205374 a35.26339827721566,35.26339827721566 0 0,0 -0.6012768905077374,-0.0833314981768645 l 2.079592014166363 -14.110982512535903" fill="#ff940d" stroke="none" /><path d="M 96.93821686468263 120.77559828337769 l -4.327389540576591 29.363316321680237 a50.68047583248868,50.68047583248868 0 0,0 -0.8619642086962018,-0.13462108220906274 l 4.83218961288131 -29.28447693212407" fill="#a4ff21" stroke="none" /><path d="M 96.22490169976321 120.6578951692458 l -5.496970339554083 30.080233146733928 a51.57837649509548,51.57837649509548 0 0,0 -0.8719997163606173,-0.16712082101732456 l 6.013937670486396 -29.981155127368137" fill="#99ff23" stroke="none" /><path d="M 95.86986931433489 120.58985236759428 l -2.986987680168311 14.890965937699969 a36.18759236874686,36.18759236874686 0 0,0 -0.6096894843035906,-0.12776635933563993 l 3.242868625901288 -14.837343597637787" fill="#ffa10e" stroke="none" /><path d="M 95.16358092515715 120.4354850818985 l -5.040207895439003 21.29656087758638 a42.8848623674445,42.8848623674445 0 0,0 -0.7168852413490903,-0.17619295059233914 l 5.406046421531303 -21.206646668680012" fill="#fffa17" stroke="none" /><path d="M 94.81253420990036 120.34920634021253 l -4.1536764923955705 16.293894443711437 a37.81499403943665,37.81499403943665 0 0,0 -0.6293667534195083,-0.1662214798035 l 4.433533688626568 -16.219981614604354" fill="#ffb711" stroke="none" /><path d="M 94.46302465271185 120.25689768951611 l -7.6147826423203595 27.858508163474983 a49.88046730550227,49.88046730550227 0 0,0 -0.8262790426648129,-0.2335147109353506 l 8.093192853089786 -27.723304659201112" fill="#adff20" stroke="none" /><path d="M 93.76903079525671 120.05430185196036 l -7.093295811265434 22.829689996874833 a44.90626676876845,44.90626676876845 0 0,0 -0.7362032914351907,-0.2357090453838649 l 7.485220447791565 -22.704208104831263" fill="#eaff1a" stroke="none" /><path d="M 93.42475214034765 119.94407469862007 l -4.440129212914105 13.467822139037372 a35.180866708213514,35.180866708213514 0 0,0 -0.5734988331296473,-0.1945619418012943 l 4.6712977789809775 -13.389397210337954" fill="#ff930d" stroke="none" /><path d="M 93.08242187328487 119.8279376855182 l -4.66951437127409 13.384285407300489 a35.175452738012005,35.175452738012005 0 0,0 -0.569977072035191,-0.20437349921893305 l 4.8992110039390075 -13.301924367041597" fill="#ff930d" stroke="none" /><path d="M 92.40401165467489 119.57807347666478 l -6.962025554388143 17.944083331054006 a40.247335566559954,40.247335566559954 0 0,0 -0.6437253220132576,-0.25615159060565185 l 7.269871952443259 -17.82158489604229" fill="#ffd814" stroke="none" /><path d="M 92.06813273071674 119.44442032107085 l -5.212076734494946 12.777043201877982 a34.79922377776808,34.79922377776808 0 0,0 -0.5526921103438187,-0.23102534694837443 l 5.431240304336227 -12.685432811909635" fill="#ff8e0d" stroke="none" /><path d="M 91.7346041902142 119.30500536409082 l -13.375166903530687 31.239601195210227 a54.982462720248556,54.982462720248556 0 0,0 -0.866836031575032,-0.3799954422797334 l 13.910923609763461 -31.00474119963604" fill="#73ff27" stroke="none" /><path d="M 90.10565033884886 118.52300852407294 l -10.99342377127082 20.580562563250304 a44.332700693117424,44.332700693117424 0 0,0 -0.6700089470595608,-0.3653422994133466 l 11.346055530199022 -20.38827961207719" fill="#f1ff19" stroke="none" /><line stroke="#e1ed5e" stroke-width="0.3" x1="58.666819895761336" x2="56.23545636021788" y1="174.27360380694188" y2="178.64263932499728" /><path d="M 58.180547188652646 175.14741091055294 a86.0,86.0 0 0,1 -31.652253787137756,-30.449443065178592" fill="none" id="id104" stroke="none" /><text fill="#e1ed5e" style="font-size:6.75px; font-family:Arial;" text-anchor="middle"><textPath startOffset="22.20632615414155" xlink:href="#id104">August</textPath></text><path d="M 89.4739219176387 118.17145234162733 l -11.393483016480719 19.66887686174905 a43.73051192229251,43.73051192229251 0 0,0 -0.6481114441235151,-0.3829156650760169 l 11.730362331632616 -19.469842624379286" fill="#f9ff18" stroke="none" /><path d="M 88.8546689885994 117.79835938074946 l -11.293126974680552 18.034379797441428 a42.278476720494375,42.278476720494375 0 0,0 -0.6134772018319116,-0.391550175878326 l 11.601885978559388 -17.837315192739297" fill="#fff316" stroke="none" /><path d="M 88.54995079064634 117.60387380957326 l -10.25355853454394 15.764329675869869 a39.80557238562098,39.80557238562098 0 0,0 -0.5711631471869285,-0.37853578938101323 l 10.52339638047083 -15.585495865397537" fill="#ffd213" stroke="none" /><path d="M 87.95078237400918 117.19931262002967 l -8.896015137668268 12.69836350994541 a36.50443553181915,36.50443553181915 0 0,0 -0.5115360852055457,-0.3649674146687238 l 9.1132785507227 -12.54335183343247" fill="#ffa60f" stroke="none" /><path d="M 87.36589467227662 116.77436683061367 l -26.71626890987767 35.471328077044156 a65.40691545259811,65.40691545259811 0 0,0 -0.893493571485992,-0.6850927700950121 l 27.322891209857147 -35.006195965121776" fill="#35ff62" stroke="none" /><path d="M 86.79598089348748 116.32954008644616 l -10.357485189193826 12.809203639238355 a37.47280174456812,37.47280174456812 0 0,0 -0.49808468257293625,-0.4098897843249739 l 10.57644000031145 -12.629018736056201" fill="#ffb310" stroke="none" /><path d="M 86.51685102203217 116.09983520530335 l -13.558284079874117 16.189551840549417 a42.117022895957774,42.117022895957774 0 0,0 -0.551802239165359,-0.47025783931064824 l 13.834951795616533 -15.953769611015817" fill="#fff116" stroke="none" /><path d="M 85.70375840098266 115.38237550388516 l -14.419564493986298 15.515067656959094 a42.18115116315089,42.18115116315089 0 0,0 -0.5275941368906595,-0.49887318719575124 l 14.684494465267774 -15.264559833017412" fill="#fff116" stroke="none" /><path d="M 85.44109423537348 115.13401014063109 l -22.928235120361276 23.833943871071064 a54.07205536678865,54.07205536678865 0 0,0 -0.6652151466261209,-0.6510530302027441 l 23.335100219363188 -23.43574073794575" fill="#7dff26" stroke="none" /><path d="M 84.67929136418377 114.36230785411682 l -15.026029868320434 14.086062983370288 a41.596085646916805,41.596085646916805 0 0,0 -0.48519574250140823,-0.5265841511623167 l 15.26627201881757 -13.825327577406627" fill="#ffea16" stroke="none" /><path d="M 84.19399662182784 113.82643327865904 l -20.73906272211401 18.14166808196609 a48.554107559273376,48.554107559273376 0 0,0 -0.544863768449945,-0.6337996577033851 l 21.048269000134734 -17.781991325101174" fill="#bdff1f" stroke="none" /><path d="M 83.95833913139862 113.55231037782056 l -14.142661571737133 11.947998449699668 a39.514036385583665,39.514036385583665 0 0,0 -0.4344737648468389,-0.5233516384117782 l 14.346231336477507 -11.70278555417413" fill="#ffce13" stroke="none" /><path d="M 83.72743513129214 113.27417163493432 l -11.012283839440487 8.983153360073478 a35.21152488830813,35.21152488830813 0 0,0 -0.379080717451473,-0.47296148134562405 l 11.16528246894682 -8.792264045149594" fill="#ff940d" stroke="none" /><path d="M 83.28015986056508 112.70617746262583 l -12.742068934098157 9.683285711315099 a37.003947728240945,37.003947728240945 0 0,0 -0.3810327040017194,-0.5104555744848668 l 12.906862904794961 -9.462517257320924" fill="#ffac10" stroke="none" /><path d="M 83.06392112726016 112.41649034213515 l -17.25223772530814 12.648278548188758 a42.39202320406177,42.39202320406177 0 0,0 -0.42638342584666633,-0.5922092859527281 l 17.467400943530414 -12.349435656784891" fill="#fff417" stroke="none" /><path d="M 82.44556493220864 111.52570212397912 l -15.851354329778871 10.40751169497272 a39.96264047460673,39.96264047460673 0 0,0 -0.37259479293045855,-0.5782753928732318 l 16.028153986086377 -10.133114702178041" fill="#ffd413" stroke="none" /><path d="M 82.24976979558568 111.22182372390057 l -12.846734232011682 8.121798158064562 a36.198756059239905,36.198756059239905 0 0,0 -0.3284353823485257,-0.5295424124482081 l 12.984634254028164 -7.8994594142510905" fill="#ffa10e" stroke="none" /><line stroke="#e1ed5e" stroke-width="0.3" x1="26.63291911575756" x2="22.317208475507996" y1="142.92168965132927" y2="145.44649492493687" /><path d="M 25.769776987707644 143.4266507060508 a86.0,86.0 0 0,1 -11.730757126820373,-40.83630448921669" fill="none" id="id105" stroke="none" /><text fill="#e1ed5e" style="font-size:6.75px; font-family:Arial;" text-anchor="middle"><textPath startOffset="21.46611528233685" xlink:href="#id105">September</textPath></text><path d="M 81.87401531095188 110.60418214915194 l -15.724767910545541 9.199406599814406 a39.218051696853635,39.218051696853635 0 0,0 -0.3358708720224763,-0.58561917601125 l 15.880790778720394 -8.92736757794485" fill="#ffca12" stroke="none" /><path d="M 81.69416730710424 110.29060199501025 l -18.540662079722658 10.422611054478258 a42.26939048368331,42.26939048368331 0 0,0 -0.3510847075457114,-0.6373207236423172 l 18.717323196719885 -10.101919812438119" fill="#fff216" stroke="none" /><path d="M 81.35079622478065 109.6543875284942 l -17.745067118307407 9.186330780884205 a40.98189381037381,40.98189381037381 0 0,0 -0.3189197905318691,-0.6292590026477543 l 17.900565578625542 -8.879517566533766" fill="#ffe215" stroke="none" /><path d="M 81.18737489456691 109.33194174019688 l -18.947574223063402 9.398882812830779 a42.150639873720664,42.150639873720664 0 0,0 -0.31682577312726573,-0.6527549333363807 l 19.106553252805387 -9.071338923529114" fill="#fff116" stroke="none" /><path d="M 81.02952815118164 109.00673069616217 l -40.30492209558522 19.13582234209655 a65.61688516514208,65.61688516514208 0 0,0 -0.47564549933527833,-1.0244980901580816 l 40.62834221176033 -18.43920418465964" fill="#35ff65" stroke="none" /><path d="M 80.73074385275274 108.34839909993369 l -14.66119981144757 6.351960157388959 a36.978053002548435,36.978053002548435 0 0,0 -0.24801535632513466,-0.5862350398007313 l 14.768366148965011 -6.098650591922069" fill="#ffac0f" stroke="none" /><path d="M 80.58989483394504 108.01547362559985 l -12.569867144485018 5.190772420445961 a34.59947345858899,34.59947345858899 0 0,0 -0.22258563868220332,-0.5524393010938555 l 12.657355397424608 -4.9736337515093005" fill="#ff8b0c" stroke="none" /><path d="M 80.20201598880116 107.00284435728193 l -16.29527233580908 5.763882618687042 a38.28462447784699,38.28462447784699 0 0,0 -0.21441061297572003,-0.623177604690656 l 16.39207377972803 -5.482532310907089" fill="#ffbe11" stroke="none" /><path d="M 80.0844068197444 106.66101706037122 l -25.576542628813993 8.554391790084525 a47.96918893370368,47.96918893370368 0 0,0 -0.25516810077906105,-0.7853266629799954 l 25.720002980609305 -8.112866227126727" fill="#c4ff1e" stroke="none" /><path d="M 79.76711848015287 105.62410040840567 l -12.447149145443 3.4599133358094822 a33.9190759011709,33.9190759011709 0 0,0 -0.1515244647141994,-0.5638789016859923 l 12.504861686498973 -3.2451435009479512" fill="#ff810b" stroke="none" /><path d="M 79.58551787078972 104.9243191809786 l -29.14615015443904 7.03054553864104 a50.9821053196071,50.9821053196071 0 0,0 -0.19844040173778654,-0.8548760570185545 l 29.26285112210738 -6.527800824273911" fill="#a0ff22" stroke="none" /><path d="M 79.50377843672027 104.57218783832718 l -17.9301121798505 3.999753837332949 a39.37081798781107,39.37081798781107 0 0,0 -0.14185860901203828,-0.6627161941415587 l 17.99630482758698 -3.6905238237752265" fill="#ffcc13" stroke="none" /><path d="M 79.4281124754447 104.21870165774334 l -61.715662573665874 12.656104973230022 a84.0,84.0 0 0,0 -0.2782802680973342,-1.4189450917281805 l 61.92437277473888 -11.591896154433886" fill="#4dd2ff" stroke="none" /><path d="M 79.29508885075956 103.50808413554451 l -18.114598132951425 3.069201015832533 a39.372769535209294,39.372769535209294 0 0,0 -0.10746562265216258,-0.6691885348389748 l 18.164745509964877 -2.7569332513003446" fill="#ffcc13" stroke="none" /><path d="M 79.1416061653843 102.43462659150553 l -17.235144036783016 2.011714819131616 a38.35215221470152,38.35215221470152 0 0,0 -0.07089248959314519,-0.6563764080761155 l 17.267218827877212 -1.7147420891707181" fill="#ffbf11" stroke="none" /><line stroke="#e1ed5e" stroke-width="0.3" x1="15.007084014347285" x2="10.007500721073583" y1="101.09737516637583" y2="101.16192664675087" /><path d="M 14.007167355692545 101.11028546245083 a86.0,86.0 0 0,1 10.666146001902534,-42.60595125391555" fill="none" id="id106" stroke="none" /><text fill="#e1ed5e" style="font-size:6.75px; font-family:Arial;" text-anchor="middle"><textPath startOffset="22.20632615414155" xlink:href="#id106">October</textPath></text><line stroke="#e1ed5e" stroke-width="0.3" x1="26.266209847984243" x2="21.928928074336255" y1="57.711370442889674" y2="55.22380399835377" /><path d="M 25.398753493254645 57.213857153982495 a86.0,86.0 0 0,1 29.58750427330803,-30.492523968695096" fill="none" id="id107" stroke="none" /><text fill="#e1ed5e" style="font-size:6.75px; font-family:Arial;" text-anchor="middle"><textPath startOffset="21.46611528233685" xlink:href="#id107">November</textPath></text><line stroke="#e1ed5e" stroke-width="0.3" x1="56.762969772571076" x2="54.21961505331055" y1="26.818313649435495" y2="22.513508569990535" /><path d="M 56.25429882871897 25.957352633546506 a86.0,86.0 0 0,1 42.265352541879196,-11.944610805530505" fill="none" id="id108" stroke="none" /><text fill="#e1ed5e" style="font-size:6.75px; font-family:Arial;" text-anchor="middle"><textPath startOffset="22.20632615414155" xlink:href="#id108">December</textPath></text></svg>