<?xml version="1.0" encoding="utf-8" ?>
<svg baseProfile="full" height="200mm" version="1.1" viewBox="0,0,200,200" width="200mm" xmlns="http://www.w3.org/2000/svg" xmlns:ev="http://www.w3.org/2001/xml-events" xmlns:xlink="http://www.w3.org/1999/xlink"><defs /><rect fill="#1a1a1a" height="200" width="200" x="0" y="0" /><text alignment-baseline="middle" fill="#e1ed5e" style="dominant-baseline: central; font-size:9.0px; font-family:Arial;" text-anchor="middle" x="100.0" y="100.0">2025</text><line stroke="#e1ed5e" stroke-width="0.3" x1="100.0" x2="100.0" y1="15.0" y2="10.0" /><path d="M 100.0 14.0 a86.0,86.0 0 0,1 42.46469731375804,11.215312516191453" fill="none" id="id13" stroke="none" /><text fill="#e1ed5e" style="font-size:6.75px; font-family:Arial;" text-anchor="middle"><textPath startOffset="22.20632615414155" xlink:href="#id13">January</textPath></text><line stroke="#e1ed5e" stroke-width="0.3" x1="143.23703022742887" x2="145.7803849466894" y1="26.81831364943548" y2="22.513508569990506" /><path d="M 143.74570117128098 25.957352633546492 a86.0,86.0 0 0,1 28.547481713284135,27.462654790039103" fill="none" id="id14" stroke="none" /><text fill="#e1ed5e" style="font-size:6.75px; font-family:Arial;" text-anchor="middle"><textPath startOffset="19.985693538727396" xlink:href="#id14">February</textPath></text><line stroke="#e1ed5e" stroke-width="0.3" x1="172.23445277983987" x2="176.4835382374775" y1="55.19839476539836" y2="52.563006222186495" /><path d="M 173.08426987136738 54.67131705675599 a86.0,86.0 0 0,1 12.851231095245387,41.99856678651699" fill="none" id="id15" stroke="none" /><text fill="#e1ed5e" style="font-size:6.75px; font-family:Arial;" text-anchor="middle"><textPath startOffset="22.20632615414155" xlink:href="#id15">March</textPath></text><line stroke="#e1ed5e" stroke-width="0.3" x1="184.98032266829074" x2="189.97916517819016" y1="98.17113171792111" y2="98.06355123074" /><path d="M 185.9800911702706 98.14961562048488 a86.0,86.0 0 0,1 -9.607161424134198,41.387399972396054" fill="none" id="id16" stroke="none" /><text fill="#e1ed5e" style="font-size:6.75px; font-family:Arial;" text-anchor="middle"><textPath startOffset="21.466115282336823" xlink:href="#id16">April</textPath></text><path d="M 120.99824983174949 100.27111621757518 l 8.658212642890291 0.11178940537952865 a29.658934290122566,29.658934290122566 0 0,0 -0.010985015797050296,0.510430519298194 l -8.655005564408233 -0.2608097404678376" fill="#ff2c04" stroke="none" /><path d="M 120.95626037817324 101.35467743843564 l 19.590552554569374 1.2663938638500656 a40.631441689589224,40.631441689589224 0 0,0 -0.05112488170801168,0.6975583919981891 l -19.565851114197027 -1.603425392345025" fill="#ffcc13" stroke="none" /><path d="M 120.8583938346157 102.4346265915055 l 14.23461979429701 1.6614886144134735 a35.33125762464753,35.33125762464753 0 0,0 -0.07570729854856802,0.6034616585075798 l -14.203910986501596 -1.9062680272084482" fill="#ff810b" stroke="none" /><path d="M 120.76222939487914 103.15116336523771 l 7.222414280984025 1.0961735783739974 a28.30512590994072,28.30512590994072 0 0,0 -0.07725715046384007,0.4810803496860412 l -7.202475376158897 -1.2203331577532437" fill="#ff1702" stroke="none" /><path d="M 120.64145759157962 103.86396538481128 l 19.791175448436103 3.704797324423434 a41.13494844408187,41.13494844408187 0 0,0 -0.13627433906177985,0.6948599189669448 l -19.72447117639866 -4.044920970458324" fill="#ffd313" stroke="none" /><path d="M 120.49622156327973 104.57218783832717 l 13.122775105375322 2.9273587112950095 a34.44532095157468,34.44532095157468 0 0,0 -0.13407338290105647,0.5775846245113142 l -13.070441156543712 -3.152811993154889" fill="#ff740a" stroke="none" /><path d="M 120.23288151984713 105.62410040840565 l 18.554495915635872 5.157562354849261 a40.257979336563494,40.257979336563494 0 0,0 -0.1913353696131571,0.666063522465714 l -18.462967909136616 -5.4761833528195565" fill="#ffc712" stroke="none" /><path d="M 119.9155931802556 106.66101706037122 l 10.534168963349343 3.5232834164973865 a32.107755929140595,32.107755929140595 0 0,0 -0.17981745214779907,0.522633686625077 l -10.471960680258313 -3.7040898062117638" fill="#ff5207" stroke="none" /><path d="M 119.54520255179757 107.68017299344265 l 13.339484303486874 5.241672314348553 a35.33237489511005,35.33237489511005 0 0,0 -0.22730054668605262,0.5641413160926241 l -13.247281142543429 -5.470512998283991" fill="#ff810b" stroke="none" /><path d="M 119.41010516605496 108.01547362559984 l 25.08098269288939 10.35728315529991 a48.13538293815063,48.13538293815063 0 0,0 -0.3228486407986186,0.7631188189011742 l -24.89898307089846 -10.787476499867248" fill="#cfff1d" stroke="none" /><path d="M 119.12269723197855 108.67885076344098 l 10.511503178036905 4.770653756367557 a32.54343260581634,32.54343260581634 0 0,0 -0.23590173798892944,0.5081113568243321 l -10.427826823208145 -4.95088518047072" fill="#ff5808" stroke="none" /><path d="M 118.64920377521936 109.65438752849418 l 5.166229859447331 2.6744726330170576 a26.817450887235953,26.817450887235953 0 0,0 -0.21574957443812526,0.40811688748693503 l -5.119427776784312 -2.763004535590127" fill="#ff0000" stroke="none" /><line stroke="#e1ed5e" stroke-width="0.3" x1="174.80103733775053" x2="179.2010983576182" y1="140.37084112569926" y2="142.7455964860345" /><path d="M 175.68104954172406 140.8457921977663 a86.0,86.0 0 0,1 -30.038265399797805,32.042727171017184" fill="none" id="id17" stroke="none" /><text fill="#e1ed5e" style="font-size:6.75px; font-family:Arial;" text-anchor="middle"><textPath startOffset="22.206326154141568" xlink:href="#id17">May</textPath></text><path d="M 117.55443506779139 111.5257021239791 l 30.698850044137536 20.15592069987067 a57.72438608461574,57.72438608461574 0 0,0 -0.5524963021466833,0.8259070080266203 l -30.34735063658013 -20.681364622103096" fill="#5dff2a" stroke="none" /><path d="M 116.93607887273984 112.41649034213515 l 24.464411516917377 17.935800347195897 a51.33480451500474,51.33480451500474 0 0,0 -0.5285987191799855,0.7081443667097114 l -24.1520515310423 -18.35425759341492" fill="#a7ff21" stroke="none" /><path d="M 116.0416608686014 113.55231037782055 l 12.365143401093416 10.446316164548605 a37.187102666608176,37.187102666608176 0 0,0 -0.4173056805117468,0.48542078365470054 l -12.18349521101089 -10.657614047364834" fill="#ff9c0e" stroke="none" /><path d="M 115.32070863581623 114.36230785411682 l 24.66903349395727 23.125839798000786 a54.8136907167612,54.8136907167612 0 0,0 -0.6512217489795996,0.6828034002548679 l -24.267305193598705 -23.54705031483816" fill="#7eff26" stroke="none" /><path d="M 114.81725581225074 114.88116024355365 l 44.01061509195781 44.20042576705041 a83.3747695688008,83.3747695688008 0 0,0 -1.0257083661312794,1.003871519253598 l -43.24325677345074 -44.95144738922658" fill="#4cd8ff" stroke="none" /><path d="M 114.0293411484842 115.62618273729858 l 19.712832299113824 21.956577754826068 a50.507406933797284,50.507406933797284 0 0,0 -0.6519247087745043,0.5752477575073405 l -19.331965237432733 -22.292648654105694" fill="#b1ff20" stroke="none" /><path d="M 113.48314897796784 116.09983520530334 l 24.00460401562883 28.663198000088787 a58.38716268372659,58.38716268372659 0 0,0 -0.7760762483118481,0.638657917358667 l -23.50765763877229 -29.072151036304636" fill="#56ff2b" stroke="none" /><path d="M 112.92097659922987 116.55440617244103 l 18.376446718739956 23.54397600305028 a50.86657998564442,50.86657998564442 0 0,0 -0.6948647846509152,0.5327926863158572 l -17.968453205595544 -23.85680803119351" fill="#adff20" stroke="none" /><path d="M 112.34349029814194 116.9893568818739 l 10.23818841981169 14.091657439406138 a38.41824651074661,38.41824651074661 0 0,0 -0.5383542885751272,0.38410149070545485 l -9.994106803387679 -14.265803191955813" fill="#ffae10" stroke="none" /><path d="M 111.45004920935366 117.60387380957326 l 16.97519830958958 26.098512195945798 a52.13341768087507,52.13341768087507 0 0,0 -0.7564762423262354,0.48281892928723474 l -16.523440265216415 -26.386845554056844" fill="#9eff22" stroke="none" /><line stroke="#e1ed5e" stroke-width="0.3" x1="143.8653032363475" x2="146.44561519142675" y1="172.8068346515853" y2="177.08958963109032" /><path d="M 144.38136562736335 173.6633856474863 a86.0,86.0 0 0,1 -40.68145358897372,12.25698825130547" fill="none" id="id18" stroke="none" /><text fill="#e1ed5e" style="font-size:6.75px; font-family:Arial;" text-anchor="middle"><textPath startOffset="21.466115282336833" xlink:href="#id18">June</textPath></text><path d="M 110.8373102113329 117.98757091392108 l 32.51193063399873 53.96271274176323 a84.0,84.0 0 0,0 -1.2449285158864716,0.735525710825002 l -31.578234247083873 -54.514357024881974" fill="#4dd2ff" stroke="none" /><path d="M 109.89434966115114 118.52300852407294 l 13.999084241507243 26.20739771839489 a50.71198503585626,50.71198503585626 0 0,0 -0.7735004837107132,0.40465889518691717 l -13.545892855270035 -26.444486032526527" fill="#afff20" stroke="none" /><path d="M 109.2508944713604 118.85261126421891 l 15.537910844081615 31.66506697362479 a56.271846277771914,56.271846277771914 0 0,0 -0.8732515166744821,0.41921379541102693 l -14.9905466594069 -31.927835045535375" fill="#6eff28" stroke="none" /><path d="M 108.59647513512805 119.15986991738527 l 16.148381143436275 35.99159855884207 a60.44826207039457,60.44826207039457 0 0,0 -0.9530080868751203,0.41777073896002836 l -15.526452381903402 -36.26423385109655" fill="#40ff2d" stroke="none" /><path d="M 108.2653958097858 119.30500536409082 l 5.810976100913744 13.572359676463039 a35.76402351774985,35.76402351774985 0 0,0 -0.568015360303504,0.2374304666742744 l -5.576489281112779 -13.670375186157287" fill="#ff880c" stroke="none" /><path d="M 107.59598834532513 119.57807347666477 l 7.778393708372859 20.048209216470646 a42.50428100332194,42.50428100332194 0 0,0 -0.6843791977331664,0.25877365258258084 l -7.432144289879418 -20.179131119159855" fill="#ffe615" stroke="none" /><line stroke="#e1ed5e" stroke-width="0.3" x1="102.19456741930631" x2="102.32365962044197" y1="184.97166512339345" y2="189.96999836594603" /><path d="M 102.22038585953345 185.97133177190398 a86.0,86.0 0 0,1 -42.740103519485714,-10.115201625700543" fill="none" id="id19" stroke="none" /><text fill="#e1ed5e" style="font-size:6.75px; font-family:Arial;" text-anchor="middle"><textPath startOffset="22.20632615414155" xlink:href="#id19">July</textPath></text><line stroke="#e1ed5e" stroke-width="0.3" x1="58.666819895761336" x2="56.23545636021788" y1="174.27360380694188" y2="178.64263932499728" /><path d="M 58.180547188652646 175.14741091055294 a86.0,86.0 0 0,1 -31.652253787137756,-30.449443065178592" fill="none" id="id20" stroke="none" /><text fill="#e1ed5e" style="font-size:6.75px; font-family:Arial;" text-anchor="middle"><textPath startOffset="22.20632615414155" xlink:href="#id20">August</textPath></text><line stroke="#e1ed5e" stroke-width="0.3" x1="26.63291911575756" x2="22.317208475507996" y1="142.92168965132927" y2="145.44649492493687" /><path d="M 25.769776987707644 143.4266507060508 a86.0,86.0 0 0,1 -11.730757126820373,-40.83630448921669" fill="none" id="id21" stroke="none" /><text fill="#e1ed5e" style="font-size:6.75px; font-family:Arial;" text-anchor="middle"><textPath startOffset="21.46611528233685" xlink:href="#id21">September</textPath></text><line stroke="#e1ed5e" stroke-width="0.3" x1="15.007084014347285" x2="10.007500721073583" y1="101.09737516637583" y2="101.16192664675087" /><path d="M 14.007167355692545 101.11028546245083 a86.0,86.0 0 0,1 10.666146001902534,-42.60595125391555" fill="none" id="id22" stroke="none" /><text fill="#e1ed5e" style="font-size:6.75px; font-family:Arial;" text-anchor="middle"><textPath startOffset="22.20632615414155" xlink:href="#id22">October</textPath></text><line stroke="#e1ed5e" stroke-width="0.3" x1="26.266209847984243" x2="21.928928074336255" y1="57.711370442889674" y2="55.22380399835377" /><path d="M 25.398753493254645 57.213857153982495 a86.0,86.0 0 0,1 29.58750427330803,-30.492523968695096" fill="none" id="id23" stroke="none" /><text fill="#e1ed5e" style="font-size:6.75px; font-family:Arial;" text-anchor="middle"><textPath startOffset="21.46611528233685" xlink:href="#id23">November</textPath></text><line stroke="#e1ed5e" stroke-width="0.3" x1="56.762969772571076" x2="54.21961505331055" y1="26.818313649435495" y2="22.513508569990535" /><path d="M 56.25429882871897 25.957352633546506 a86.0,86.0 0 0,1 42.265352541879196,-11.944610805530505" fill="none" id="id24" stroke="none" /><text fill="#e1ed5e" style="font-size:6.75px; font-family:Arial;" text-anchor="middle"><textPath startOffset="22.20632615414155" xlink:href="#id24">December</textPath></text></svg>