<?xml version="1.0" encoding="utf-8" ?>
<svg baseProfile="full" height="200mm" version="1.1" viewBox="0,0,200,200" width="200mm" xmlns="http://www.w3.org/2000/svg" xmlns:ev="http://www.w3.org/2001/xml-events" xmlns:xlink="http://www.w3.org/1999/xlink"><defs /><rect fill="#1a1a1a" height="200" width="200" x="0" y="0" /><rect fill="#1a1a1a" height="200" width="180" x="10" y="0" /><text alignment-baseline="middle" fill="#e1ed5e" style="dominant-baseline: central; font-size:9.0px; font-family:Arial;" text-anchor="middle" x="100.0" y="100.0">2026</text><line stroke="#e1ed5e" stroke-width="0.3" x1="100.0" x2="100.0" y1="15.0" y2="10.0" /><path d="M 100.0 14.0 a86.0,86.0 0 0,1 42.46469731375804,11.215312516191453" fill="none" id="id25" stroke="none" /><text fill="#e1ed5e" style="font-size:6.75px; font-family:Arial;" text-anchor="middle"><textPath startOffset="22.20632615414155" xlink:href="#id25">January</textPath></text><path d="M 100.36148047927253 79.00311137660856 l 0.34337342217323746 -19.945125435580223 a40.94808095903173,40.94808095903173 0 0,0 0.7046450380227743,0.01819890242676802 l -0.6866450953908796 19.936259741011096" fill="#ff940d" stroke="none" /><path d="M 100.72285384407766 79.0124445844662 l 0.4945114641433678 -14.357794237877295 a35.366307701194195,35.366307701194195 0 0,0 0.6082317262298128,0.02619173758087852 l -0.7415840227625121 14.347154773772221" fill="#ff3905" stroke="none" /><path d="M 101.44485096284872 79.0497635885617 l 2.0567300375105626 -29.822439565252427 a50.893277506327934,50.893277506327934 0 0,0 0.873449357561213,0.06779648069567809 l -2.5697695844341166 29.782617822368284" fill="#d6ff1c" stroke="none" /><path d="M 101.80526077348638 79.07773832637324 l 0.9472311011627677 -10.978035558625411 a32.01882532239503,32.01882532239503 0 0,0 0.5487033663626945,0.05210599622173684 l -1.1360595946157062 10.960104017888495" fill="#ff0000" stroke="none" /><path d="M 102.16513564639614 79.11191278185805 l 2.448698794357746 -23.623754970105693 a44.750324727739674,44.750324727739674 0 0,0 0.7655146033788657,0.08601448521505746 l -2.854980101246337 23.578104531420035" fill="#ffcf13" stroke="none" /><path d="M 102.88285421437855 79.19881850522331 l 2.9350284270305727 -21.177643565355414 a42.38006030975397,42.38006030975397 0 0,0 0.7217344846701129,0.10636490190070615 l -3.2991318921293415 21.12398417929374" fill="#ffab0f" stroke="none" /><path d="M 103.2404852339499 79.25152402106235 l 9.721455701849713 -62.245427936812945 a84.0,84.0 0 0,0 1.4266831754444993,0.23541494824150133 l -10.791468083433088 62.06886672563182" fill="#4dd2ff" stroke="none" /><path d="M 103.95276090670814 79.375362276772 l 3.267165618255103 -17.047352179571988 a38.357608922644445,38.357608922644445 0 0,0 0.6473916692718429,0.12986067851131405 l -3.5601236969940713 16.988587544983467" fill="#ff6b09" stroke="none" /><path d="M 104.307194497241 79.44645832069477 l 5.517304925358075 -26.328078941738585 a47.899970156150715,47.899970156150715 0 0,0 0.8055344273082617,0.1760586256031177 l -5.969682076819865 26.229206818039597" fill="#fffe18" stroke="none" /><path d="M 104.66035177308747 79.52364482259891 l 3.5555836761160973 -15.62229586091721 a37.02180711542535,37.02180711542535 0 0,0 0.6201616575737591,0.14677222772816362 l -3.8239690206523798 15.558777721048179" fill="#ff5507" stroke="none" /><path d="M 105.36241919743992 79.69619591428918 l 5.82667226701261 -22.06161208686332 a43.81808137373534,43.81808137373534 0 0,0 0.7275932126280339,0.19887871000407936 l -6.205563368864354 21.958046836032945" fill="#ffc111" stroke="none" /><path d="M 105.71112130821622 79.79150937346287 l 9.938182646402321 -35.16571615554831 a57.54305771341314,57.54305771341314 0 0,0 0.9508573299361791,0.2775813288331543 l -10.542030194061926 34.989436497796454" fill="#7dff26" stroke="none" /><path d="M 106.40334571778207 80.00007090966166 l 11.21111619687627 -35.01630848048805 a57.767254262190434,57.767254262190434 0 0,0 0.9444043190523762,0.311355255700338 l -11.812203338171065 34.818139500528474" fill="#7aff26" stroke="none" /><path d="M 106.74666289553966 80.11325718540242 l 5.446117596071295 -16.053201656588936 a37.951857724076945,37.951857724076945 0 0,0 0.6168405724027481,0.21520356372918334 l -5.721640172537317 15.957077239687546" fill="#ff6409" stroke="none" /><path d="M 107.08798089147638 80.2323363322302 l 6.993481443195329 -19.50411423965889 a41.72002063150474,41.72002063150474 0 0,0 0.673912779397103,0.24820776403585312 l -7.328176548365009 19.38084320781671" fill="#ffa00e" stroke="none" /><path d="M 107.76421540070413 80.48803036053334 l 13.599810739952611 -34.17719377496696 a57.783629871101226,57.783629871101226 0 0,0 0.9210053805519937,0.37570121979505794 l -14.186099990092991 33.938031668988316" fill="#7aff26" stroke="none" /><path d="M 108.09893153111575 80.62456947434976 l 6.570916906064174 -15.719893854409161 a38.037957969788835,38.037957969788835 0 0,0 0.6019348216119121,0.25771707691776563 l -6.840535485466401 15.604457249528604" fill="#ff6609" stroke="none" /><path d="M 108.76106565485865 80.91482961587045 l 7.083057672077468 -15.42978535233857 a37.97786741629282,37.97786741629282 0 0,0 0.5917707479517167,0.27784430094275303 l -7.347606631328782 15.305576068755814" fill="#ff6509" stroke="none" /><path d="M 109.08828744355905 81.06846463323043 l 10.202784859226972 -21.25311106207216 a44.57523167861655,44.57523167861655 0 0,0 0.6888544504465662,0.3380178871720979 l -10.567110576683971 21.07433801476523" fill="#ffcc13" stroke="none" /><path d="M 109.41281617654863 81.2277094730956 l 10.529783081815618 -20.99989455755037 a44.49195400936934,44.49195400936934 0 0,0 0.6816580756760954,0.3491717421045965 l -10.88970164508047 20.81553029013327" fill="#ffcb12" stroke="none" /><path d="M 110.05341064243156 81.56283822128135 l 9.64738034617647 -17.692534256241814 a41.151866314366075,41.151866314366075 0 0,0 0.6189944408779151,0.3444697361774983 l -9.95049887612642 17.523849122504135" fill="#ff980e" stroke="none" /><path d="M 110.36928655335952 81.73862282372117 l 8.310344726240357 -14.635369437409073 a37.83020701115701,37.83020701115701 0 0,0 0.5634958268858552,0.3264131540712119 l -8.56103728559154 14.490152125947812" fill="#ff6209" stroke="none" /><line stroke="#e1ed5e" stroke-width="0.3" x1="143.23703022742887" x2="145.7803849466894" y1="26.81831364943548" y2="22.513508569990506" /><path d="M 143.74570117128098 25.957352633546492 a86.0,86.0 0 0,1 28.547481713284135,27.462654790039103" fill="none" id="id26" stroke="none" /><text fill="#e1ed5e" style="font-size:6.75px; font-family:Arial;" text-anchor="middle"><textPath startOffset="19.985693538727396" xlink:href="#id26">February</textPath></text><path d="M 110.99172775467656 82.1063720568725 l 12.601909784229624 -20.514871736695266 a45.07629731879303,45.07629731879303 0 0,0 0.6576435324024613,0.4118163196580876 l -12.953172469004349 20.294911075714232" fill="#ffd413" stroke="none" /><path d="M 111.2981086023043 82.29822771554956 l 9.11938391705682 -14.288166555709635 a37.95036479107084,37.95036479107084 0 0,0 0.547629138819511,0.3561932251837348 l -9.363980081660612 14.129074406366373" fill="#ff6409" stroke="none" /><line stroke="#e1ed5e" stroke-width="0.3" x1="172.23445277983987" x2="176.4835382374775" y1="55.19839476539836" y2="52.563006222186495" /><path d="M 173.08426987136738 54.67131705675599 a86.0,86.0 0 0,1 12.851231095245387,41.99856678651699" fill="none" id="id27" stroke="none" /><text fill="#e1ed5e" style="font-size:6.75px; font-family:Arial;" text-anchor="middle"><textPath startOffset="22.20632615414155" xlink:href="#id27">March</textPath></text><line stroke="#e1ed5e" stroke-width="0.3" x1="184.98032266829074" x2="189.97916517819016" y1="98.17113171792111" y2="98.06355123074" /><path d="M 185.9800911702706 98.14961562048488 a86.0,86.0 0 0,1 -9.607161424134198,41.387399972396054" fill="none" id="id28" stroke="none" /><text fill="#e1ed5e" style="font-size:6.75px; font-family:Arial;" text-anchor="middle"><textPath startOffset="21.466115282336823" xlink:href="#id28">April</textPath></text><line stroke="#e1ed5e" stroke-width="0.3" x1="174.80103733775053" x2="179.2010983576182" y1="140.37084112569926" y2="142.7455964860345" /><path d="M 175.68104954172406 140.8457921977663 a86.0,86.0 0 0,1 -30.038265399797805,32.042727171017184" fill="none" id="id29" stroke="none" /><text fill="#e1ed5e" style="font-size:6.75px; font-family:Arial;" text-anchor="middle"><textPath startOffset="22.206326154141568" xlink:href="#id29">May</textPath></text><line stroke="#e1ed5e" stroke-width="0.3" x1="143.8653032363475" x2="146.44561519142675" y1="172.8068346515853" y2="177.08958963109032" /><path d="M 144.38136562736335 173.6633856474863 a86.0,86.0 0 0,1 -40.68145358897372,12.25698825130547" fill="none" id="id30" stroke="none" /><text fill="#e1ed5e" style="font-size:6.75px; font-family:Arial;" text-anchor="middle"><textPath startOffset="21.466115282336833" xlink:href="#id30">June</textPath></text><line stroke="#e1ed5e" stroke-width="0.3" x1="102.19456741930631" x2="102.32365962044197" y1="184.97166512339345" y2="189.96999836594603" /><path d="M 102.22038585953345 185.97133177190398 a86.0,86.0 0 0,1 -42.740103519485714,-10.115201625700543" fill="none" id="id31" stroke="none" /><text fill="#e1ed5e" style="font-size:6.75px; font-family:Arial;" text-anchor="middle"><textPath startOffset="22.20632615414155" xlink:href="#id31">July</textPath></text><line stroke="#e1ed5e" stroke-width="0.3" x1="58.666819895761336" x2="56.23545636021788" y1="174.27360380694188" y2="178.64263932499728" /><path d="M 58.180547188652646 175.14741091055294 a86.0,86.0 0 0,1 -31.652253787137756,-30.449443065178592" fill="none" id="id32" stroke="none" /><text fill="#e1ed5e" style="font-size:6.75px; font-family:Arial;" text-anchor="middle"><textPath startOffset="22.20632615414155" xlink:href="#id32">August</textPath></text><line stroke="#e1ed5e" stroke-width="0.3" x1="26.63291911575756" x2="22.317208475507996" y1="142.92168965132927" y2="145.44649492493687" /><path d="M 25.769776987707644 143.4266507060508 a86.0,86.0 0 0,1 -11.730757126820373,-40.83630448921669" fill="none" id="id33" stroke="none" /><text fill="#e1ed5e" style="font-size:6.75px; font-family:Arial;" text-anchor="middle"><textPath startOffset="21.46611528233685" xlink:href="#id33">September</textPath></text><line stroke="#e1ed5e" stroke-width="0.3" x1="15.007084014347285" x2="10.007500721073583" y1="101.09737516637583" y2="101.16192664675087" /><path d="M 14.007167355692545 101.11028546245083 a86.0,86.0 0 0,1 10.666146001902534,-42.60595125391555" fill="none" id="id34" stroke="none" /><text fill="#e1ed5e" style="font-size:6.75px; font-family:Arial;" text-anchor="middle"><textPath startOffset="22.20632615414155" xlink:href="#id34">October</textPath></text><line stroke="#e1ed5e" stroke-width="0.3" x1="26.266209847984243" x2="21.928928074336255" y1="57.711370442889674" y2="55.22380399835377" /><path d="M 25.398753493254645 57.213857153982495 a86.0,86.0 0 0,1 29.58750427330803,-30.492523968695096" fill="none" id="id35" stroke="none" /><text fill="#e1ed5e" style="font-size:6.75px; font-family:Arial;" text-anchor="middle"><textPath startOffset="21.46611528233685" xlink:href="#id35">November</textPath></text><line stroke="#e1ed5e" stroke-width="0.3" x1="56.762969772571076" x2="54.21961505331055" y1="26.818313649435495" y2="22.513508569990535" /><path d="M 56.25429882871897 25.957352633546506 a86.0,86.0 0 0,1 42.265352541879196,-11.944610805530505" fill="none" id="id36" stroke="none" /><text fill="#e1ed5e" style="font-size:6.75px; font-family:Arial;" text-anchor="middle"><textPath startOffset="22.20632615414155" xlink:href="#id36">December</textPath></text></svg>