<?xml version="1.0" encoding="utf-8" ?>
<svg baseProfile="full" height="200mm" version="1.1" viewBox="0,0,200,200" width="200mm" xmlns="http://www.w3.org/2000/svg" xmlns:ev="http://www.w3.org/2001/xml-events" xmlns:xlink="http://www.w3.org/1999/xlink"><defs /><rect fill="#1a1a1a" height="200" width="200" x="0" y="0" /><text alignment-baseline="middle" fill="#e1ed5e" style="dominant-baseline: central; font-size:9.0px; font-family:Arial;" text-anchor="middle" x="100.0" y="100.0">2025</text><line stroke="#e1ed5e" stroke-width="0.3" x1="100.0" x2="100.0" y1="15.0" y2="10.0" /><path d="M 100.0 14.0 a86.0,86.0 0 0,1 42.46469731375804,11.215312516191453" fill="none" id="id13" stroke="none" /><text fill="#e1ed5e" style="font-size:6.75px; font-family:Arial;" text-anchor="middle"><textPath startOffset="22.20632615414155" xlink:href="#id13">January</textPath></text><line stroke="#e1ed5e" stroke-width="0.3" x1="143.23703022742887" x2="145.7803849466894" y1="26.81831364943548" y2="22.513508569990506" /><path d="M 143.74570117128098 25.957352633546492 a86.0,86.0 0 0,1 28.547481713284135,27.462654790039103" fill="none" id="id14" stroke="none" /><text fill="#e1ed5e" style="font-size:6.75px; font-family:Arial;" text-anchor="middle"><textPath startOffset="19.985693538727396" xlink:href="#id14">February</textPath></text><line stroke="#e1ed5e" stroke-width="0.3" x1="172.23445277983987" x2="176.4835382374775" y1="55.19839476539836" y2="52.563006222186495" /><path d="M 173.08426987136738 54.67131705675599 a86.0,86.0 0 0,1 12.851231095245387,41.99856678651699" fill="none" id="id15" stroke="none" /><text fill="#e1ed5e" style="font-size:6.75px; font-family:Arial;" text-anchor="middle"><textPath startOffset="22.20632615414155" xlink:href="#id15">March</textPath></text><line stroke="#e1ed5e" stroke-width="0.3" x1="184.98032266829074" x2="189.97916517819016" y1="98.17113171792111" y2="98.06355123074" /><path d="M 185.9800911702706 98.14961562048488 a86.0,86.0 0 0,1 -9.607161424134198,41.387399972396054" fill="none" id="id16" stroke="none" /><text fill="#e1ed5e" style="font-size:6.75px; font-family:Arial;" text-anchor="middle"><textPath startOffset="21.466115282336823" xlink:href="#id16">April</textPath></text><path d="M 120.99824983174949 100.27111621757518 l 8.310108498489422 0.1072949032325206 a29.310801131835955,29.310801131835955 0 0,0 -0.010856074945506314,0.5044391445902925 l -8.307030360858908 -0.25032386361292797" fill="#ff2a04" stroke="none" /><path d="M 120.95626037817324 101.35467743843564 l 18.802912793729302 1.2154783954234463 a39.84215797774581,39.84215797774581 0 0,0 -0.050131758286245574,0.6840080119484229 l -18.77920447677872 -1.5389595438686394" fill="#ffc412" stroke="none" /><path d="M 120.8583938346157 102.4346265915055 l 13.662315746251442 1.5946883293653673 a34.75506824476288,34.75506824476288 0 0,0 -0.07447264843033928,0.5936202822822094 l -13.632841588574255 -1.8296263659349716" fill="#ff7c0b" stroke="none" /><path d="M 120.76222939487914 103.15116336523771 l 6.9320365266498145 1.0521018303870668 a28.01142272782857,28.01142272782857 0 0,0 -0.07645550517159364,0.47608850368599237 l -6.9128992671169325 -1.1712695637662642" fill="#ff1602" stroke="none" /><path d="M 120.64145759157962 103.86396538481128 l 18.995469627810113 3.55584564628972 a40.32542120217032,40.32542120217032 0 0,0 -0.1335924883723602,0.6811852200796747 l -18.93144720646209 -3.88229459343734" fill="#ffcb12" stroke="none" /><path d="M 120.49622156327973 104.57218783832717 l 12.59517286359245 2.8096640159139072 a33.9047507277784,33.9047507277784 0 0,0 -0.13196929222639445,0.5685202569540394 l -12.544943005435504 -3.026052930216512" fill="#ff700a" stroke="none" /><path d="M 120.23288151984713 105.62410040840565 l 17.80851089633682 4.950202140359357 a39.483710709036906,39.483710709036906 0 0,0 -0.18765547865814533,0.6532533392949788 l -17.720662780792576 -5.256012955158917" fill="#ffbf11" stroke="none" /><path d="M 119.9155931802556 106.66101706037122 l 10.110641842313338 3.3816295198136763 a31.66116769743411,31.66116769743411 0 0,0 -0.1773163630601071,0.5153643510023934 l -10.05093464831 -3.5551665739053697" fill="#ff4e07" stroke="none" /><path d="M 119.54520255179757 107.68017299344265 l 12.80316925074592 5.030930452087371 a34.756140595275475,34.756140595275475 0 0,0 -0.22359351109163011,0.5549407577590437 l -12.7146731253969 -5.250570577689228" fill="#ff7c0b" stroke="none" /><path d="M 119.41010516605496 108.01547362559984 l 24.072599741217424 9.940867742581469 a47.044402657315025,47.044402657315025 0 0,0 -0.31553133117508364,0.7458228604494573 l -23.897917428850032 -10.35376512869709" fill="#dbff1b" stroke="none" /><path d="M 119.12269723197855 108.67885076344098 l 10.0888873367452 4.578849233588044 a32.07932795784417,32.07932795784417 0 0,0 -0.23253752332873998,0.5008651377408703 l -10.00857519657663 -4.7518344386077445" fill="#ff5407" stroke="none" /><path d="M 118.64920377521936 109.65438752849418 l 4.958521167229211 2.566945243007247 a26.58355980056251,26.58355980056251 0 0,0 -0.21386789289326658,0.40455745513426744 l -4.913600766111052 -2.6519177132276486" fill="#ff0000" stroke="none" /><line stroke="#e1ed5e" stroke-width="0.3" x1="174.80103733775053" x2="179.2010983576182" y1="140.37084112569926" y2="142.7455964860345" /><path d="M 175.68104954172406 140.8457921977663 a86.0,86.0 0 0,1 -30.038265399797805,32.042727171017184" fill="none" id="id17" stroke="none" /><text fill="#e1ed5e" style="font-size:6.75px; font-family:Arial;" text-anchor="middle"><textPath startOffset="22.206326154141568" xlink:href="#id17">May</textPath></text><path d="M 117.55443506779139 111.5257021239791 l 29.46460027810988 19.345550266707225 a56.24787915138283,56.24787915138283 0 0,0 -0.5383642398409998,0.8047814923430165 l -29.12723293285816 -19.849868673256047" fill="#6dff28" stroke="none" /><path d="M 116.93607887273984 112.41649034213515 l 23.48081785958669 17.214690033610296 a50.115191229122416,50.115191229122416 0 0,0 -0.5160402605104126,0.6913202590478337 l -23.181016332381184 -17.616323172167444" fill="#b5ff20" stroke="none" /><path d="M 116.0416608686014 113.55231037782055 l 11.86800180367998 10.026321172442792 a36.53629888567821,36.53629888567821 0 0,0 -0.41000250023670853,0.47692553506874014 l -11.693656793872494 -10.22912380667306" fill="#ff960d" stroke="none" /><path d="M 115.32070863581623 114.36230785411682 l 23.677212993376028 22.196063525637573 a53.45420852782938,53.45420852782938 0 0,0 -0.6350702299483866,0.665868597123563 l -23.291636212048676 -22.600339239343644" fill="#8dff24" stroke="none" /><path d="M 114.81725581225074 114.88116024355365 l 42.24116472812064 42.42334404956364 a80.86698687871196,80.86698687871196 0 0,0 -0.9948566624448217,0.9736766337735256 l -41.50465811330002 -43.144170786259735" fill="#49f1ff" stroke="none" /><path d="M 114.0293411484842 115.62618273729858 l 18.920276271186324 21.073811758129157 a49.32105923504767,49.32105923504767 0 0,0 -0.6366119175431826,0.5617359996334067 l -18.554722000736554 -21.39637089953485" fill="#beff1e" stroke="none" /><path d="M 113.48314897796784 116.09983520530334 l 23.039496956332503 27.510791790268236 a56.884008763352305,56.884008763352305 0 0,0 -0.7560964787608186,0.6222159272339555 l -22.562530349026993 -27.90330283635937" fill="#65ff29" stroke="none" /><path d="M 112.92097659922987 116.55440617244103 l 17.637620181901788 22.597388530511555 a49.66579170509554,49.66579170509554 0 0,0 -0.6784613722294309,0.520215249148452 l -17.246030081178862 -22.89764312148738" fill="#baff1f" stroke="none" /><path d="M 112.34349029814194 116.9893568818739 l 9.826561220632193 13.525101204481293 a37.717944491303165,37.717944491303165 0 0,0 -0.5285409673096774,0.37709994654239615 l -9.592292925473632 -13.69224541286791" fill="#ffa60f" stroke="none" /><path d="M 111.45004920935366 117.60387380957326 l 16.292709079153894 25.049219387739537 a50.88169608762277,50.88169608762277 0 0,0 -0.7383132733626743,0.47122646314355643 l -15.859114003744288 -25.325960279706905" fill="#abff21" stroke="none" /><line stroke="#e1ed5e" stroke-width="0.3" x1="143.8653032363475" x2="146.44561519142675" y1="172.8068346515853" y2="177.08958963109032" /><path d="M 144.38136562736335 173.6633856474863 a86.0,86.0 0 0,1 -40.68145358897372,12.25698825130547" fill="none" id="id18" stroke="none" /><text fill="#e1ed5e" style="font-size:6.75px; font-family:Arial;" text-anchor="middle"><textPath startOffset="21.466115282336833" xlink:href="#id18">June</textPath></text><path d="M 110.8373102113329 117.98757091392108 l 31.204785815204993 51.79313748145286 a81.4670798695083,81.4670798695083 0 0,0 -1.2073891766137097,0.7133468074983011 l -30.3086287675629 -52.32260286124491" fill="#4aebff" stroke="none" /><path d="M 109.89434966115114 118.52300852407294 l 13.436249919542753 25.153727158891325 a49.517412257853266,49.517412257853266 0 0,0 -0.7552798871207821,0.39512674020964167 l -13.001279129895476 -25.381283318045682" fill="#bcff1f" stroke="none" /><path d="M 109.2508944713604 118.85261126421891 l 14.91320787324416 30.39197037726189 a54.85373882576275,54.85373882576275 0 0,0 -0.8512446950542795,0.4086491836809822 l -14.387850510189647 -30.644173837442434" fill="#7cff26" stroke="none" /><path d="M 108.59647513512805 119.15986991738527 l 15.499134164498777 34.54455340775846 a58.86224148133084,58.86224148133084 0 0,0 -0.9280033903700664,0.40680941483250666 l -14.902210099470956 -34.80622737588542" fill="#50ff2b" stroke="none" /><path d="M 108.2653958097858 119.30500536409082 l 5.577345333551671 13.026681850387053 a35.17043474989014,35.17043474989014 0 0,0 -0.5585877986176493,0.23348974512498924 l -5.35228607543656 -13.120756638532017" fill="#ff820c" stroke="none" /><path d="M 107.59598834532513 119.57807347666477 l 7.465662755883532 19.242169332268936 a41.63969963435267,41.63969963435267 0 0,0 -0.6704582116653397,0.25350992682315576 l -7.133334323457918 -19.367827509198722" fill="#ffdc14" stroke="none" /><path d="M 107.2578585660854 119.70592522655815 l 9.806120742603907 26.624751689061725 a49.373181113909695,49.373181113909695 0 0,0 -0.80003465535947,0.28686396354226296 l -9.346366526614704 -26.78960319364395" fill="#beff1f" stroke="none" /><path d="M 106.91757812671514 119.82793768551818 l 8.752660767505153 25.087857209786527 a47.570842099746514,47.570842099746514 0 0,0 -0.7754732895432015,0.263082643438361 l -8.319517745024726 -25.23480284012301" fill="#d4ff1c" stroke="none" /><path d="M 106.2309692047433 120.05430185196036 l 10.054953069249953 32.36174940561929 a54.88782828416303,54.88782828416303 0 0,0 -0.904669093703587,0.2725693768191551 l -9.49640900110612 -32.53003415154417" fill="#7cff26" stroke="none" /><path d="M 105.88484417918355 120.15858648285463 l 5.200469244404532 17.814254009576658 a39.55781577340705,39.55781577340705 0 0,0 -0.6552824364489672,0.1851893619798196 l -4.893055639850959 -17.901132164894996" fill="#ffc011" stroke="none" /><path d="M 104.83641907484287 120.43548508189849 l 6.6833029561370765 28.23918600610198 a50.01927229774614,50.01927229774614 0 0,0 -0.8395612203327292,0.1910814003710685 l -6.196221586411485 -28.350044140050734" fill="#b6ff1f" stroke="none" /><path d="M 104.48393922423573 120.51570834832081 l 5.921066812716334 27.091107565427535 a48.730617398864666,48.730617398864666 0 0,0 -0.821014691692211,0.17205161122042711 l -5.453860659594745 -27.189015157374502" fill="#c6ff1e" stroke="none" /><path d="M 103.7750983002368 120.6578951692458 l 11.32529490071043 61.973685507737414 a84.0,84.0 0 0,0 -1.4246041141118002,0.24768568591597528 l -10.256841815126581 -62.15944977217439" fill="#4dd2ff" stroke="none" /><path d="M 102.70371172650421 120.8252237178851 l 3.6397303925112987 28.03486738389731 a49.2701508054499,49.2701508054499 0 0,0 -0.8419859993428055,0.10195277870824052 l -3.156616970117113 -28.093365691330902" fill="#bfff1e" stroke="none" /><path d="M 101.98527174616119 120.90594882070398 l 3.305667284914788 34.81040376982876 a55.967007976334834,55.967007976334834 0 0,0 -0.9598493305562595,0.08281983907574351 l -2.7059736366169864 -34.86214786118316" fill="#70ff27" stroke="none" /><line stroke="#e1ed5e" stroke-width="0.3" x1="102.19456741930631" x2="102.32365962044197" y1="184.97166512339345" y2="189.96999836594603" /><path d="M 102.22038585953345 185.97133177190398 a86.0,86.0 0 0,1 -42.740103519485714,-10.115201625700543" fill="none" id="id19" stroke="none" /><text fill="#e1ed5e" style="font-size:6.75px; font-family:Arial;" text-anchor="middle"><textPath startOffset="22.20632615414155" xlink:href="#id19">July</textPath></text><line stroke="#e1ed5e" stroke-width="0.3" x1="58.666819895761336" x2="56.23545636021788" y1="174.27360380694188" y2="178.64263932499728" /><path d="M 58.180547188652646 175.14741091055294 a86.0,86.0 0 0,1 -31.652253787137756,-30.449443065178592" fill="none" id="id20" stroke="none" /><text fill="#e1ed5e" style="font-size:6.75px; font-family:Arial;" text-anchor="middle"><textPath startOffset="22.20632615414155" xlink:href="#id20">August</textPath></text><line stroke="#e1ed5e" stroke-width="0.3" x1="26.63291911575756" x2="22.317208475507996" y1="142.92168965132927" y2="145.44649492493687" /><path d="M 25.769776987707644 143.4266507060508 a86.0,86.0 0 0,1 -11.730757126820373,-40.83630448921669" fill="none" id="id21" stroke="none" /><text fill="#e1ed5e" style="font-size:6.75px; font-family:Arial;" text-anchor="middle"><textPath startOffset="21.46611528233685" xlink:href="#id21">September</textPath></text><line stroke="#e1ed5e" stroke-width="0.3" x1="15.007084014347285" x2="10.007500721073583" y1="101.09737516637583" y2="101.16192664675087" /><path d="M 14.007167355692545 101.11028546245083 a86.0,86.0 0 0,1 10.666146001902534,-42.60595125391555" fill="none" id="id22" stroke="none" /><text fill="#e1ed5e" style="font-size:6.75px; font-family:Arial;" text-anchor="middle"><textPath startOffset="22.20632615414155" xlink:href="#id22">October</textPath></text><line stroke="#e1ed5e" stroke-width="0.3" x1="26.266209847984243" x2="21.928928074336255" y1="57.711370442889674" y2="55.22380399835377" /><path d="M 25.398753493254645 57.213857153982495 a86.0,86.0 0 0,1 29.58750427330803,-30.492523968695096" fill="none" id="id23" stroke="none" /><text fill="#e1ed5e" style="font-size:6.75px; font-family:Arial;" text-anchor="middle"><textPath startOffset="21.46611528233685" xlink:href="#id23">November</textPath></text><line stroke="#e1ed5e" stroke-width="0.3" x1="56.762969772571076" x2="54.21961505331055" y1="26.818313649435495" y2="22.513508569990535" /><path d="M 56.25429882871897 25.957352633546506 a86.0,86.0 0 0,1 42.265352541879196,-11.944610805530505" fill="none" id="id24" stroke="none" /><text fill="#e1ed5e" style="font-size:6.75px; font-family:Arial;" text-anchor="middle"><textPath startOffset="22.20632615414155" xlink:href="#id24">December</textPath></text></svg>